<?xml version="1.0" encoding="UTF-8"?>
<svg id="_レイヤー_2" data-name="レイヤー 2" xmlns="http://www.w3.org/2000/svg" viewBox="0 0 668.91 400.42">
  <defs>
    <style>
      .cls-1, .cls-2, .cls-3, .cls-4 {
        fill: #231815;
        font-family: YuMinPr6N-Regular-83pv-RKSJ-H, 'Yu Mincho Pr6N';
      }

      .cls-1, .cls-2, .cls-5 {
        font-size: 22.23px;
      }

      .cls-6 {
        letter-spacing: -.02em;
      }

      .cls-7 {
        letter-spacing: -.14em;
      }

      .cls-8 {
        letter-spacing: .02em;
      }

      .cls-9 {
        letter-spacing: .02em;
      }

      .cls-10 {
        letter-spacing: -.02em;
      }

      .cls-11 {
        letter-spacing: .02em;
      }

      .cls-12 {
        letter-spacing: .02em;
      }

      .cls-13 {
        letter-spacing: -.08em;
      }

      .cls-14 {
        letter-spacing: .02em;
      }

      .cls-15 {
        letter-spacing: .05em;
      }

      .cls-16 {
        letter-spacing: .03em;
      }

      .cls-16, .cls-17, .cls-18, .cls-19 {
        font-size: 13.17px;
      }

      .cls-20 {
        letter-spacing: .05em;
      }

      .cls-21 {
        letter-spacing: .05em;
      }

      .cls-22, .cls-2, .cls-5 {
        letter-spacing: .02em;
      }

      .cls-23 {
        letter-spacing: .03em;
      }

      .cls-24 {
        letter-spacing: -.02em;
      }

      .cls-25 {
        letter-spacing: .05em;
      }

      .cls-26 {
        letter-spacing: .03em;
      }

      .cls-27 {
        fill: none;
        stroke: #231815;
        stroke-miterlimit: 10;
        stroke-width: .41px;
      }

      .cls-28 {
        letter-spacing: .06em;
      }

      .cls-29 {
        letter-spacing: .04em;
      }

      .cls-30 {
        letter-spacing: .01em;
      }

      .cls-31 {
        letter-spacing: -.01em;
      }

      .cls-17 {
        letter-spacing: -.48em;
      }

      .cls-18 {
        letter-spacing: -.47em;
      }

      .cls-32 {
        letter-spacing: -.19em;
      }

      .cls-33 {
        letter-spacing: -.19em;
      }

      .cls-34 {
        letter-spacing: .02em;
      }

      .cls-35 {
        letter-spacing: .11em;
      }

      .cls-36 {
        letter-spacing: .02em;
      }

      .cls-37 {
        letter-spacing: -.03em;
      }

      .cls-38 {
        letter-spacing: -.95em;
      }

      .cls-39 {
        letter-spacing: -.95em;
      }

      .cls-40 {
        letter-spacing: .03em;
      }

      .cls-41 {
        letter-spacing: .03em;
      }

      .cls-42 {
        letter-spacing: -.24em;
      }

      .cls-43 {
        letter-spacing: 0em;
      }

      .cls-44 {
        letter-spacing: -.24em;
      }

      .cls-3 {
        font-size: 9.5px;
      }

      .cls-45 {
        letter-spacing: -.24em;
      }

      .cls-46 {
        letter-spacing: 0em;
      }

      .cls-47 {
        letter-spacing: -.03em;
      }

      .cls-48 {
        letter-spacing: .07em;
      }

      .cls-49 {
        letter-spacing: .07em;
      }

      .cls-50 {
        letter-spacing: -.45em;
      }

      .cls-51 {
        letter-spacing: -.45em;
      }

      .cls-52 {
        letter-spacing: .05em;
      }

      .cls-53 {
        letter-spacing: -.01em;
      }

      .cls-54 {
        letter-spacing: .05em;
      }

      .cls-55 {
        letter-spacing: .05em;
      }

      .cls-56 {
        letter-spacing: -.39em;
      }

      .cls-57 {
        letter-spacing: -.39em;
      }

      .cls-58 {
        letter-spacing: .04em;
      }

      .cls-59 {
        letter-spacing: -.47em;
      }

      .cls-60 {
        letter-spacing: -.47em;
      }

      .cls-61 {
        letter-spacing: -.48em;
      }

      .cls-62 {
        letter-spacing: .02em;
      }

      .cls-63 {
        letter-spacing: .04em;
      }

      .cls-19 {
        letter-spacing: .02em;
      }

      .cls-64 {
        letter-spacing: .04em;
      }

      .cls-65 {
        letter-spacing: 0em;
      }

      .cls-66 {
        letter-spacing: -.01em;
      }

      .cls-67 {
        letter-spacing: .02em;
      }

      .cls-68 {
        font-size: 38.37px;
        letter-spacing: .02em;
      }
    </style>
  </defs>
  <g id="_レイヤー_1-2" data-name="レイヤー 1">
    <text class="cls-3" transform="translate(-4.75 58.82)"><tspan class="cls-15" x="0" y="0">［通勤時</tspan><tspan class="cls-50" x="39.9" y="0">］</tspan><tspan class="cls-15" x="45.12" y="0">京阪本線利用</tspan><tspan class="cls-49" x="0" y="14">［</tspan><tspan class="cls-64" x="10.15" y="14">平常時</tspan><tspan class="cls-56" x="39.76" y="14">］</tspan><tspan class="cls-21" x="45.53" y="14">京阪本線利用</tspan></text>
    <text class="cls-1" transform="translate(-10.8 32.29)"><tspan class="cls-23" x="0" y="0">「門真市</tspan><tspan class="cls-59" x="91.14" y="0">」</tspan><tspan class="cls-11" x="102.81" y="0">駅</tspan><tspan class="cls-52" x="125.58" y="0">へ</tspan></text>
    <text class="cls-2" transform="translate(182.31 32.29)"><tspan x="0" y="0">直通</tspan></text>
    <text class="cls-4" transform="translate(232.05 33.76)"><tspan class="cls-68" x="0" y="0">2</tspan><tspan class="cls-5" x="21.75" y="-2.02">分</tspan><tspan class="cls-16" x="37.95" y="-2.16">（1分</tspan><tspan class="cls-17" x="72.43" y="-2.16">）</tspan></text>
    <line class="cls-27" x1=".31" y1="40.64" x2="310.27" y2="40.64"/>
    <text class="cls-3" transform="translate(346.11 367.98)"><tspan class="cls-21" x="0" y="0">［通勤時</tspan><tspan class="cls-51" x="39.9" y="0">］</tspan><tspan class="cls-21" x="45.12" y="0">京阪本線区間急行利用</tspan><tspan class="cls-39" x="144.88" y="0">、</tspan><tspan class="cls-25" x="145.35" y="0">「門真市</tspan><tspan class="cls-51" x="185.25" y="0">」</tspan><tspan class="cls-14" x="190.47" y="0">駅</tspan><tspan class="cls-34" x="200.2" y="0">で</tspan><tspan class="cls-25" x="209.88" y="0">大</tspan><tspan class="cls-28" x="219.86" y="0">阪</tspan><tspan class="cls-13" x="229.96" y="0">モ</tspan><tspan class="cls-7" x="238.72" y="0">ノ</tspan><tspan class="cls-37" x="246.85" y="0">レ</tspan><tspan class="cls-65" x="256.09" y="0">ー</tspan><tspan class="cls-58" x="265.61" y="0">ル</tspan><tspan class="cls-43" x="275.5" y="0">に</tspan><tspan class="cls-21" x="285.1" y="0">乗換</tspan><tspan class="cls-48" x="0" y="14">［</tspan><tspan class="cls-63" x="10.15" y="14">平常時</tspan><tspan class="cls-57" x="39.76" y="14">］</tspan><tspan class="cls-25" x="45.53" y="14">京阪本線利用</tspan><tspan class="cls-39" x="105.38" y="14">、</tspan><tspan class="cls-25" x="105.86" y="14">「門真市</tspan><tspan class="cls-51" x="145.76" y="14">」</tspan><tspan class="cls-14" x="150.98" y="14">駅</tspan><tspan class="cls-34" x="160.71" y="14">で</tspan><tspan class="cls-25" x="170.39" y="14">大</tspan><tspan class="cls-28" x="180.37" y="14">阪</tspan><tspan class="cls-13" x="190.46" y="14">モ</tspan><tspan class="cls-7" x="199.23" y="14">ノ</tspan><tspan class="cls-37" x="207.36" y="14">レ</tspan><tspan class="cls-65" x="216.6" y="14">ー</tspan><tspan class="cls-29" x="226.12" y="14">ル</tspan><tspan class="cls-30" x="236.01" y="14">に</tspan><tspan class="cls-21" x="245.6" y="14">乗換</tspan></text>
    <text class="cls-1" transform="translate(340.06 342.45)"><tspan class="cls-22" x="0" y="0">「大阪空港</tspan><tspan class="cls-61" x="113.93" y="0">」</tspan><tspan class="cls-12" x="125.6" y="0">駅</tspan><tspan class="cls-55" x="148.37" y="0">へ</tspan></text>
    <text class="cls-4" transform="translate(556.2 343.93)"><tspan class="cls-68" x="0" y="0">45</tspan><tspan class="cls-5" x="43.51" y="-2.02">分</tspan><tspan class="cls-19" x="59.71" y="-2.16">（50分</tspan><tspan class="cls-18" x="101.65" y="-2.16">）</tspan></text>
    <line class="cls-27" x1="351.17" y1="350.8" x2="661.13" y2="350.8"/>
    <text class="cls-3" transform="translate(346.11 57.82)"><tspan class="cls-15" x="0" y="0">［通勤時</tspan><tspan class="cls-50" x="39.9" y="0">］</tspan><tspan class="cls-15" x="45.12" y="0">京阪本線区間急行利用</tspan><tspan class="cls-49" x="0" y="14">［</tspan><tspan class="cls-64" x="10.15" y="14">平常時</tspan><tspan class="cls-56" x="39.76" y="14">］</tspan><tspan class="cls-21" x="45.53" y="14">京阪本線利用</tspan><tspan class="cls-38" x="105.38" y="14">、</tspan><tspan class="cls-15" x="105.86" y="14">「守口市</tspan><tspan class="cls-50" x="145.76" y="14">」</tspan><tspan class="cls-9" x="150.98" y="14">駅</tspan><tspan class="cls-67" x="160.71" y="14">で</tspan><tspan class="cls-15" x="170.39" y="14">京阪本線準</tspan><tspan class="cls-40" x="220.27" y="14">急</tspan><tspan class="cls-43" x="230.07" y="14">に</tspan><tspan class="cls-15" x="239.67" y="14">乗換</tspan></text>
    <text class="cls-1" transform="translate(340.06 32.29)"><tspan class="cls-23" x="0" y="0">「京橋</tspan><tspan class="cls-61" x="68.36" y="0">」</tspan><tspan class="cls-8" x="80.03" y="0">駅</tspan><tspan class="cls-52" x="102.79" y="0">へ</tspan></text>
    <text class="cls-2" transform="translate(506.45 32.29)"><tspan x="0" y="0">直通</tspan></text>
    <text class="cls-4" transform="translate(556.2 33.76)"><tspan class="cls-68" x="0" y="0">14</tspan><tspan class="cls-5" x="43.51" y="-2.02">分</tspan><tspan class="cls-19" x="59.71" y="-2.16">（13分</tspan><tspan class="cls-18" x="101.65" y="-2.16">）</tspan></text>
    <line class="cls-27" x1="351.17" y1="40.64" x2="661.13" y2="40.64"/>
    <text class="cls-3" transform="translate(-4.75 161.2)"><tspan class="cls-21" x="0" y="0">［通勤時</tspan><tspan class="cls-51" x="39.9" y="0">］</tspan><tspan class="cls-21" x="45.12" y="0">京阪本線区間急行利用</tspan><tspan class="cls-48" x="0" y="14">［</tspan><tspan class="cls-63" x="10.15" y="14">平常時</tspan><tspan class="cls-57" x="39.76" y="14">］</tspan><tspan class="cls-25" x="45.53" y="14">京阪本線利用</tspan><tspan class="cls-39" x="105.38" y="14">、</tspan><tspan class="cls-25" x="105.86" y="14">「守口市</tspan><tspan class="cls-51" x="145.76" y="14">」</tspan><tspan class="cls-14" x="150.98" y="14">駅</tspan><tspan class="cls-34" x="160.71" y="14">で</tspan><tspan class="cls-25" x="170.39" y="14">京阪本線準</tspan><tspan class="cls-41" x="220.27" y="14">急</tspan><tspan class="cls-43" x="230.07" y="14">に</tspan><tspan class="cls-21" x="239.67" y="14">乗換</tspan></text>
    <text class="cls-1" transform="translate(-10.8 135.68)"><tspan class="cls-22" x="0" y="0">「淀屋橋</tspan><tspan class="cls-61" x="91.15" y="0">」</tspan><tspan class="cls-12" x="102.82" y="0">駅</tspan><tspan class="cls-54" x="125.58" y="0">へ</tspan></text>
    <text class="cls-2" transform="translate(155.59 135.68)"><tspan x="0" y="0">直通</tspan></text>
    <text class="cls-4" transform="translate(205.34 137.15)"><tspan class="cls-68" x="0" y="0">19</tspan><tspan class="cls-5" x="43.51" y="-2.02">分</tspan><tspan class="cls-19" x="59.71" y="-2.16">（20分</tspan><tspan class="cls-18" x="101.65" y="-2.16">）</tspan></text>
    <line class="cls-27" x1=".31" y1="144.03" x2="310.27" y2="144.03"/>
    <text class="cls-1" transform="translate(-10.8 342.45)"><tspan class="cls-22" x="0" y="0">「新大阪</tspan><tspan class="cls-61" x="91.15" y="0">」</tspan><tspan class="cls-12" x="102.82" y="0">駅</tspan><tspan class="cls-54" x="125.58" y="0">へ</tspan></text>
    <text class="cls-4" transform="translate(205.34 343.92)"><tspan class="cls-68" x="0" y="0">32</tspan><tspan class="cls-5" x="43.51" y="-2.02">分</tspan><tspan class="cls-19" x="59.71" y="-2.16">（33分</tspan><tspan class="cls-18" x="101.65" y="-2.16">）</tspan></text>
    <line class="cls-27" x1=".31" y1="350.8" x2="310.27" y2="350.8"/>
    <text class="cls-3" transform="translate(346.11 161.2)"><tspan class="cls-15" x="0" y="0">［通勤時</tspan><tspan class="cls-50" x="39.9" y="0">］</tspan><tspan class="cls-15" x="45.12" y="0">京阪本線区間急行利用</tspan><tspan class="cls-38" x="144.88" y="0">、</tspan><tspan class="cls-15" x="145.35" y="0">「京橋</tspan><tspan class="cls-50" x="175.27" y="0">」</tspan><tspan class="cls-9" x="180.5" y="0">駅</tspan><tspan class="cls-67" x="190.23" y="0">で</tspan><tspan class="cls-15" x="199.91" y="0">JR大阪環状</tspan><tspan class="cls-40" x="250.75" y="0">線</tspan><tspan class="cls-46" x="260.56" y="0">に</tspan><tspan class="cls-25" x="270.15" y="0">乗換</tspan><tspan class="cls-49" x="0" y="14">［</tspan><tspan class="cls-64" x="10.15" y="14">平常時</tspan><tspan class="cls-56" x="39.76" y="14">］</tspan><tspan class="cls-21" x="45.53" y="14">京阪本線利用</tspan><tspan class="cls-38" x="105.38" y="14">、</tspan><tspan class="cls-15" x="105.86" y="14">「守口市</tspan><tspan class="cls-50" x="145.76" y="14">」</tspan><tspan class="cls-9" x="150.98" y="14">駅</tspan><tspan class="cls-67" x="160.71" y="14">で</tspan><tspan class="cls-15" x="170.39" y="14">京阪本線準</tspan><tspan class="cls-40" x="220.27" y="14">急</tspan><tspan class="cls-43" x="230.07" y="14">に</tspan><tspan class="cls-15" x="239.67" y="14">乗換</tspan><tspan class="cls-50" x="259.62" y="14">、</tspan><tspan class="cls-15" x="4.75" y="28">　　</tspan><tspan class="cls-35" x="24.7" y="28">　</tspan><tspan class="cls-50" x="35.25" y="28">　</tspan><tspan class="cls-21" x="40.47" y="28">「京橋</tspan><tspan class="cls-50" x="70.4" y="28">」</tspan><tspan class="cls-9" x="75.62" y="28">駅</tspan><tspan class="cls-67" x="85.35" y="28">で</tspan><tspan class="cls-15" x="95.03" y="28">JR大阪環状線関空快</tspan><tspan class="cls-40" x="185.77" y="28">速</tspan><tspan class="cls-46" x="195.58" y="28">に</tspan><tspan class="cls-15" x="205.17" y="28">乗換</tspan></text>
    <text class="cls-1" transform="translate(340.06 135.68)"><tspan class="cls-23" x="0" y="0">「大阪</tspan><tspan class="cls-61" x="68.36" y="0">」</tspan><tspan class="cls-8" x="80.03" y="0">駅</tspan><tspan class="cls-52" x="102.79" y="0">へ</tspan></text>
    <text class="cls-4" transform="translate(556.2 137.15)"><tspan class="cls-68" x="0" y="0">24</tspan><tspan class="cls-5" x="43.51" y="-2.02">分</tspan><tspan class="cls-19" x="59.71" y="-2.16">（25分</tspan><tspan class="cls-18" x="101.65" y="-2.16">）</tspan></text>
    <line class="cls-27" x1="351.17" y1="144.03" x2="661.13" y2="144.03"/>
    <text class="cls-3" transform="translate(-4.75 264.59)"><tspan class="cls-21" x="0" y="0">［通勤時</tspan><tspan class="cls-51" x="39.9" y="0">］</tspan><tspan class="cls-21" x="45.12" y="0">京阪本線区間急行利用</tspan><tspan class="cls-39" x="144.88" y="0">、</tspan><tspan class="cls-25" x="145.35" y="0">「淀屋橋</tspan><tspan class="cls-51" x="185.25" y="0">」</tspan><tspan class="cls-14" x="190.47" y="0">駅</tspan><tspan class="cls-34" x="200.2" y="0">で</tspan><tspan class="cls-25" x="209.88" y="0">大</tspan><tspan class="cls-6" x="219.86" y="0">阪</tspan><tspan class="cls-45" x="229.18" y="0">メ</tspan><tspan class="cls-32" x="236.4" y="0">ト</tspan><tspan class="cls-31" x="244.13" y="0">ロ</tspan><tspan class="cls-25" x="253.53" y="0">御堂筋</tspan><tspan class="cls-41" x="283.45" y="0">線</tspan><tspan class="cls-43" x="293.26" y="0">に</tspan><tspan class="cls-25" x="302.85" y="0">乗換</tspan><tspan class="cls-48" x="0" y="14">［</tspan><tspan class="cls-63" x="10.15" y="14">平常時</tspan><tspan class="cls-57" x="39.76" y="14">］</tspan><tspan class="cls-25" x="45.53" y="14">京阪本線利用</tspan><tspan class="cls-39" x="105.38" y="14">、</tspan><tspan class="cls-25" x="105.86" y="14">「守口市</tspan><tspan class="cls-51" x="145.76" y="14">」</tspan><tspan class="cls-14" x="150.98" y="14">駅</tspan><tspan class="cls-34" x="160.71" y="14">で</tspan><tspan class="cls-25" x="170.39" y="14">京阪本線準</tspan><tspan class="cls-41" x="220.27" y="14">急</tspan><tspan class="cls-43" x="230.07" y="14">に</tspan><tspan class="cls-21" x="239.67" y="14">乗換</tspan><tspan class="cls-51" x="259.62" y="14">、</tspan><tspan class="cls-21" x="4.75" y="28">　　</tspan><tspan class="cls-35" x="24.7" y="28">　</tspan><tspan class="cls-51" x="35.25" y="28">　</tspan><tspan class="cls-25" x="40.47" y="28">「淀屋橋</tspan><tspan class="cls-51" x="80.37" y="28">」</tspan><tspan class="cls-14" x="85.59" y="28">駅</tspan><tspan class="cls-34" x="95.32" y="28">で</tspan><tspan class="cls-25" x="105" y="28">大</tspan><tspan class="cls-6" x="114.98" y="28">阪</tspan><tspan class="cls-44" x="124.3" y="28">メ</tspan><tspan class="cls-33" x="131.52" y="28">ト</tspan><tspan class="cls-31" x="139.25" y="28">ロ</tspan><tspan class="cls-21" x="148.65" y="28">御堂筋</tspan><tspan class="cls-41" x="178.57" y="28">線</tspan><tspan class="cls-43" x="188.38" y="28">に</tspan><tspan class="cls-21" x="197.97" y="28">乗換</tspan></text>
    <text class="cls-1" transform="translate(-10.8 239.06)"><tspan class="cls-22" x="0" y="0">「本町</tspan><tspan class="cls-60" x="68.36" y="0">」</tspan><tspan class="cls-12" x="80.03" y="0">駅</tspan><tspan class="cls-54" x="102.79" y="0">へ</tspan></text>
    <text class="cls-4" transform="translate(205.34 240.54)"><tspan class="cls-68" x="0" y="0">26</tspan><tspan class="cls-5" x="43.51" y="-2.02">分</tspan><tspan class="cls-19" x="59.71" y="-2.16">（26分</tspan><tspan class="cls-18" x="101.65" y="-2.16">）</tspan></text>
    <line class="cls-27" x1=".31" y1="247.41" x2="310.27" y2="247.41"/>
    <text class="cls-3" transform="translate(346.11 264.59)"><tspan class="cls-15" x="0" y="0">［通勤時</tspan><tspan class="cls-50" x="39.9" y="0">］</tspan><tspan class="cls-15" x="45.12" y="0">京阪本線区間急行利用</tspan><tspan class="cls-38" x="144.88" y="0">、</tspan><tspan class="cls-15" x="145.35" y="0">「淀屋橋</tspan><tspan class="cls-50" x="185.25" y="0">」</tspan><tspan class="cls-9" x="190.48" y="0">駅</tspan><tspan class="cls-67" x="200.2" y="0">で</tspan><tspan class="cls-15" x="209.88" y="0">大</tspan><tspan class="cls-6" x="219.86" y="0">阪</tspan><tspan class="cls-42" x="229.18" y="0">メ</tspan><tspan class="cls-32" x="236.4" y="0">ト</tspan><tspan class="cls-53" x="244.13" y="0">ロ</tspan><tspan class="cls-15" x="253.53" y="0">御堂筋</tspan><tspan class="cls-41" x="283.45" y="0">線</tspan><tspan class="cls-43" x="293.26" y="0">に</tspan><tspan class="cls-25" x="302.85" y="0">乗換</tspan><tspan class="cls-49" x="0" y="14">［</tspan><tspan class="cls-64" x="10.15" y="14">平常時</tspan><tspan class="cls-56" x="39.76" y="14">］</tspan><tspan class="cls-21" x="45.53" y="14">京阪本線利用</tspan><tspan class="cls-38" x="105.38" y="14">、</tspan><tspan class="cls-15" x="105.86" y="14">「守口市</tspan><tspan class="cls-50" x="145.76" y="14">」</tspan><tspan class="cls-9" x="150.98" y="14">駅</tspan><tspan class="cls-67" x="160.71" y="14">で</tspan><tspan class="cls-15" x="170.39" y="14">京阪本線準</tspan><tspan class="cls-40" x="220.27" y="14">急</tspan><tspan class="cls-43" x="230.07" y="14">に</tspan><tspan class="cls-15" x="239.67" y="14">乗換</tspan><tspan class="cls-50" x="259.62" y="14">、</tspan><tspan class="cls-15" x="4.75" y="28">　　</tspan><tspan class="cls-35" x="24.7" y="28">　</tspan><tspan class="cls-50" x="35.25" y="28">　</tspan><tspan class="cls-21" x="40.47" y="28">「淀屋橋</tspan><tspan class="cls-50" x="80.37" y="28">」</tspan><tspan class="cls-36" x="85.6" y="28">駅</tspan><tspan class="cls-62" x="95.32" y="28">で</tspan><tspan class="cls-21" x="105" y="28">大</tspan><tspan class="cls-10" x="114.98" y="28">阪</tspan><tspan class="cls-42" x="124.3" y="28">メ</tspan><tspan class="cls-32" x="131.52" y="28">ト</tspan><tspan class="cls-53" x="139.25" y="28">ロ</tspan><tspan class="cls-15" x="148.65" y="28">御堂筋</tspan><tspan class="cls-26" x="178.57" y="28">線</tspan><tspan class="cls-43" x="188.38" y="28">に</tspan><tspan class="cls-15" x="197.97" y="28">乗換</tspan></text>
    <text class="cls-1" transform="translate(340.06 239.07)"><tspan class="cls-24" x="0" y="0">「</tspan><tspan class="cls-47" x="21.79" y="0">な</tspan><tspan class="cls-66" x="43.37" y="0">ん</tspan><tspan class="cls-20" x="65.31" y="0">ば</tspan><tspan class="cls-59" x="88.68" y="0">」</tspan><tspan class="cls-11" x="100.35" y="0">駅</tspan><tspan class="cls-52" x="123.11" y="0">へ</tspan></text>
    <text class="cls-4" transform="translate(556.2 240.54)"><tspan class="cls-68" x="0" y="0">30</tspan><tspan class="cls-5" x="43.51" y="-2.02">分</tspan><tspan class="cls-19" x="59.71" y="-2.16">（30分</tspan><tspan class="cls-18" x="101.65" y="-2.16">）</tspan></text>
    <line class="cls-27" x1="351.17" y1="247.41" x2="661.13" y2="247.41"/>
    <text class="cls-3" transform="translate(-4.75 368.98)"><tspan class="cls-21" x="0" y="0">［通勤時</tspan><tspan class="cls-51" x="39.9" y="0">］</tspan><tspan class="cls-21" x="45.12" y="0">京阪本線区間急行利用</tspan><tspan class="cls-39" x="144.88" y="0">、</tspan><tspan class="cls-25" x="145.35" y="0">「淀屋橋</tspan><tspan class="cls-51" x="185.25" y="0">」</tspan><tspan class="cls-14" x="190.47" y="0">駅</tspan><tspan class="cls-34" x="200.2" y="0">で</tspan><tspan class="cls-25" x="209.88" y="0">大</tspan><tspan class="cls-6" x="219.86" y="0">阪</tspan><tspan class="cls-45" x="229.18" y="0">メ</tspan><tspan class="cls-32" x="236.4" y="0">ト</tspan><tspan class="cls-31" x="244.13" y="0">ロ</tspan><tspan class="cls-25" x="253.53" y="0">御堂筋</tspan><tspan class="cls-41" x="283.45" y="0">線</tspan><tspan class="cls-43" x="293.26" y="0">に</tspan><tspan class="cls-25" x="302.85" y="0">乗換</tspan><tspan class="cls-48" x="0" y="14">［</tspan><tspan class="cls-63" x="10.15" y="14">平常時</tspan><tspan class="cls-57" x="39.76" y="14">］</tspan><tspan class="cls-25" x="45.53" y="14">京阪本線利用</tspan><tspan class="cls-39" x="105.38" y="14">、</tspan><tspan class="cls-25" x="105.86" y="14">「守口市</tspan><tspan class="cls-51" x="145.76" y="14">」</tspan><tspan class="cls-14" x="150.98" y="14">駅</tspan><tspan class="cls-34" x="160.71" y="14">で</tspan><tspan class="cls-25" x="170.39" y="14">京阪本線準</tspan><tspan class="cls-41" x="220.27" y="14">急</tspan><tspan class="cls-43" x="230.07" y="14">に</tspan><tspan class="cls-21" x="239.67" y="14">乗換</tspan><tspan class="cls-51" x="259.62" y="14">、</tspan><tspan class="cls-21" x="4.75" y="28">　　</tspan><tspan class="cls-35" x="24.7" y="28">　</tspan><tspan class="cls-51" x="35.25" y="28">　</tspan><tspan class="cls-25" x="40.47" y="28">「淀屋橋</tspan><tspan class="cls-51" x="80.37" y="28">」</tspan><tspan class="cls-14" x="85.59" y="28">駅</tspan><tspan class="cls-34" x="95.32" y="28">で</tspan><tspan class="cls-25" x="105" y="28">大</tspan><tspan class="cls-6" x="114.98" y="28">阪</tspan><tspan class="cls-44" x="124.3" y="28">メ</tspan><tspan class="cls-33" x="131.52" y="28">ト</tspan><tspan class="cls-31" x="139.25" y="28">ロ</tspan><tspan class="cls-21" x="148.65" y="28">御堂筋</tspan><tspan class="cls-41" x="178.57" y="28">線</tspan><tspan class="cls-43" x="188.38" y="28">に</tspan><tspan class="cls-21" x="197.97" y="28">乗換</tspan></text>
  </g>
</svg>