<svg xmlns="http://www.w3.org/2000/svg" width="212.01" height="92.67" viewBox="0 0 212.01 92.67">
  <g id="info06-sp" transform="translate(0 -36.37)">
    <g id="グループ_4" data-name="グループ 4" transform="translate(-468.21 80.09)">
      <path id="パス_880" data-name="パス 880" d="M609.17,41.27s-.14.18-.16.21c-.14.19-.68,1.05-.82,1.21-.06.07-.22.26-.29.26-.02,0-.03,0-.03-.03,0,0,.24-.58.28-.7a5.3,5.3,0,0,0,.3-1.04c0-.23,0-.26.07-.26a1.861,1.861,0,0,1,.31.1c.11.05.34.15.34.24Zm1.7-.93c-.02-.07-.03-.12-.11-.12s-.45.08-.54.09c-.21.03-.21.1-.21.4V43.2a.409.409,0,0,1-.41.44.164.164,0,0,1-.18-.19c0-.1.04-.59.04-.7.02-.58.04-1.57.04-2.14,0-.1-.02-.19-.16-.19a5.629,5.629,0,0,0-.94.12,1.009,1.009,0,0,1-.23.12c-.14,0-.19-.64-.19-.68s0-.12.07-.12c0,0,.2.06.22.06a2.541,2.541,0,0,0,.8.11c.26,0,.29-.02.36-.14a9.3,9.3,0,0,0,.97-2.24c.04-.19.04-.21.1-.21.04,0,.78.3.78.46,0,.07-.06.1-.12.1a.494.494,0,0,0-.29.17,19.9,19.9,0,0,0-1.24,1.82c0,.02.02.03.02.04h.56c.12,0,.38-.02.46-.02a.063.063,0,0,0,.07-.07,4.3,4.3,0,0,0-.22-.57c0-.03.02-.03.03-.03.13,0,.88.43.88,1.01,0,.18-.1.32-.25.32-.18,0-.28-.06-.33-.33Zm-1.74-1.05c-.11,0-.18-.05-.26-.26a3.5,3.5,0,0,0-.54-.86c-.08-.1-.09-.1-.09-.13s.02-.05.06-.05c.1,0,.52.2.58.2a5.163,5.163,0,0,0,.49-1.63c.02-.13.04-.13.07-.13.06,0,.72.27.72.37,0,.05-.2.18-.23.21a8.678,8.678,0,0,0-.8,1.31.2.2,0,0,0,.07.15.8.8,0,0,1,.2.46c0,.16-.09.34-.27.34Zm2.31,2.96a.4.4,0,0,1-.33.41c-.16,0-.18-.06-.3-.62a2.165,2.165,0,0,0-.26-.69.478.478,0,0,1-.05-.14.037.037,0,0,1,.04-.04,1.364,1.364,0,0,1,.46.32,1.318,1.318,0,0,1,.43.77Zm.79-3.82c-.18,0-.23.02-.3.12-.18.29-.63.98-.78.98a.053.053,0,0,1-.06-.06c0-.02.3-.58.34-.7a7.579,7.579,0,0,0,.69-2.24v-.11c0-.02,0-.05.03-.05s.87.26.87.42c0,.08-.1.13-.21.18a6.881,6.881,0,0,0-.63,1.18c0,.05.06.05.14.05h1.46c.22,0,.22,0,.31-.07.14-.14.16-.15.21-.15.1,0,.63.3.63.45,0,.06-.02.06-.2.21a1.562,1.562,0,0,0-.06.6,9.4,9.4,0,0,1-.68,3.91,1.193,1.193,0,0,1-.86.5c-.1,0-.13-.06-.2-.26a1.117,1.117,0,0,0-.44-.5c-.11-.07-.13-.08-.13-.12a.03.03,0,0,1,.009-.022.029.029,0,0,1,.022-.008c.02,0,.21.07.26.08a2.19,2.19,0,0,0,.5.12c.34,0,.52-.34.62-.72a11.372,11.372,0,0,0,.36-2.96c0-.13,0-.7-.02-.74-.05-.1-.15-.1-.24-.1h-1.64Zm.87,2.58a.462.462,0,0,1-.38.51c-.19,0-.22-.1-.32-.62a3.618,3.618,0,0,0-.24-.79c-.06-.12-.06-.14-.06-.17s0-.05.02-.05a1.817,1.817,0,0,1,.63.43.985.985,0,0,1,.35.68Z" fill="#3e3a39"/>
      <path id="パス_881" data-name="パス 881" d="M616.25,43.07c-.18,0-.18-.1-.18-.13,0-.13.12-.13.41-.13.43,0,.64-.02.74-.25a17.12,17.12,0,0,0,.06-1.82c0-.38-.02-2.25-.02-2.67,0-.38-.11-.38-.78-.38-.19,0-.27,0-.27-.1s.08-.11.33-.13a3.451,3.451,0,0,0,.9-.2,3.385,3.385,0,0,1,.39-.18c.09,0,.09.02.09.38,0,.22-.02,1.25-.02,1.49,0,.37,0,3.44.03,3.53.06.23.17.33.76.33.07,0,.19,0,.19.14,0,.11-.13.11-.2.11h-2.42Z" fill="#3e3a39"/>
      <path id="パス_882" data-name="パス 882" d="M619.91,43.75c.14-.1.31-.27.31-.42,0-.06-.08-.1-.23-.18a.477.477,0,0,1-.32-.45.535.535,0,0,1,1.07.02,1.506,1.506,0,0,1-.9,1.29.091.091,0,0,1-.1-.09c0-.04,0-.06.18-.18Z" fill="#3e3a39"/>
      <path id="パス_883" data-name="パス 883" d="M622.94,43.23c-1.26,0-1.8-1.59-1.8-3.06s.54-3.07,1.8-3.07c1.29,0,1.8,1.66,1.8,3.07S624.23,43.23,622.94,43.23Zm0-5.87c-1.06,0-1.08,2.4-1.08,2.81,0,.33,0,2.81,1.08,2.8,1.06,0,1.08-2.38,1.08-2.8C624.02,39.83,624.02,37.36,622.94,37.36Z" fill="#3e3a39"/>
      <path id="パス_884" data-name="パス 884" d="M626.94,43.23c-1.26,0-1.8-1.59-1.8-3.06s.54-3.07,1.8-3.07c1.29,0,1.8,1.66,1.8,3.07S628.23,43.23,626.94,43.23Zm0-5.87c-1.06,0-1.08,2.4-1.08,2.81,0,.33,0,2.81,1.08,2.8,1.06,0,1.08-2.38,1.08-2.8C628.02,39.83,628.02,37.36,626.94,37.36Z" fill="#3e3a39"/>
      <path id="パス_885" data-name="パス 885" d="M630.94,43.23c-1.26,0-1.8-1.59-1.8-3.06s.54-3.07,1.8-3.07c1.29,0,1.8,1.66,1.8,3.07S632.23,43.23,630.94,43.23Zm0-5.87c-1.06,0-1.08,2.4-1.08,2.81,0,.33,0,2.81,1.08,2.8,1.06,0,1.08-2.38,1.08-2.8C632.02,39.83,632.02,37.36,630.94,37.36Z" fill="#3e3a39"/>
      <path id="パス_886" data-name="パス 886" d="M638.04,43.07c-.14,0-.15-.1-.15-.13,0-.12.1-.13.21-.13.42-.02.42-.23.42-1.31a5.913,5.913,0,0,0-.08-1.48.646.646,0,0,0-.63-.54,1.369,1.369,0,0,0-1.08.67,14.061,14.061,0,0,0-.05,1.5c0,.78,0,.86.08.98a.386.386,0,0,0,.33.18c.23,0,.3,0,.3.13s-.11.13-.18.13H635.6c-.07,0-.19,0-.19-.13,0-.05.02-.1.06-.11a1.828,1.828,0,0,1,.34-.02c.32-.06.32-.23.32-1.34a4.539,4.539,0,0,0-.1-1.55.628.628,0,0,0-.6-.42,1.446,1.446,0,0,0-.89.4c-.19.19-.21.21-.21,1.58,0,1.11,0,1.34.42,1.35.12,0,.24,0,.24.13s-.11.13-.18.13H633.3s-.16,0-.16-.13.1-.13.24-.13a.37.37,0,0,0,.35-.23,13.4,13.4,0,0,0,.06-1.6,9.4,9.4,0,0,0-.05-1.23.3.3,0,0,0-.3-.2c-.03,0-.2.02-.24.02-.02,0-.08,0-.08-.06s.02-.07.39-.18c.18-.05.69-.18.75-.2.08,0,.08.04.08.23,0,.21,0,.26.08.26a1.792,1.792,0,0,0,.24-.15,1.755,1.755,0,0,1,1-.34.851.851,0,0,1,.89.52c.02.03.06.11.1.11s.06-.02.18-.13a1.792,1.792,0,0,1,1.21-.5.816.816,0,0,1,.91.62,6.1,6.1,0,0,1,.1,1.83c0,.96,0,1.22.45,1.22.05,0,.18,0,.18.14,0,.08-.07.12-.15.12h-1.5Z" fill="#3e3a39"/>
      <path id="パス_887" data-name="パス 887" d="M647.43,36.62c-.36.34-6.25,6.24-6.79,6.79a2,2,0,0,1-.22.2.086.086,0,0,1-.09-.08.1.1,0,0,1,.04-.08c.33-.31,6.26-6.25,6.79-6.79.03-.02.19-.2.22-.2a.084.084,0,0,1,.04.16Z" fill="#3e3a39"/>
      <path id="パス_888" data-name="パス 888" d="M649.17,39.95s0-.1-.06-.1c-.02,0-.97.66-1.03.66a.02.02,0,0,1-.02-.02s.32-.34.36-.39a12.219,12.219,0,0,0,1.47-1.88c.05-.1.1-.21.13-.21s.67.4.67.6c0,.04-.02.05-.22.11a4.1,4.1,0,0,0-.79.67.058.058,0,0,0,.06.06c.14.03.18.05.18.14a.073.073,0,0,1-.02.06c-.02.03-.14.15-.15.18a10.014,10.014,0,0,0-.05,1.14c0,.3.03,1.8.03,2.13a.46.46,0,0,1-.42.52c-.23,0-.23-.21-.23-.28s.03-.47.04-.54c.04-.6.04-.91.04-1.78V39.93Zm1.55-2.99c0,.06-.03.07-.26.12a.956.956,0,0,0-.41.2,7.69,7.69,0,0,1-1.58.98,1.021,1.021,0,0,1-.11.05.02.02,0,0,1-.02-.02c0-.02.47-.44.54-.5a6.124,6.124,0,0,0,1.08-1.28c.06-.1.08-.14.13-.14.1,0,.63.47.63.6Zm1.2,2.39c-.18,0-.73,0-1.01.02-.03,0-.14.02-.18.02-.02,0-.04-.02-.06-.05l-.16-.18a.162.162,0,0,1-.03-.06c0-.02,0-.02.03-.02.06,0,.3.02.35.02.37.02.72.03,1.1.03h.41c.22,0,.24-.04.24-.88,0-.42-.04-.42-.37-.42-.18,0-.73,0-1.01.02-.03,0-.14.02-.17.02s-.05-.02-.07-.05l-.16-.18a.162.162,0,0,1-.03-.06s0-.02.03-.02.42.03.5.03c.58.02.6.02,1.02.02a.2.2,0,0,0,.23-.22c0-.18-.02-.53-.03-.62,0-.05-.06-.25-.06-.29,0-.07.05-.09.1-.09,0,0,.76.11.76.28,0,.04,0,.05-.15.17-.05.04-.06.1-.06.36s0,.4.26.4h.34c.37,0,.41,0,.53-.18.16-.23.18-.26.25-.26.1,0,.63.38.63.52,0,.12-.15.12-.43.12H653.4c-.22,0-.26.06-.26.32,0,.1.02.53.02.62,0,.26,0,.37.26.37h.63c.37,0,.41,0,.5-.16.13-.22.18-.28.26-.28.13,0,.66.39.66.53,0,.12-.14.12-.42.12h-1.87s-.07,0-.07.03.02.04.07.06c.03.02.1.06.1.11a.85.85,0,0,1-.1.19,1.194,1.194,0,0,0-.04.39c0,.7,0,.71.24.71H654c.37,0,.41,0,.53-.18.15-.23.17-.26.24-.26.1,0,.63.38.63.53,0,.11-.14.11-.43.11h-1.58c-.23,0-.25.1-.25.26v1.05c0,.3.07.39.51.39a6.912,6.912,0,0,0,1.76-.22,3.092,3.092,0,0,0,.3-.08.02.02,0,0,1,.02.02,1,1,0,0,1-.14.16c-.27.3-.29.41-.29.49s0,.14-.09.18a6.873,6.873,0,0,1-.98.07,2.807,2.807,0,0,1-2.75-1.23c-.03-.04-.11-.15-.17-.15s-.09.05-.15.18a3.856,3.856,0,0,1-.76,1.09,2.378,2.378,0,0,1-.4.31v-.02c0-.02.18-.29.21-.34a5.325,5.325,0,0,0,.82-2.81c0-.39,0-.42.09-.42,0,0,.29.07.37.1.26.08.29.09.29.16,0,.05-.13.21-.14.24-.03.1-.09.53-.1.62-.02.06-.11.47-.11.5,0,.3.68.9.98.9.05,0,.14,0,.16-.15,0-.07.03-1.41.03-1.51a7.87,7.87,0,0,0-.07-1.32c-.06-.18-.15-.18-.28-.18h-.32Z" fill="#3e3a39"/>
      <path id="パス_889" data-name="パス 889" d="M658.91,40.56c0,.06-.03.1-.17.12a.631.631,0,0,0-.33.2,5.765,5.765,0,0,1-1.67,1.17c-.06.02-.31.12-.34.12s-.03,0-.03-.02c0-.04.62-.49.69-.56.74-.78.9-.98,1.05-1.49,0-.02.04-.1.09-.1a1.418,1.418,0,0,1,.37.22c.31.22.34.26.34.33Zm.5-1.05c.22,0,.24-.09.24-.26V37.88a5.485,5.485,0,0,0-.05-1.03c0-.06-.1-.34-.1-.38,0-.07.1-.08.14-.08.26,0,.73.17.73.29,0,.03-.14.15-.16.18a2.71,2.71,0,0,0-.03.77c0,.14,0,.28.25.28h.83c.3,0,.36-.02.41-.07s.26-.45.34-.45c.11,0,.67.5.67.63,0,.1-.05.1-.43.1h-1.82c-.25,0-.25.13-.25.25v.86c0,.26.09.26.26.26h1.46a1.844,1.844,0,0,0,.42-.03c.09-.05.38-.5.49-.5a2.006,2.006,0,0,1,.67.62c0,.11-.14.11-.42.11h-2.93s-.06,0-.06.04c0,.02.02.02.18.1.13.06.19.1.21.18,0,.04,0,.06-.11.14-.14.1-.14.48-.14.66,0,.05.02.81.02.9a.737.737,0,0,1-.37.73,1.039,1.039,0,0,1-.47.14.234.234,0,0,1-.11-.02c-.05-.02-.17-.27-.21-.31-.06-.06-.4-.3-.4-.3,0-.02.03-.03.05-.03s.37.02.45.02c.46,0,.49-.09.5-.35v-.8c0-1.02-.03-1.09-.29-1.09h-1.53c-.14,0-.74,0-1.01.02-.02,0-.14.02-.18.02-.02,0-.04-.02-.06-.05l-.16-.18a.163.163,0,0,1-.03-.06c0-.02.02-.02.03-.02.16,0,.94.06,1.13.06s.21-.1.21-.26V38.09a7.326,7.326,0,0,0-.03-.82c0-.03-.06-.22-.06-.26s.02-.05.06-.05c0,0,.82.12.82.26v.06c-.02.02-.15.13-.17.16a7.4,7.4,0,0,0-.05,1.75c0,.24.03.3.24.3h.86Zm2.82,2.29c0,.1-.03.1-.22.14-.14.02-.18.06-.62.41a6.154,6.154,0,0,1-3.98,1.23c-.09,0-.58,0-.58-.06a.947.947,0,0,1,.31-.06,6.791,6.791,0,0,0,3.91-1.52,1.527,1.527,0,0,0,.4-.64c.03-.1.04-.11.1-.11s.08.03.37.26c.26.21.33.27.33.36Zm1.01-.27a.262.262,0,0,1-.29.27c-.22,0-.29-.1-.46-.38a6.351,6.351,0,0,0-1.08-1.13c-.12-.1-.14-.1-.14-.14s.06-.03.08-.03a2.286,2.286,0,0,1,.65.18C662.8,40.64,663.24,41.19,663.24,41.53Z" fill="#3e3a39"/>
      <path id="パス_890" data-name="パス 890" d="M664.69,43.07c-.18,0-.18-.1-.18-.13,0-.13.12-.13.41-.13.43,0,.64-.02.74-.25.05-.14.05-1.54.05-1.82,0-.38-.02-2.25-.02-2.67,0-.38-.11-.38-.78-.38-.19,0-.27,0-.27-.1s.08-.11.33-.13a3.451,3.451,0,0,0,.9-.2,3.38,3.38,0,0,1,.39-.18c.09,0,.09.02.09.38,0,.22-.02,1.25-.02,1.49,0,.37,0,3.44.03,3.53.06.23.17.33.76.33.07,0,.19,0,.19.14,0,.11-.13.11-.2.11h-2.42Z" fill="#3e3a39"/>
      <path id="パス_891" data-name="パス 891" d="M671.49,38.44a1.54,1.54,0,0,1-.71,1.22c-.06.04-.42.23-.42.28,0,.07.38.2.44.24a1.567,1.567,0,0,1,.81,1.36,1.763,1.763,0,0,1-1.89,1.69c-.8,0-1.57-.45-1.57-1.09a.441.441,0,0,1,.46-.48.38.38,0,0,1,.39.38c0,.06-.07.36-.07.42,0,.3.34.51.72.51a1.455,1.455,0,0,0-.01-2.88c-.04,0-.26.03-.31.03a.158.158,0,0,1-.18-.16.171.171,0,0,1,.18-.17c.05,0,.29.04.34.04a1.192,1.192,0,0,0,1.1-1.26,1.1,1.1,0,0,0-1.01-1.21.578.578,0,0,0-.64.51c0,.04.04.25.04.3a.4.4,0,1,1-.81,0c0-.38.47-1.07,1.56-1.07a1.477,1.477,0,0,1,1.57,1.35Z" fill="#3e3a39"/>
      <path id="パス_892" data-name="パス 892" d="M675.25,37.45c0,.08-.06.1-.22.14-.08.02-.22.26-.4.54a5.174,5.174,0,0,1-2.37,2.21.047.047,0,0,1-.05-.05c0-.05.02-.06.17-.18a6.886,6.886,0,0,0,1.8-2.41c.06-.12.26-.8.27-.8.06-.02.81.41.81.54Zm.78,2.33c-.21,0-.21.02-.26.44a3.343,3.343,0,0,1-1.62,2.86,5.186,5.186,0,0,1-1.53.52c-.02,0-.1,0-.1-.06,0-.04.04-.06.18-.1a4.571,4.571,0,0,0,1.57-.97,3.889,3.889,0,0,0,.9-2.52c0-.18-.08-.18-.2-.18h-.24c-.3,0-.68,0-.82.02-.03,0-.14.02-.17.02s-.05-.02-.07-.06l-.16-.18a.219.219,0,0,1-.03-.05c0-.02,0-.02.03-.02.06,0,.3.03.35.03.39.02.72.02,1.09.02h1.75c.36,0,.4-.02.53-.15s.19-.18.25-.18c.13,0,.59.37.59.54,0,.04-.13.18-.14.22-.04.08-.09.99-.1,1.17a5.176,5.176,0,0,1-.38,1.98,1.237,1.237,0,0,1-.82.48c-.09,0-.09-.02-.15-.25-.05-.18-.32-.29-.74-.41-.18-.05-.26-.08-.26-.13s.07-.05.09-.05a2.437,2.437,0,0,1,.31.06,3.435,3.435,0,0,0,.57.06c.38,0,.6-.07.71-.9.08-.62.16-1.54.16-1.95,0-.22-.02-.29-.24-.29H676Zm.4-2.58c-.2,0-.47,0-.64.02-.02,0-.14.02-.16.02s-.03,0-.06-.05l-.15-.18a.2.2,0,0,1-.02-.06.019.019,0,0,1,.006-.014.02.02,0,0,1,.014-.006c.05,0,.28.03.33.03.09,0,.42.02.48.02a.433.433,0,0,0,.34-.21c.16-.22.18-.25.24-.25.1,0,.7.4.7.58,0,.08-.02.09-.24.14a.179.179,0,0,0-.16.17,2.961,2.961,0,0,0,2.41,1.82c.02,0,.12.02.12.06s-.21.09-.24.1a1.651,1.651,0,0,0-.49.37c-.02.02-.1.12-.13.12a4,4,0,0,1-1.91-2.31c-.09-.34-.1-.38-.29-.38h-.14Z" fill="#3e3a39"/>
      <line id="線_44" data-name="線 44" x2="211.69" transform="translate(468.21 48.8)" fill="none" stroke="#231815" stroke-miterlimit="10" stroke-width="0.3"/>
      <path id="パス_893" data-name="パス 893" d="M469.26,39.22c-.19,0-.23.06-.23.24v3.47c0,.2,0,.67-.37.67-.26,0-.26-.26-.26-.36a2.813,2.813,0,0,1,.02-.39c0-.06.04-1.97.04-2.18,0-.89,0-2.81-.07-3.56,0-.06-.06-.34-.06-.39s.06-.06.1-.06a1.429,1.429,0,0,1,.47.15.813.813,0,0,0,.39.09h.96a.455.455,0,0,0,.31-.08c.03-.03.2-.23.26-.23.04,0,.63.41.63.51,0,.06-.02.07-.2.2a.3.3,0,0,0-.1.28c0,.22.02,1.32.02,1.57,0,.19,0,.47-.36.47-.19,0-.2-.07-.21-.24-.02-.13-.14-.15-.24-.15h-1.11Zm-.02-2.11c-.24,0-.24.11-.24.48,0,.18,0,.31.24.31h1.12c.24,0,.24-.14.24-.31,0-.37,0-.48-.25-.48Zm1.13,1.9c.24,0,.24-.11.24-.47,0-.31,0-.42-.24-.42h-1.13c-.24,0-.24.14-.24.3,0,.54,0,.6.25.6h1.12Zm2.56.18c-.1,0-.21,0-.23.17a.411.411,0,0,1-.41.32.183.183,0,0,1-.2-.2c0-.09.03-.53.03-.62,0-.34-.03-1.25-.03-1.31,0-.12-.05-.66-.05-.73s.02-.18.12-.18a1.486,1.486,0,0,1,.42.18,1.105,1.105,0,0,0,.5.09H474a.521.521,0,0,0,.3-.07c.03-.02.19-.2.25-.2a2.953,2.953,0,0,1,.32.19c.24.17.26.18.26.27,0,.06-.02.08-.17.2-.08.06-.08.23-.08.29,0,.72.04,4.25.04,5.05a.838.838,0,0,1-.27.74,1.063,1.063,0,0,1-.54.25.173.173,0,0,1-.15-.1,1.447,1.447,0,0,0-.36-.46c-.03-.02-.24-.11-.24-.16,0-.02.05-.05.14-.05.07,0,.41.02.48.02.14,0,.34-.02.37-.19.02-.09.02-1,.02-1.16,0-.18,0-2.05-.02-2.18-.03-.15-.17-.15-.25-.15h-1.18Zm-.02-2.07c-.26,0-.26.11-.26.38,0,.29,0,.39.26.39h1.17c.25,0,.25-.11.25-.38,0-.29,0-.39-.25-.39Zm1.18,1.86c.25,0,.25-.07.25-.47,0-.32,0-.4-.25-.4h-1.18c-.23,0-.25.1-.25.27,0,.54,0,.6.26.6h1.17Z" fill="#3e3a39"/>
      <path id="パス_894" data-name="パス 894" d="M479.27,42.51c0,.06-.31.11-.36.14-.78.36-1,.46-1.21.54a6.722,6.722,0,0,1-1.7.41c-.02,0-.05,0-.05-.02a.922.922,0,0,1,.29-.14,6.273,6.273,0,0,0,2.24-1.3c.14-.17.15-.18.21-.18a.222.222,0,0,1,.11.05c.11.09.47.39.47.51Zm2.62-.92c.34,0,.42,0,.51-.14.18-.28.21-.31.3-.31.12,0,.63.38.63.55,0,.1-.17.1-.43.1h-5.45c-.45,0-.77,0-1.02.02-.02,0-.14.02-.17.02s-.04-.02-.07-.05l-.15-.18a.163.163,0,0,1-.03-.06c0-.02,0-.02.03-.02.05,0,.3.02.35.02.39.02.72.03,1.1.03h4.41Zm-2.74-3.47c.24,0,.24-.1.24-.44a.2.2,0,0,0-.23-.22h-1.15c-.7,0-.94.02-1.02.02-.02,0-.14.02-.17.02s-.04-.02-.07-.05l-.15-.18a.163.163,0,0,1-.03-.06c0-.02,0-.02.02-.02.06,0,.3.02.35.02.39.02.73.03,1.1.03h1.1c.08,0,.24,0,.24-.2a1.584,1.584,0,0,0-.05-.38c0-.04-.1-.21-.1-.25s.07-.03.12-.03c.02,0,.67.11.7.12a.12.12,0,0,1,.1.12c0,.06,0,.06-.12.18a.567.567,0,0,0-.09.26.193.193,0,0,0,.21.18h1.04c.34,0,.42,0,.51-.14.22-.33.24-.36.33-.36.11,0,.74.44.74.59,0,.11-.17.11-.42.11h-2.19c-.16,0-.24.05-.24.21,0,.38,0,.46.26.46h.66a.39.39,0,0,0,.34-.15c.08-.1.1-.13.15-.13.09,0,.62.29.62.41,0,.06-.18.22-.2.26a.539.539,0,0,0-.06.3c0,.32.06,1.73.06,2.01,0,.1,0,.5-.42.5-.21,0-.22-.09-.25-.25a.2.2,0,0,0-.21-.12h-2.41a.268.268,0,0,0-.29.18.478.478,0,0,1-.38.23c-.18,0-.23-.12-.23-.25a1.68,1.68,0,0,1,.02-.29c.03-.34.04-.74.04-1.1s0-1.24-.05-1.56c0-.05-.06-.24-.06-.28s.06-.06.08-.06c.1,0,.16.03.4.17a1.064,1.064,0,0,0,.57.13h.59Zm-.74.21c-.07,0-.25,0-.25.21,0,.38,0,.47.25.47h2.48c.08,0,.25,0,.25-.21,0-.38,0-.47-.25-.47Zm0,.9c-.08,0-.25,0-.25.21,0,.34,0,.43.25.43h2.47c.08,0,.25,0,.25-.21,0-.34,0-.43-.25-.43Zm-.02.86a.2.2,0,0,0-.22.2c0,.36,0,.46.22.46h2.52c.22,0,.22-.15.22-.34s0-.33-.22-.33h-2.52Zm2.42,2.06c1.33.53,1.84.74,1.84,1.25a.274.274,0,0,1-.27.31c-.13,0-.2-.06-.8-.64-.19-.18-1.48-1.07-1.45-1.14a3.631,3.631,0,0,1,.68.21Z" fill="#3e3a39"/>
      <path id="パス_895" data-name="パス 895" d="M488.16,39.65c-.25,0-.25.06-.25.42V42.5c0,.12.02.64.02.74,0,.22-.05.25-.25.34a.456.456,0,0,1-.22.06c-.18,0-.18-.08-.18-.21,0-.29,0-.37.02-.76.02-.63.04-2.03.04-2.74,0-.13,0-.28-.22-.28h-1.3c-.25,0-.25.14-.25.29v2.77c0,.22-.23.36-.46.36-.19,0-.19-.09-.19-.18s.03-.59.03-.7c.02-.5.02-.93.02-1.04,0-.58,0-1.54-.02-1.71,0-.04-.02-.19-.02-.22s0-.12.06-.12a1.863,1.863,0,0,1,.4.2.787.787,0,0,0,.47.14h1.27c.22,0,.22-.1.22-.73a2.936,2.936,0,0,0-.04-.61.145.145,0,0,0-.16-.1h-1.73c-.62,0-.86,0-1.01.02-.02,0-.14.02-.17.02s-.05-.02-.07-.05l-.15-.18s-.04-.04-.04-.06c0,0,.02-.02.03-.02.06,0,.3.02.35.02.39.02.72.03,1.1.03h1.61c.22,0,.24-.1.24-.27v-.59c0-.06-.05-.42-.05-.45s.05-.04.08-.04c.06,0,.78.11.78.26,0,.04-.17.18-.18.22a.987.987,0,0,0-.02.27c0,.54,0,.61.24.61h1.6c.17,0,.19,0,.34-.2.27-.36.3-.4.37-.4a2.354,2.354,0,0,1,.86.7c0,.1-.16.1-.42.1h-2.88c-.1,0-.12,0-.12.05,0,.03.03.05.06.07.11.08.13.09.13.13s-.14.17-.16.21a5.8,5.8,0,0,0-.04.74c0,.1,0,.23.24.23h1.21a.408.408,0,0,0,.39-.16c.19-.21.21-.23.25-.23a1.728,1.728,0,0,1,.65.61c0,.06-.02.08-.21.24-.08.07-.08.18-.08.47s.02,1.58.02,1.83c0,.41,0,.53-.21.67a.845.845,0,0,1-.46.18c-.12,0-.12-.02-.24-.27-.09-.2-.26-.26-.78-.46-.08-.03-.22-.09-.22-.14,0-.02.03-.03.07-.03s.78.1.9.1.26,0,.31-.18c.03-.09.03-1.24.03-1.44,0-.97,0-.98-.24-.98h-1.37Z" fill="#3e3a39"/>
      <path id="パス_896" data-name="パス 896" d="M497.49,42.96a.634.634,0,0,0,.59-.23c.06-.06.31-.41.39-.41a3.057,3.057,0,0,1,.81.75c0,.09-.03.1-.35.1h-5.42c-.18,0-.73,0-1.01.02-.02,0-.14.02-.17.02s-.04-.02-.07-.06l-.15-.18a.332.332,0,0,1-.03-.06c0-.02,0-.02.02-.02.06,0,.3.02.35.02.37.02.73.03,1.09.03h2.21a.216.216,0,0,0,.25-.19,25.552,25.552,0,0,0,.7-4.11c0-.05-.04-.25-.04-.29,0-.06.03-.08.07-.08.02,0,1.02.3,1.02.41,0,.06-.22.19-.26.22-.05.06-.05.09-.12.37a18.879,18.879,0,0,1-1.03,3.09c-.02.04-.21.46-.21.48,0,.09.09.1.14.1h1.22Zm-.34-4.98a1.109,1.109,0,0,0,.39-.03c.12-.05.46-.58.58-.58a2.257,2.257,0,0,1,.7.71c0,.11-.16.11-.42.11h-4.51c-.18,0-.73,0-1.01.02-.02,0-.14.02-.17.02s-.05-.02-.07-.05l-.15-.18s-.04-.04-.04-.06.02-.02.03-.02c.06,0,.3.02.35.02.37.02.73.03,1.1.03h1.08c.22,0,.24-.12.24-.29a7.007,7.007,0,0,0-.06-1.16c0-.03-.08-.15-.08-.18s.06-.05.1-.05a6.914,6.914,0,0,1,.82.18c.04.02.13.06.13.14s-.12.14-.16.19a2.242,2.242,0,0,0-.09.84c0,.26,0,.34.27.34h.97Zm-2.56,4.33c-.11,0-.29-.09-.29-.43a5.6,5.6,0,0,0-.41-2.41,3.471,3.471,0,0,1-.28-.54c0-.03.03-.04.06-.04a3.078,3.078,0,0,1,1.4,2.55c0,.18,0,.87-.48.87Z" fill="#3e3a39"/>
      <path id="パス_897" data-name="パス 897" d="M501.34,43.06c-.24,0-.24.1-.25.26a.341.341,0,0,1-.37.3c-.22,0-.23-.09-.23-.25a5.243,5.243,0,0,1,.02-.55c.03-.79.04-1.11.04-1.58,0-.65.04-3.89-.05-4.29a2.482,2.482,0,0,1-.06-.32c0-.03.03-.03.05-.03.07,0,.11.02.5.21a.962.962,0,0,0,.45.11h4.45a.433.433,0,0,0,.29-.1c.02-.03.14-.2.18-.2.11.06.66.35.66.47,0,.06-.04.08-.1.1-.1.06-.1.08-.11.22v1.91c0,.61.06,3.33.06,3.88a.4.4,0,0,1-.46.41c-.05,0-.17,0-.17-.24,0-.14,0-.32-.22-.32h-4.67Zm4.67-.22a.207.207,0,0,0,.23-.14c.02-.07.02-3.68.02-3.91,0-.42,0-1.5-.03-1.56a.207.207,0,0,0-.21-.1h-4.7a.207.207,0,0,0-.23.14c-.02.06-.02,3.73-.02,3.97,0,.43,0,1.39.02,1.46.03.14.17.14.23.14h4.7Zm-4.61-5.19s1.03.62,1.03,1.25c0,.29-.16.53-.3.53-.21,0-.26-.31-.27-.46a3.83,3.83,0,0,0-.4-1.17c-.06-.08-.07-.1-.07-.13a.02.02,0,0,1,.02-.02Zm.89,1.81a3.378,3.378,0,0,1,.9.34,5.517,5.517,0,0,0,.7.34c.11,0,.3-.36.45-.64a5.662,5.662,0,0,0,.7-1.88c0-.08,0-.13.05-.13a6.06,6.06,0,0,1,.6.26c.09.04.19.09.19.17,0,.06-.06.1-.15.15-.13.07-.13.08-.23.32a6.933,6.933,0,0,1-1.05,1.85.417.417,0,0,0-.1.2c0,.09.08.16.14.22.47.42,1.05.99,1.05,1.36a.269.269,0,0,1-.27.31c-.17,0-.21-.04-.82-.9-.11-.15-.37-.51-.48-.51-.06,0-.08.02-.27.23a6.035,6.035,0,0,1-1.95,1.41c-.02,0-.03,0-.03-.03a1.513,1.513,0,0,1,.26-.23,6.29,6.29,0,0,0,1.62-1.73c0-.21-1.35-1.06-1.35-1.09s.02-.02.05-.02Zm.58-1.97.02-.02c.06,0,1.1.34,1.1,1.05,0,.16-.06.38-.27.38s-.25-.16-.36-.54a2.989,2.989,0,0,0-.38-.71,1.063,1.063,0,0,1-.1-.12s-.02-.02-.02-.03Z" fill="#3e3a39"/>
      <path id="パス_898" data-name="パス 898" d="M514.09,38.04c-.1,0-.25,0-.25.18v.62a.347.347,0,0,1-.32.19.282.282,0,0,1-.25-.14c-.04-.06-.09-.06-.18-.06h-.96c-.12,0-.26,0-.26.18,0,.45,0,.5.24.5h.85c.35,0,.39,0,.5-.14.22-.26.26-.29.33-.29.05,0,.74.42.74.53s-.16.11-.42.11h-1.99c-.23,0-.23.09-.23.27,0,.26,0,.34.25.34h1.46c.37,0,.4,0,.51-.13.22-.27.25-.3.32-.3s.75.42.75.53-.16.11-.43.11h-5.21c-.7,0-.93.02-1.01.02-.04,0-.14.02-.18.02-.02,0-.05-.04-.06-.06l-.16-.18a.219.219,0,0,1-.03-.05c0-.02,0-.02.03-.02.05,0,.29.03.35.03.39.02.72.02,1.1.02h1.51c.22,0,.22-.1.22-.35,0-.18-.03-.26-.22-.26h-.92c-.7,0-.93.02-1.01.02-.03,0-.14.02-.17.02a.086.086,0,0,1-.07-.06l-.15-.18s-.04-.04-.04-.05.02-.02.03-.02c.05,0,.3.02.35.03.39.02.72.02,1.1.02h.89c.23,0,.23-.06.23-.47,0-.14-.04-.2-.21-.2h-.74c-.7,0-.91.02-1.02.02-.02,0-.14.02-.17.02a.075.075,0,0,1-.07-.05l-.15-.18a.163.163,0,0,1-.03-.06c0-.02,0-.02.02-.02.06,0,.3.02.35.02.39.02.73.03,1.09.03h.7c.23,0,.23-.08.23-.34,0-.16,0-.25-.23-.25h-1.43c-.7,0-.93.02-1.01.02-.02,0-.14.02-.17.02s-.05-.02-.07-.06l-.15-.18s-.04-.04-.04-.05.02-.02.03-.02c.06,0,.3.02.35.03.39.02.72.02,1.09.02h1.4c.15,0,.22,0,.22-.23s-.04-.3-.24-.3h-.7c-.7,0-.93.02-1.01.02-.04,0-.14.02-.17.02a.1.1,0,0,1-.07-.06l-.15-.18a.222.222,0,0,1-.03-.05c0-.02,0-.02.02-.02.06,0,.3.03.35.03.39.02.72.02,1.1.02h.66c.19,0,.24-.02.24-.25,0-.06-.05-.34-.05-.38a.063.063,0,0,1,.07-.07c.03,0,.5.07.63.1.04,0,.16.04.16.14,0,.07-.08.12-.18.19a.151.151,0,0,0-.07.14c0,.14.15.14.26.14h.96a.316.316,0,0,0,.28-.13c.06-.07.1-.14.16-.14.03,0,.54.21.54.38,0,.05-.02.06-.14.19a.249.249,0,0,0-.07.2c0,.1,0,.23.17.23a.261.261,0,0,0,.24-.13c.22-.26.23-.29.32-.29a1.775,1.775,0,0,1,.61.53c0,.11-.16.11-.43.11h-.68Zm-3.93,5.12c-.18,0-.18.11-.18.22s-.25.27-.42.27a.2.2,0,0,1-.2-.22c0-.22.02-1.33.02-1.59,0-.15-.03-.8-.03-.89,0-.05,0-.08.04-.08a4.079,4.079,0,0,1,.44.2.82.82,0,0,0,.36.07h2.89a.462.462,0,0,0,.26-.06c.04-.02.2-.22.25-.22.07,0,.56.26.56.42,0,.03,0,.06-.1.22a.94.94,0,0,0-.09.54c0,.16.04,1.06.04,1.09a.466.466,0,0,1-.41.42c-.16,0-.19-.15-.21-.24-.02-.15-.1-.15-.22-.15h-3Zm3-.21c.18,0,.26,0,.26-.38,0-.25-.03-.3-.24-.3h-3.01c-.21,0-.22.09-.22.31,0,.34.04.38.24.38h2.98Zm.02-.9c.13,0,.23-.02.23-.2,0-.45,0-.5-.25-.5h-2.98c-.22,0-.22.06-.22.51,0,.19.1.19.26.19h2.97Zm-.06-4.23c.07,0,.22,0,.22-.18,0-.24,0-.34-.22-.34h-.97c-.25,0-.26.05-.26.3,0,.23.09.23.26.23h.99Zm-.02.8c.14,0,.25,0,.25-.4,0-.18-.14-.18-.23-.18h-.97c-.26,0-.26,0-.26.41,0,.18.14.18.26.18h.95Z" fill="#3e3a39"/>
      <path id="パス_899" data-name="パス 899" d="M517.44,41.04c-.23,0-.23.1-.23.27v.98c0,.08.04.17.14.17a6.212,6.212,0,0,0,.77-.28c.08-.03.15-.06.15-.14,0-.1-.38-.47-.38-.5s.02-.02.04-.02c.05,0,1.51.52,1.51,1.53,0,.26-.18.3-.24.3-.16,0-.25-.15-.36-.39a6.12,6.12,0,0,0-.31-.56c-.05-.06-.08-.1-.16-.1a9.365,9.365,0,0,0-1.53.92,1.264,1.264,0,0,0-.3.33c-.07.14-.08.14-.13.14-.19,0-.37-.75-.37-.8a.087.087,0,0,1,.1-.09c.52,0,.58-.1.58-.41V39.2c0-.1-.02-.46-.12-.46s-.58.51-.66.51a.02.02,0,0,1-.02-.02c0-.02.36-.53.42-.63a14.04,14.04,0,0,0,1.13-2.05q.04-.17.1-.17s.64.25.64.42c0,.02-.05.09-.05.11s.13.08.16.1c.19.08.74.34.74.77,0,.14-.05.32-.23.32-.26,0-.37-.23-.57-.68-.03-.04-.14-.31-.27-.31-.06,0-.11.05-.18.13-.29.38-.82,1.05-.91,1.14-.06.06-.07.09-.07.12,0,.08.37.31.6.31.19,0,.19-.07.19-.24a2.937,2.937,0,0,0-.03-.58c0-.03-.06-.19-.06-.22s0-.04.07-.04.68.09.68.28l-.06.1a.324.324,0,0,0-.07.26c0,.4,0,.44.18.44.06,0,.12,0,.22-.12.07-.1.12-.14.18-.14.08,0,.57.26.57.4,0,.06-.05.09-.13.13-.11.06-.13.1-.13.44,0,.22.02,1.19.02,1.38,0,.17-.06.38-.33.38a.168.168,0,0,1-.18-.1c-.03-.1-.04-.12-.22-.12h-.86Zm.86-1.22c.22,0,.22-.1.22-.3,0-.45,0-.5-.22-.5h-.87c-.22,0-.22.1-.22.3,0,.45,0,.5.22.5Zm0,1.01c.24,0,.24-.06.24-.39s0-.42-.24-.42h-.86c-.23,0-.23.06-.23.38,0,.35,0,.42.23.42h.86Zm1.78-2.95c-.19,0-.21.05-.24.22a.671.671,0,0,1-.61.62.232.232,0,0,1-.23-.24c0-.11.04-.16.14-.26a1.123,1.123,0,0,0,.39-.74c0-.02-.02-.11-.02-.13s0-.05.02-.05c.05,0,.14.14.18.2a.289.289,0,0,0,.32.17h.58c.23,0,.23-.17.23-.28a3.458,3.458,0,0,0-.05-.76c0-.03-.07-.16-.07-.19,0-.05.04-.06.08-.06.07,0,.96.16.96.35,0,.06-.04.09-.22.2-.09.06-.1.12-.1.46,0,.26.1.27.26.27h.6a.417.417,0,0,0,.25-.06,1.491,1.491,0,0,1,.24-.14c.09,0,.64.36.64.53,0,.11-.03.11-.33.14-.2.02-.26.06-.65.33a.353.353,0,0,1-.14.07c-.02,0-.02,0-.02-.02,0-.05.12-.45.12-.53,0-.13-.1-.13-.22-.13h-2.13Zm1.84,3.55c.13,0,.2,0,.28-.11.11-.15.13-.17.18-.17.11,0,.58.34.58.48,0,.06,0,.06-.14.16-.05.04-.05.17-.05.22,0,.16.04.92.04,1.02,0,.18-.07.44-.37.44-.16,0-.19-.09-.23-.2s-.14-.1-.22-.1h-1.32c-.16,0-.22.03-.25.17s-.06.38-.38.38c-.26,0-.26-.26-.26-.43,0-.31.05-1.85.05-2.19,0-.41,0-1.26-.05-1.72,0-.08-.09-.45-.09-.54,0-.05.02-.08.08-.08a1.48,1.48,0,0,1,.42.14.877.877,0,0,0,.39.08h.96a.446.446,0,0,0,.26-.06c.04-.02.18-.18.23-.18.11,0,.54.22.54.36,0,.05-.03.07-.14.18-.05.04-.06.09-.06.2,0,.14.02.81.02.91,0,.12,0,.35-.34.35-.21,0-.23-.09-.26-.21a.191.191,0,0,0-.22-.14h-.93c-.09,0-.22,0-.26.14v.54c0,.26,0,.36.25.36h1.3Zm-.36-1.26c.26,0,.26-.06.26-.43,0-.5,0-.55-.26-.55h-.93c-.26,0-.26.06-.26.43,0,.5,0,.55.26.55Zm.39,2.79c.26,0,.27,0,.27-.96,0-.26,0-.35-.26-.35h-1.33c-.14,0-.26,0-.26.25,0,1.06.02,1.06.28,1.06h1.3Z" fill="#3e3a39"/>
    </g>
    <g id="グループ_3" data-name="グループ 3" transform="translate(-233.87 53.34)">
      <path id="パス_921" data-name="パス 921" d="M384.63,41.27s-.14.18-.16.21c-.14.19-.68,1.05-.82,1.21-.05.07-.22.26-.29.26-.02,0-.03,0-.03-.03,0,0,.24-.58.28-.7a4.543,4.543,0,0,0,.29-1.04c0-.23,0-.26.07-.26a1.862,1.862,0,0,1,.31.1c.11.05.34.15.34.24Zm1.69-.93c-.02-.07-.03-.12-.11-.12s-.45.08-.54.09c-.22.03-.22.1-.22.4V43.2a.4.4,0,0,1-.41.44.164.164,0,0,1-.18-.19c0-.1.04-.59.04-.7.02-.58.04-1.57.04-2.14,0-.1-.02-.19-.16-.19a5.627,5.627,0,0,0-.94.12,1.008,1.008,0,0,1-.23.12c-.14,0-.19-.64-.19-.68s0-.12.07-.12c0,0,.2.06.21.06a2.541,2.541,0,0,0,.8.11c.26,0,.29-.02.36-.14a9.3,9.3,0,0,0,.97-2.24c.04-.19.04-.21.1-.21.04,0,.78.3.78.46,0,.07-.06.1-.12.1a.494.494,0,0,0-.29.17,19.925,19.925,0,0,0-1.24,1.82c0,.02.02.03.02.04h.56c.12,0,.38-.02.46-.02a.063.063,0,0,0,.07-.07,4.28,4.28,0,0,0-.22-.57c0-.03.02-.03.03-.03.13,0,.88.43.88,1.01,0,.18-.1.32-.25.32-.18,0-.28-.06-.33-.33Zm-1.74-1.05c-.11,0-.18-.05-.26-.26a3.5,3.5,0,0,0-.54-.86c-.08-.1-.09-.1-.09-.13s.02-.05.06-.05c.1,0,.52.2.58.2a5.161,5.161,0,0,0,.49-1.63c.02-.13.04-.13.07-.13.06,0,.72.27.72.37,0,.05-.2.18-.23.21a8.685,8.685,0,0,0-.8,1.31.2.2,0,0,0,.07.15.8.8,0,0,1,.2.46c0,.16-.09.34-.27.34Zm2.31,2.96a.4.4,0,0,1-.33.41c-.16,0-.18-.06-.3-.62a2.166,2.166,0,0,0-.26-.69.474.474,0,0,1-.05-.14.042.042,0,0,1,.04-.04,1.364,1.364,0,0,1,.46.32,1.318,1.318,0,0,1,.43.77Zm.79-3.82c-.18,0-.23.02-.3.12-.18.29-.63.98-.78.98a.053.053,0,0,1-.06-.06c0-.02.3-.58.34-.7a7.579,7.579,0,0,0,.69-2.24v-.11c0-.02,0-.05.03-.05s.87.26.87.42c0,.08-.1.13-.22.18a6.892,6.892,0,0,0-.63,1.18c0,.05.06.05.14.05h1.46c.21,0,.22,0,.31-.07.14-.14.16-.15.22-.15.1,0,.63.3.63.45,0,.06-.02.06-.2.21a1.56,1.56,0,0,0-.06.6,9.4,9.4,0,0,1-.68,3.91,1.193,1.193,0,0,1-.86.5c-.1,0-.13-.06-.2-.26a1.117,1.117,0,0,0-.44-.5c-.11-.07-.13-.08-.13-.12s.02-.03.03-.03.22.07.26.08a2.458,2.458,0,0,0,.5.12c.34,0,.52-.34.62-.72a11.371,11.371,0,0,0,.36-2.96c0-.13,0-.7-.02-.74-.05-.1-.15-.1-.24-.1h-1.64Zm.87,2.58a.462.462,0,0,1-.38.51c-.19,0-.22-.1-.32-.62a3.619,3.619,0,0,0-.24-.79c-.06-.12-.06-.14-.06-.17s0-.05.02-.05a1.817,1.817,0,0,1,.63.43.985.985,0,0,1,.35.68Z" fill="#3e3a39"/>
      <path id="パス_922" data-name="パス 922" d="M394.39,37.25c.18,0,.33,0,.33.22a.445.445,0,0,1-.09.3,8.641,8.641,0,0,0-1.73,4.69c-.02.29-.06.77-.46.77a.459.459,0,0,1-.41-.48,10.268,10.268,0,0,1,1.27-3.22c.13-.25.89-1.46.89-1.57s-.06-.1-.21-.1h-1.1c-.92,0-1.25.32-1.42.77-.1.26-.12.28-.18.28a.094.094,0,0,1-.1-.1c0-.02.18-.89.21-1.01.1-.44.14-.54.55-.54h2.45Z" fill="#3e3a39"/>
      <path id="パス_923" data-name="パス 923" d="M395.4,43.07s-.23,0-.23-.12a2.594,2.594,0,0,1,.7-1.25c1.89-2.25,2.05-2.46,2.05-3.21a1.071,1.071,0,0,0-1.06-1.13c-.48,0-.89.33-.89.67a.412.412,0,0,0,.08.24.674.674,0,0,1,.17.38.433.433,0,0,1-.43.43.493.493,0,0,1-.46-.54,1.64,1.64,0,0,1,1.72-1.45,1.5,1.5,0,0,1,1.6,1.5c0,.82-.5,1.28-1.18,1.85a4.927,4.927,0,0,0-1.64,1.9c0,.12.26.12.29.12h.82c.81,0,1.27-.22,1.5-.75.13-.3.13-.3.18-.3.08,0,.08.1.08.11,0,.06-.26,1.09-.3,1.26a.423.423,0,0,1-.48.29h-2.5Z" fill="#3e3a39"/>
      <path id="パス_924" data-name="パス 924" d="M400.92,43.23c-1.26,0-1.8-1.59-1.8-3.06s.54-3.07,1.8-3.07c1.29,0,1.8,1.66,1.8,3.07S402.21,43.23,400.92,43.23Zm0-5.87c-1.06,0-1.08,2.4-1.08,2.81,0,.33,0,2.81,1.08,2.8,1.06,0,1.08-2.38,1.08-2.8C402,39.83,402,37.36,400.92,37.36Z" fill="#3e3a39"/>
      <path id="パス_925" data-name="パス 925" d="M408.02,43.07c-.14,0-.15-.1-.15-.13,0-.12.1-.13.21-.13.42-.02.42-.23.42-1.31a5.918,5.918,0,0,0-.08-1.48.646.646,0,0,0-.63-.54,1.369,1.369,0,0,0-1.08.67,14.077,14.077,0,0,0-.05,1.5c0,.78,0,.86.08.98a.386.386,0,0,0,.33.18c.23,0,.3,0,.3.13s-.11.13-.18.13h-1.61c-.07,0-.19,0-.19-.13,0-.05.02-.1.06-.11a1.829,1.829,0,0,1,.34-.02c.32-.06.32-.23.32-1.34a4.537,4.537,0,0,0-.1-1.55.628.628,0,0,0-.6-.42,1.446,1.446,0,0,0-.89.4c-.19.19-.21.21-.21,1.58,0,1.11,0,1.34.42,1.35.12,0,.24,0,.24.13s-.11.13-.18.13h-1.51s-.16,0-.16-.13.1-.13.24-.13a.371.371,0,0,0,.35-.23,13.4,13.4,0,0,0,.06-1.6,9.412,9.412,0,0,0-.05-1.23.3.3,0,0,0-.3-.2c-.03,0-.2.02-.24.02-.02,0-.08,0-.08-.06s.02-.07.39-.18c.18-.05.69-.18.75-.2.08,0,.08.04.08.23,0,.21,0,.26.08.26a1.782,1.782,0,0,0,.24-.15,1.755,1.755,0,0,1,1-.34.851.851,0,0,1,.89.52c.02.03.06.11.1.11s.06-.02.18-.13a1.792,1.792,0,0,1,1.21-.5.816.816,0,0,1,.91.62,6.094,6.094,0,0,1,.1,1.83c0,.96,0,1.22.45,1.22.05,0,.18,0,.18.14,0,.08-.07.12-.15.12h-1.5Z" fill="#3e3a39"/>
      <path id="パス_926" data-name="パス 926" d="M417.41,36.62c-.36.34-6.25,6.24-6.79,6.79a2,2,0,0,1-.22.2.086.086,0,0,1-.09-.08.1.1,0,0,1,.04-.08c.33-.31,6.26-6.25,6.79-6.79.03-.02.19-.2.22-.2a.088.088,0,0,1,.09.09.087.087,0,0,1-.05.07Z" fill="#3e3a39"/>
      <path id="パス_927" data-name="パス 927" d="M419.15,39.95s0-.1-.06-.1c-.02,0-.97.66-1.03.66a.02.02,0,0,1-.02-.02s.32-.34.36-.39a12.2,12.2,0,0,0,1.47-1.88c.05-.1.1-.21.13-.21s.67.4.67.6c0,.04-.02.05-.22.11a4.092,4.092,0,0,0-.79.67.058.058,0,0,0,.06.06c.14.03.18.05.18.14a.074.074,0,0,1-.02.06c-.02.03-.14.15-.15.18a9.965,9.965,0,0,0-.05,1.14c0,.3.03,1.8.03,2.13a.46.46,0,0,1-.42.52c-.23,0-.23-.21-.23-.28s.03-.47.04-.54c.04-.6.04-.91.04-1.78V39.93Zm1.55-2.99c0,.06-.03.07-.26.12a.957.957,0,0,0-.41.2,7.686,7.686,0,0,1-1.58.98,1.02,1.02,0,0,1-.11.05.02.02,0,0,1-.02-.02c0-.02.47-.44.54-.5a6.122,6.122,0,0,0,1.08-1.28c.06-.1.08-.14.13-.14.1,0,.63.47.63.6Zm1.2,2.39c-.18,0-.73,0-1.01.02-.03,0-.14.02-.18.02-.02,0-.04-.02-.06-.05l-.16-.18a.163.163,0,0,1-.03-.06c0-.02,0-.02.03-.02.06,0,.3.02.35.02.37.02.72.03,1.1.03h.41c.22,0,.24-.04.24-.88,0-.42-.04-.42-.37-.42-.18,0-.73,0-1.01.02-.03,0-.14.02-.17.02s-.05-.02-.07-.05l-.16-.18a.163.163,0,0,1-.03-.06s0-.02.03-.02.42.03.5.03c.58.02.6.02,1.02.02a.2.2,0,0,0,.23-.22c0-.18-.02-.53-.03-.62,0-.05-.06-.25-.06-.29,0-.07.05-.09.1-.09,0,0,.76.11.76.28,0,.04,0,.05-.15.17-.05.04-.06.1-.06.36s0,.4.26.4h.34c.37,0,.41,0,.53-.18.16-.23.18-.26.25-.26.1,0,.63.38.63.52,0,.12-.15.12-.43.12h-1.32c-.22,0-.26.06-.26.32,0,.1.02.53.02.62,0,.26,0,.37.26.37h.63c.37,0,.41,0,.5-.16.13-.22.18-.28.26-.28.13,0,.66.39.66.53,0,.12-.14.12-.42.12h-1.87s-.07,0-.07.03.02.04.07.06c.03.02.1.06.1.11a.847.847,0,0,1-.1.19,1.2,1.2,0,0,0-.04.39c0,.7,0,.71.24.71h.62c.37,0,.41,0,.53-.18.15-.23.17-.26.24-.26.1,0,.63.38.63.53,0,.11-.14.11-.43.11h-1.58c-.23,0-.25.1-.25.26v1.05c0,.3.07.39.51.39a6.912,6.912,0,0,0,1.76-.22,3.091,3.091,0,0,0,.3-.08.02.02,0,0,1,.02.02,1,1,0,0,1-.14.16c-.27.3-.29.41-.29.49s0,.14-.09.18a6.873,6.873,0,0,1-.98.07,2.807,2.807,0,0,1-2.75-1.23c-.03-.04-.11-.15-.17-.15s-.09.05-.15.18a3.857,3.857,0,0,1-.76,1.09,2.377,2.377,0,0,1-.4.31v-.02c0-.02.18-.29.21-.34a5.325,5.325,0,0,0,.82-2.81c0-.39,0-.42.09-.42,0,0,.29.07.37.1.26.08.29.09.29.16,0,.05-.13.21-.14.24-.03.1-.09.53-.1.62-.02.06-.11.47-.11.5,0,.3.68.9.98.9.05,0,.14,0,.16-.15,0-.07.03-1.41.03-1.51a7.854,7.854,0,0,0-.07-1.32c-.06-.18-.15-.18-.28-.18h-.32Z" fill="#3e3a39"/>
      <path id="パス_928" data-name="パス 928" d="M428.89,40.56c0,.06-.03.1-.17.12a.631.631,0,0,0-.33.2,5.764,5.764,0,0,1-1.67,1.17c-.06.02-.31.12-.34.12s-.03,0-.03-.02c0-.04.62-.49.69-.56.74-.78.9-.98,1.05-1.49,0-.02.04-.1.09-.1a1.418,1.418,0,0,1,.37.22c.31.22.34.26.34.33Zm.5-1.05c.22,0,.24-.09.24-.26V37.88a5.485,5.485,0,0,0-.05-1.03c0-.06-.1-.34-.1-.38,0-.07.1-.08.14-.08.26,0,.73.17.73.29,0,.03-.14.15-.16.18a2.71,2.71,0,0,0-.03.77c0,.14,0,.28.25.28h.83c.3,0,.36-.02.41-.07s.26-.45.34-.45c.11,0,.67.5.67.63,0,.1-.05.1-.43.1h-1.82c-.25,0-.25.13-.25.25v.86c0,.26.09.26.26.26h1.46a1.845,1.845,0,0,0,.42-.03c.09-.05.38-.5.49-.5a2.006,2.006,0,0,1,.67.62c0,.11-.14.11-.42.11h-2.93s-.06,0-.06.04c0,.02.02.02.18.1.13.06.19.1.21.18,0,.04,0,.06-.11.14-.14.1-.14.48-.14.66,0,.05.02.81.02.9a.737.737,0,0,1-.37.73,1.039,1.039,0,0,1-.47.14.234.234,0,0,1-.11-.02c-.05-.02-.17-.27-.21-.31-.06-.06-.4-.3-.4-.3,0-.02.03-.03.05-.03s.37.02.45.02c.46,0,.49-.09.5-.35v-.8c0-1.02-.03-1.09-.29-1.09h-1.53c-.14,0-.74,0-1.01.02-.02,0-.14.02-.18.02-.02,0-.04-.02-.06-.05l-.16-.18a.163.163,0,0,1-.03-.06c0-.02.02-.02.03-.02.16,0,.94.06,1.13.06s.21-.1.21-.26V38.09a7.319,7.319,0,0,0-.03-.82c0-.03-.06-.22-.06-.26s.02-.05.06-.05c0,0,.82.12.82.26v.06c-.02.02-.15.13-.17.16a7.4,7.4,0,0,0-.05,1.75c0,.24.03.3.24.3h.86Zm2.82,2.29c0,.1-.03.1-.22.14-.14.02-.18.06-.62.41a6.154,6.154,0,0,1-3.98,1.23c-.09,0-.58,0-.58-.06a.949.949,0,0,1,.31-.06,6.792,6.792,0,0,0,3.91-1.52,1.527,1.527,0,0,0,.4-.64c.03-.1.04-.11.1-.11s.08.03.37.26c.26.21.33.27.33.36Zm1.01-.27a.262.262,0,0,1-.29.27c-.22,0-.29-.1-.46-.38a6.351,6.351,0,0,0-1.08-1.13c-.12-.1-.14-.1-.14-.14s.06-.03.08-.03a2.285,2.285,0,0,1,.65.18c.8.34,1.24.89,1.24,1.23Z" fill="#3e3a39"/>
      <path id="パス_929" data-name="パス 929" d="M434.11,39.16a1.93,1.93,0,0,1,1.7-2.07c1.25,0,1.85,1.5,1.85,2.75,0,1.74-1.08,3.38-2.27,3.38-.52,0-1.06-.36-1.06-.79a.459.459,0,0,1,.46-.46c.37,0,.41.35.42.63a.332.332,0,0,0,.37.36c.14,0,.64-.09,1.03-.96a4,4,0,0,0,.31-1.47c0-.05,0-.15-.07-.15a.23.23,0,0,0-.14.09,1.428,1.428,0,0,1-1.07.46,1.667,1.667,0,0,1-1.53-1.78Zm2.82.38c0-.58-.23-2.2-1.11-2.2-.66,0-.98.89-.98,1.72,0,1.05.49,1.53,1.03,1.53A1.078,1.078,0,0,0,436.93,39.54Z" fill="#3e3a39"/>
      <path id="パス_930" data-name="パス 930" d="M441.23,37.45c0,.08-.06.1-.22.14-.08.02-.22.26-.4.54a5.176,5.176,0,0,1-2.37,2.21.047.047,0,0,1-.05-.05c0-.05.02-.06.17-.18a6.887,6.887,0,0,0,1.8-2.41c.06-.12.26-.8.27-.8.06-.02.81.41.81.54Zm.78,2.33c-.21,0-.21.02-.26.44a3.343,3.343,0,0,1-1.62,2.86,5.187,5.187,0,0,1-1.53.52c-.02,0-.1,0-.1-.06,0-.04.04-.06.18-.1a4.569,4.569,0,0,0,1.57-.97,3.889,3.889,0,0,0,.9-2.52c0-.18-.08-.18-.2-.18h-.24c-.3,0-.68,0-.82.02-.03,0-.14.02-.17.02s-.05-.02-.07-.06l-.16-.18a.219.219,0,0,1-.03-.05c0-.02,0-.02.03-.02.06,0,.3.03.35.03.39.02.72.02,1.09.02h1.75c.36,0,.4-.02.53-.15s.19-.18.25-.18c.13,0,.59.37.59.54,0,.04-.13.18-.14.22-.04.08-.09.99-.1,1.17a5.175,5.175,0,0,1-.38,1.98,1.237,1.237,0,0,1-.82.48c-.09,0-.09-.02-.15-.25-.05-.18-.32-.29-.74-.41-.18-.05-.26-.08-.26-.13s.07-.05.09-.05a2.439,2.439,0,0,1,.31.06,3.437,3.437,0,0,0,.57.06c.38,0,.6-.07.71-.9.08-.62.16-1.54.16-1.95,0-.22-.02-.29-.24-.29h-1.08Zm.4-2.58c-.2,0-.47,0-.64.02-.02,0-.14.02-.16.02s-.03,0-.06-.05l-.15-.18a.2.2,0,0,1-.02-.06.02.02,0,0,1,.02-.02c.05,0,.28.03.33.03.09,0,.42.02.48.02a.433.433,0,0,0,.34-.21c.16-.22.18-.25.24-.25.1,0,.7.4.7.58,0,.08-.02.09-.24.14a.179.179,0,0,0-.16.17,2.961,2.961,0,0,0,2.41,1.82c.02,0,.12.02.12.06s-.21.09-.24.1a1.653,1.653,0,0,0-.49.37c-.02.02-.1.12-.13.12a4,4,0,0,1-1.91-2.31c-.09-.34-.1-.38-.29-.38h-.14Z" fill="#3e3a39"/>
      <line id="線_46" data-name="線 46" x2="211.69" transform="translate(234.19 48.8)" fill="none" stroke="#231815" stroke-miterlimit="10" stroke-width="0.3"/>
      <path id="パス_931" data-name="パス 931" d="M235.24,39.22c-.19,0-.23.06-.23.24v3.47c0,.2,0,.67-.37.67-.26,0-.26-.26-.26-.36a2.821,2.821,0,0,1,.02-.39c0-.06.04-1.97.04-2.18,0-.89,0-2.81-.07-3.56,0-.06-.06-.34-.06-.39s.06-.06.1-.06a1.429,1.429,0,0,1,.47.15.813.813,0,0,0,.39.09h.96a.455.455,0,0,0,.31-.08c.03-.03.2-.23.26-.23.04,0,.63.41.63.51,0,.06-.02.07-.2.2a.3.3,0,0,0-.1.28c0,.22.02,1.32.02,1.57,0,.19,0,.47-.36.47-.19,0-.2-.07-.22-.24-.02-.13-.14-.15-.24-.15h-1.11Zm-.02-2.11c-.24,0-.24.11-.24.48,0,.18,0,.31.24.31h1.12c.24,0,.24-.14.24-.31,0-.37,0-.48-.25-.48Zm1.14,1.9c.24,0,.24-.11.24-.47,0-.31,0-.42-.24-.42h-1.13c-.24,0-.24.14-.24.3,0,.54,0,.6.25.6h1.12Zm2.56.18c-.1,0-.21,0-.23.17a.411.411,0,0,1-.41.32.187.187,0,0,1-.2-.2c0-.09.03-.53.03-.62,0-.34-.03-1.25-.03-1.31,0-.12-.05-.66-.05-.73s.02-.18.12-.18a1.486,1.486,0,0,1,.42.18,1.105,1.105,0,0,0,.5.09h.92a.521.521,0,0,0,.3-.07c.03-.02.19-.2.25-.2a2.952,2.952,0,0,1,.32.19c.24.17.26.18.26.27,0,.06-.02.08-.17.2-.08.06-.08.23-.08.29,0,.72.04,4.25.04,5.05a.838.838,0,0,1-.27.74,1.063,1.063,0,0,1-.54.25.173.173,0,0,1-.15-.1,1.446,1.446,0,0,0-.36-.46c-.03-.02-.24-.11-.24-.16,0-.02.05-.05.14-.05.07,0,.41.02.48.02.14,0,.34-.02.37-.19.02-.09.02-1,.02-1.16,0-.18,0-2.05-.02-2.18-.03-.15-.17-.15-.25-.15h-1.18Zm-.02-2.07c-.26,0-.26.11-.26.38,0,.29,0,.39.26.39h1.17c.25,0,.25-.11.25-.38,0-.29,0-.39-.25-.39Zm1.18,1.86c.25,0,.25-.07.25-.47,0-.32,0-.4-.25-.4H238.9c-.23,0-.25.1-.25.27,0,.54,0,.6.26.6h1.17Z" fill="#3e3a39"/>
      <path id="パス_932" data-name="パス 932" d="M245.25,42.51c0,.06-.31.11-.36.14-.78.36-1,.46-1.21.54a6.722,6.722,0,0,1-1.7.41c-.02,0-.06,0-.06-.02a.922.922,0,0,1,.29-.14,6.274,6.274,0,0,0,2.24-1.3c.14-.17.15-.18.21-.18a.222.222,0,0,1,.11.05c.11.09.47.39.47.51Zm2.62-.92c.34,0,.42,0,.51-.14.18-.28.21-.31.3-.31.12,0,.63.38.63.55,0,.1-.17.1-.43.1h-5.45c-.45,0-.77,0-1.02.02-.02,0-.14.02-.17.02s-.04-.02-.07-.05l-.15-.18a.163.163,0,0,1-.03-.06c0-.02,0-.02.02-.02.06,0,.3.02.35.02.39.02.72.03,1.1.03h4.41Zm-2.74-3.47c.24,0,.24-.1.24-.44a.2.2,0,0,0-.23-.22h-1.15c-.7,0-.94.02-1.02.02-.02,0-.14.02-.17.02s-.04-.02-.07-.05l-.15-.18a.163.163,0,0,1-.03-.06c0-.02,0-.02.02-.02.06,0,.3.02.35.02.39.02.73.03,1.1.03h1.1c.08,0,.24,0,.24-.2a1.582,1.582,0,0,0-.05-.38c0-.04-.1-.21-.1-.25s.07-.03.12-.03c.02,0,.67.11.7.12a.12.12,0,0,1,.1.12c0,.06,0,.06-.12.18a.567.567,0,0,0-.09.26.193.193,0,0,0,.21.18h1.04c.34,0,.42,0,.51-.14.22-.33.24-.36.33-.36.11,0,.74.44.74.59,0,.11-.17.11-.42.11h-2.19c-.16,0-.24.05-.24.21,0,.38,0,.46.26.46h.66a.39.39,0,0,0,.34-.15c.08-.1.1-.13.15-.13.09,0,.62.29.62.41,0,.06-.18.22-.2.26a.538.538,0,0,0-.06.3c0,.32.06,1.73.06,2.01,0,.1,0,.5-.42.5-.21,0-.22-.09-.25-.25a.2.2,0,0,0-.21-.12h-2.41a.268.268,0,0,0-.29.18.478.478,0,0,1-.38.23c-.18,0-.23-.12-.23-.25a1.676,1.676,0,0,1,.02-.29c.03-.34.04-.74.04-1.1a13.226,13.226,0,0,0-.06-1.56c0-.05-.06-.24-.06-.28s.06-.06.08-.06c.1,0,.16.03.4.17a1.064,1.064,0,0,0,.57.13h.59Zm-.74.21c-.07,0-.25,0-.25.21,0,.38,0,.47.25.47h2.48c.08,0,.25,0,.25-.21,0-.38,0-.47-.25-.47Zm0,.9c-.08,0-.25,0-.25.21,0,.34,0,.43.25.43h2.47c.08,0,.25,0,.25-.21,0-.34,0-.43-.25-.43Zm-.02.86a.2.2,0,0,0-.22.2c0,.36,0,.46.22.46h2.52c.22,0,.22-.15.22-.34s0-.33-.22-.33h-2.52Zm2.41,2.06c1.33.53,1.84.74,1.84,1.25a.274.274,0,0,1-.27.31c-.13,0-.2-.06-.8-.64-.19-.18-1.48-1.07-1.45-1.14a3.63,3.63,0,0,1,.68.21Z" fill="#3e3a39"/>
      <path id="パス_933" data-name="パス 933" d="M254.14,39.65c-.25,0-.25.06-.25.42V42.5c0,.12.02.64.02.74,0,.22-.05.25-.25.34a.456.456,0,0,1-.22.06c-.18,0-.18-.08-.18-.21,0-.29,0-.37.02-.76.02-.63.04-2.03.04-2.74,0-.13,0-.28-.22-.28h-1.3c-.25,0-.25.14-.25.29v2.77c0,.22-.23.36-.46.36-.19,0-.19-.09-.19-.18s.03-.59.03-.7c.02-.5.02-.93.02-1.04,0-.58,0-1.54-.02-1.71,0-.04-.02-.19-.02-.22s0-.12.06-.12a1.861,1.861,0,0,1,.4.2.787.787,0,0,0,.47.14h1.27c.22,0,.22-.1.22-.73a2.931,2.931,0,0,0-.04-.61.145.145,0,0,0-.16-.1H251.4c-.62,0-.86,0-1.01.02-.02,0-.14.02-.17.02s-.05-.02-.07-.05l-.15-.18s-.04-.04-.04-.06c0,0,.02-.02.03-.02.06,0,.3.02.35.02.39.02.72.03,1.1.03h1.61c.22,0,.24-.1.24-.27v-.59c0-.06-.05-.42-.05-.45s.06-.04.08-.04c.06,0,.78.11.78.26,0,.04-.17.18-.18.22a.987.987,0,0,0-.02.27c0,.54,0,.61.24.61h1.6c.17,0,.19,0,.34-.2.27-.36.3-.4.38-.4a2.354,2.354,0,0,1,.86.7c0,.1-.16.1-.42.1h-2.88c-.1,0-.12,0-.12.05,0,.03.03.05.06.07.11.08.13.09.13.13s-.14.17-.16.21a5.8,5.8,0,0,0-.04.74c0,.1,0,.23.24.23h1.22a.408.408,0,0,0,.39-.16c.19-.21.22-.23.25-.23a1.728,1.728,0,0,1,.65.61c0,.06-.02.08-.21.24-.08.07-.08.18-.08.47s.02,1.58.02,1.83c0,.41,0,.53-.21.67a.845.845,0,0,1-.46.18c-.12,0-.12-.02-.24-.27-.09-.2-.26-.26-.78-.46-.08-.03-.22-.09-.22-.14,0-.02.03-.03.07-.03s.78.1.9.1.26,0,.31-.18c.03-.09.03-1.24.03-1.44,0-.97,0-.98-.24-.98h-1.38Z" fill="#3e3a39"/>
      <path id="パス_934" data-name="パス 934" d="M259.06,40.97c0-.18,0-.72-.02-.86-.02-.09-.02-.16-.13-.16a.586.586,0,0,0-.22.14,5.845,5.845,0,0,1-.78.5c-.03,0-.04-.02-.04-.03,0-.03.17-.18.19-.2a8.057,8.057,0,0,0,1.78-2.21c.02-.06.04-.14.1-.14a1.823,1.823,0,0,1,.62.58c0,.02,0,.05-.02.06l-.22.11c-.18.14-.43.38-.61.53-.22.18-.24.2-.24.26s.06.1.14.13c.05.02.18.1.18.16,0,.04,0,.06-.14.21a3.219,3.219,0,0,0-.08.93c0,.3.03,1.79.03,2.13,0,.22,0,.59-.38.59-.24,0-.25-.14-.24-.38.02-.49.07-1.03.07-2.31Zm1.22-4.09a.412.412,0,0,1,.02.09c0,.11-.13.12-.25.13s-.18.02-.34.18a5.221,5.221,0,0,1-1.51,1.07.043.043,0,0,1-.04-.04c0-.02.42-.46.5-.55a8,8,0,0,0,.82-1.11c.08-.18.13-.27.17-.29.11-.05.58.45.62.52Zm2.9,3.12c.46,0,.54-.02.61-.08.04-.04.2-.26.26-.26a2.009,2.009,0,0,1,.27.17c.3.21.34.23.34.3s-.08.11-.14.14a.639.639,0,0,0-.21.19c-.34.44-.7.9-.97,1.21-.18.2-.2.22-.2.27a4.918,4.918,0,0,0,2.21.98c.1.02.17.05.17.08s-.05.06-.13.06a1.046,1.046,0,0,0-.56.21c-.04.03-.23.22-.29.22a5.11,5.11,0,0,1-1.45-.89,1.621,1.621,0,0,0-.37-.27c-.06,0-.59.36-.7.42a7.863,7.863,0,0,1-1.81.84c-.02,0-.06,0-.06-.04s.02-.05.14-.12a6.811,6.811,0,0,0,2.06-1.53.593.593,0,0,0-.13-.23,5.075,5.075,0,0,1-.46-.85c-.23-.52-.27-.61-.44-.61-.06,0-.38.03-.44.03-.03,0-.05-.02-.07-.06l-.16-.18a.218.218,0,0,1-.03-.05c0-.02,0-.02.02-.02.06,0,.3.02.36.03.26,0,.67.02,1.14.02h1.02Zm-1.11-2.96c-.22,0-.22.15-.22.26a2.724,2.724,0,0,1-1.17,2.36,1.5,1.5,0,0,1-.43.18c-.02,0-.06,0-.06-.03a3.919,3.919,0,0,1,.4-.33,2.924,2.924,0,0,0,.7-2.11,2.29,2.29,0,0,0-.06-.6c0-.04-.07-.19-.07-.22s.03-.05.07-.05c.06,0,.11.02.5.22.26.13.3.13.42.13h.42a.311.311,0,0,0,.32-.19c.11-.19.14-.19.18-.19a1.13,1.13,0,0,1,.34.18c.29.18.29.19.29.26s-.03.1-.14.19a.248.248,0,0,0-.1.23c0,.25-.02.43-.02.62,0,.83.06.83.51.83.64,0,.74-.19.74-.67,0-.13,0-.19.06-.19s.06.02.12.28a.712.712,0,0,0,.17.36c.11.12.14.14.14.22,0,.14-.19.57-1.29.57-.96,0-.96-.33-.96-1.4,0-.11.02-.66,0-.72-.02-.12-.1-.17-.24-.17h-.63Zm.02,3.17c-.23,0-.35,0-.35.13a2.755,2.755,0,0,0,.94,1.27,3.559,3.559,0,0,0,.9-1.25c0-.15-.14-.15-.26-.15h-1.23Z" fill="#3e3a39"/>
      <path id="パス_935" data-name="パス 935" d="M267.36,40.53c-.17,0-.18.06-.22.38a4.719,4.719,0,0,1-.97,2.46c-.14.16-.2.21-.25.21,0,0-.03,0-.03-.02s.18-.38.21-.46a8.7,8.7,0,0,0,.58-3.56,8.942,8.942,0,0,0-.08-1.37c0-.04-.04-.22-.04-.26,0-.02,0-.04.02-.04s.38.2.46.24a.724.724,0,0,0,.41.13h.66a.206.206,0,0,0,.21-.1c.17-.23.18-.26.3-.26.15,0,.58.37.58.5,0,.06,0,.08-.14.23-.03.04-.03.06-.03.28,0,.26.02,1.36.02,1.58,0,.54-.42.54-.48.54-.19,0-.21-.08-.21-.25,0-.11,0-.26-.22-.26h-.78Zm.54-3.61c.34,0,.38-.02.42-.05.05-.06.25-.38.32-.38a3.592,3.592,0,0,1,.74.56c0,.06-.16.07-.42.07h-1.39c-.22,0-.47,0-.7.02-.05,0-.28.02-.33.02-.03,0-.05-.02-.08-.06l-.16-.18a.219.219,0,0,1-.03-.05c0-.02.02-.02.03-.02.06,0,.3.02.36.02.27.02.66.03.93.03h.31Zm.3,3.4c.25,0,.25-.1.25-.4,0-.18,0-1.21-.02-1.32s-.14-.14-.22-.14h-.7c-.23,0-.23.1-.24.35,0,.2-.03,1.12-.03,1.26,0,.07,0,.24.22.24h.75Zm4.07-.96a.206.206,0,0,0-.21.1,8.326,8.326,0,0,0-.03.9c0,.45.02,2.45.02,2.85,0,.37-.38.44-.49.44-.16,0-.18-.06-.18-.19,0-.07.03-.6.04-.71.02-.55.02-1.2.02-1.75,0-.14,0-1.49-.03-1.55a.221.221,0,0,0-.21-.1h-.62c-.15,0-.18.04-.18.25-.1,1.91-.44,2.57-1.09,3.25a1.9,1.9,0,0,1-.65.5c-.02,0-.03,0-.03-.02a.591.591,0,0,1,.12-.17c.8-.9,1.1-1.81,1.1-3.69,0-.62-.08-1.69-.09-1.82,0-.06-.04-.35-.04-.42,0-.03,0-.06.02-.06.09,0,.54.17.62.17a3.1,3.1,0,0,0,1.02-.58c.07-.06.49-.41.51-.41s.54.27.63.32c.22.1.24.12.24.16s-.03.06-.26.1c-.13.02-1.66.45-1.98.52-.06.02-.09.02-.1.06a4.531,4.531,0,0,0-.02.54v.85c0,.13,0,.22.15.22h1.13c.34,0,.42,0,.51-.14.22-.37.25-.41.32-.41a2.7,2.7,0,0,1,.81.64c0,.11-.16.11-.43.11h-.63Z" fill="#3e3a39"/>
    </g>
    <g id="グループ_2" data-name="グループ 2" transform="translate(-233.87 53.34)">
      <path id="パス_862" data-name="パス 862" d="M384.63,14.6s-.14.18-.16.21c-.14.19-.68,1.05-.82,1.21-.06.07-.22.26-.29.26-.02,0-.03,0-.03-.03,0,0,.24-.58.28-.7a5.3,5.3,0,0,0,.3-1.04c0-.23,0-.26.07-.26a1.861,1.861,0,0,1,.31.1c.11.05.34.15.34.24Zm1.69-.93c-.02-.07-.03-.12-.11-.12s-.45.08-.54.09c-.22.03-.22.1-.22.4v2.49a.4.4,0,0,1-.41.44.164.164,0,0,1-.18-.19c0-.1.04-.59.04-.7.02-.58.04-1.57.04-2.14,0-.1-.02-.19-.16-.19a5.627,5.627,0,0,0-.94.12,1.008,1.008,0,0,1-.23.12c-.14,0-.19-.64-.19-.68s0-.12.07-.12c0,0,.2.06.22.06a2.541,2.541,0,0,0,.8.11c.26,0,.29-.02.36-.14a9.3,9.3,0,0,0,.97-2.24c.04-.19.04-.21.1-.21.04,0,.78.3.78.46,0,.07-.06.1-.12.1a.494.494,0,0,0-.29.17,19.934,19.934,0,0,0-1.24,1.82c0,.02.02.03.02.04h.56c.12,0,.37-.02.46-.02a.063.063,0,0,0,.07-.07,4.28,4.28,0,0,0-.22-.57c0-.03.02-.03.03-.03.13,0,.88.43.88,1.01,0,.18-.1.32-.25.32-.18,0-.28-.06-.33-.33Zm-1.74-1.05c-.11,0-.18-.05-.26-.26a3.5,3.5,0,0,0-.54-.86c-.08-.1-.09-.1-.09-.13s.02-.05.06-.05c.1,0,.52.2.58.2a5.161,5.161,0,0,0,.49-1.63c.02-.13.04-.13.07-.13.06,0,.72.27.72.37,0,.05-.2.18-.23.21a8.685,8.685,0,0,0-.8,1.31.2.2,0,0,0,.07.15.8.8,0,0,1,.2.46c0,.16-.09.34-.27.34Zm2.31,2.96a.4.4,0,0,1-.33.41c-.16,0-.18-.06-.29-.62a2.166,2.166,0,0,0-.26-.69.474.474,0,0,1-.05-.14.037.037,0,0,1,.04-.04,1.364,1.364,0,0,1,.46.32,1.318,1.318,0,0,1,.43.77Zm.79-3.82c-.18,0-.23.02-.29.12-.18.29-.63.98-.78.98a.053.053,0,0,1-.06-.06c0-.02.3-.58.34-.7a7.579,7.579,0,0,0,.69-2.24V9.75c0-.02,0-.05.03-.05s.87.26.87.42c0,.08-.1.13-.22.18a6.89,6.89,0,0,0-.63,1.18c0,.05.06.05.13.05h1.46c.22,0,.22,0,.31-.07.14-.14.16-.15.22-.15.1,0,.63.3.63.46,0,.06-.02.06-.2.21a1.56,1.56,0,0,0-.06.6,9.4,9.4,0,0,1-.68,3.91,1.193,1.193,0,0,1-.86.5c-.1,0-.13-.06-.2-.26a1.117,1.117,0,0,0-.44-.5c-.11-.07-.13-.08-.13-.12s.02-.03.03-.03.22.07.26.08a2.458,2.458,0,0,0,.5.12c.34,0,.52-.34.62-.72a11.375,11.375,0,0,0,.36-2.96c0-.13,0-.7-.02-.74-.05-.1-.15-.1-.24-.1h-1.64Zm.87,2.58a.462.462,0,0,1-.38.51c-.19,0-.22-.1-.32-.62a3.619,3.619,0,0,0-.24-.79c-.06-.12-.06-.14-.06-.17s0-.05.02-.05a1.817,1.817,0,0,1,.63.43.985.985,0,0,1,.35.68Z" fill="#3e3a39"/>
      <path id="パス_863" data-name="パス 863" d="M394.75,14.45a2.006,2.006,0,0,1-1.71,2.11c-.88,0-1.84-.98-1.84-2.74,0-1.86,1.07-3.39,2.28-3.39.49,0,.9.3.9.67a.4.4,0,0,1-.42.4c-.14,0-.42-.09-.44-.54,0-.16-.02-.27-.23-.27-.77,0-1.34,1.54-1.34,2.6,0,.03,0,.16.06.16.02,0,.04-.02.2-.18a1.536,1.536,0,0,1,1.12-.54,1.588,1.588,0,0,1,1.43,1.73Zm-2.78-.07c0,.82.41,1.93,1.04,1.93.37,0,1.02-.44,1.02-1.75,0-.4-.07-1.48-.94-1.48a1.318,1.318,0,0,0-1.13,1.3Z" fill="#3e3a39"/>
      <path id="パス_864" data-name="パス 864" d="M398.39,10.58c.18,0,.34,0,.34.22a.445.445,0,0,1-.09.3,8.641,8.641,0,0,0-1.73,4.69c-.02.29-.06.77-.46.77a.459.459,0,0,1-.41-.48,10.268,10.268,0,0,1,1.27-3.22c.14-.25.89-1.46.89-1.57s-.06-.1-.21-.1h-1.1c-.92,0-1.25.32-1.42.77-.1.26-.12.28-.18.28a.094.094,0,0,1-.1-.1c0-.02.18-.89.21-1.01.1-.44.14-.54.55-.54h2.45Z" fill="#3e3a39"/>
      <path id="パス_865" data-name="パス 865" d="M400.92,16.56c-1.26,0-1.8-1.59-1.8-3.06s.54-3.07,1.8-3.07c1.29,0,1.8,1.66,1.8,3.07S402.21,16.56,400.92,16.56Zm0-5.87c-1.06,0-1.08,2.4-1.08,2.81,0,.33,0,2.81,1.08,2.8,1.06,0,1.08-2.38,1.08-2.8,0-.34,0-2.81-1.08-2.81Z" fill="#3e3a39"/>
      <path id="パス_866" data-name="パス 866" d="M408.02,16.41c-.14,0-.15-.1-.15-.13,0-.12.1-.13.22-.13.42-.02.42-.23.42-1.31a5.92,5.92,0,0,0-.08-1.48.646.646,0,0,0-.63-.54,1.369,1.369,0,0,0-1.08.67,14.061,14.061,0,0,0-.05,1.5c0,.78,0,.86.08.98a.386.386,0,0,0,.33.18c.23,0,.3,0,.3.13s-.11.13-.18.13h-1.61c-.07,0-.19,0-.19-.13,0-.05.02-.1.06-.11a1.83,1.83,0,0,1,.34-.02c.32-.06.32-.23.32-1.34a4.536,4.536,0,0,0-.1-1.55.628.628,0,0,0-.6-.42,1.446,1.446,0,0,0-.89.4c-.19.19-.21.21-.21,1.58,0,1.11,0,1.34.42,1.35.12,0,.24,0,.24.13s-.11.13-.18.13h-1.51s-.16,0-.16-.13.1-.13.24-.13a.371.371,0,0,0,.35-.23c.05-.17.05-1.33.05-1.6a9.407,9.407,0,0,0-.05-1.23.3.3,0,0,0-.3-.2c-.03,0-.2.02-.24.02-.02,0-.08,0-.08-.06s.02-.07.39-.18c.18-.05.69-.18.75-.2.08,0,.08.04.08.23,0,.21,0,.26.08.26a1.785,1.785,0,0,0,.24-.15,1.755,1.755,0,0,1,1-.34.868.868,0,0,1,.9.52c.02.03.06.11.1.11s.06-.02.18-.13a1.792,1.792,0,0,1,1.21-.5.816.816,0,0,1,.91.62,6.092,6.092,0,0,1,.1,1.83c0,.96,0,1.22.45,1.22.06,0,.18,0,.18.14,0,.08-.07.12-.15.12h-1.5Z" fill="#3e3a39"/>
      <path id="パス_867" data-name="パス 867" d="M417.41,9.96c-.36.34-6.25,6.24-6.79,6.79a1.993,1.993,0,0,1-.22.2.086.086,0,0,1-.09-.08.1.1,0,0,1,.04-.08c.33-.31,6.26-6.25,6.8-6.79a1.369,1.369,0,0,1,.22-.2.088.088,0,0,1,.09.09.087.087,0,0,1-.05.07Z" fill="#3e3a39"/>
      <path id="パス_868" data-name="パス 868" d="M419.15,13.28s0-.1-.06-.1c-.02,0-.97.66-1.03.66a.02.02,0,0,1-.02-.02s.32-.34.36-.39a12.865,12.865,0,0,0,1.47-1.88c.05-.1.1-.21.13-.21s.67.4.67.6c0,.04-.02.05-.22.11a4.094,4.094,0,0,0-.79.67.058.058,0,0,0,.06.06c.13.03.18.05.18.14a.074.074,0,0,1-.02.06c-.02.03-.14.15-.15.18a9.965,9.965,0,0,0-.05,1.14c0,.3.03,1.8.03,2.13a.46.46,0,0,1-.42.52c-.23,0-.23-.21-.23-.28s.03-.47.04-.54c.04-.6.04-.91.04-1.78V13.26Zm1.55-2.99c0,.06-.03.07-.26.12a.956.956,0,0,0-.41.2,7.688,7.688,0,0,1-1.58.98,1.024,1.024,0,0,1-.11.05.02.02,0,0,1-.02-.02c0-.02.47-.44.54-.5a6.122,6.122,0,0,0,1.08-1.28c.06-.1.08-.14.13-.14.1,0,.63.47.63.6Zm1.2,2.39c-.18,0-.73,0-1.01.02-.03,0-.14.02-.18.02-.02,0-.04-.02-.06-.05l-.16-.18a.163.163,0,0,1-.03-.06c0-.02,0-.02.03-.02.06,0,.3.02.35.02.37.02.72.03,1.09.03h.41c.22,0,.24-.04.24-.88,0-.42-.04-.42-.37-.42-.18,0-.73,0-1.01.02-.03,0-.14.02-.17.02s-.05-.02-.07-.05l-.16-.18a.163.163,0,0,1-.03-.06s0-.02.03-.02.42.03.5.03c.58.02.6.02,1.02.02a.2.2,0,0,0,.23-.22c0-.18-.02-.53-.03-.62,0-.05-.06-.25-.06-.29,0-.07.05-.09.1-.09,0,0,.76.11.76.28,0,.04,0,.05-.15.17-.05.04-.06.1-.06.36s0,.4.26.4h.34c.37,0,.41,0,.53-.18.16-.23.18-.26.25-.26.1,0,.63.38.63.52,0,.12-.15.12-.43.12h-1.32c-.22,0-.26.06-.26.32,0,.1.02.53.02.62,0,.26,0,.37.26.37h.63c.37,0,.41,0,.5-.16.13-.22.18-.28.26-.28.13,0,.66.39.66.53,0,.12-.14.12-.42.12h-1.87s-.07,0-.07.03.02.04.07.06c.03.02.1.06.1.11a.844.844,0,0,1-.1.19,1.2,1.2,0,0,0-.04.39c0,.7,0,.71.24.71h.62c.37,0,.41,0,.53-.18.15-.23.17-.26.24-.26.1,0,.63.38.63.53,0,.11-.14.11-.43.11h-1.58c-.23,0-.25.1-.25.26v1.05c0,.3.07.39.51.39a6.912,6.912,0,0,0,1.76-.22,3.1,3.1,0,0,0,.3-.08.02.02,0,0,1,.02.02,1,1,0,0,1-.14.16c-.27.3-.29.41-.29.49s0,.14-.09.18a6.872,6.872,0,0,1-.98.07,2.807,2.807,0,0,1-2.75-1.23c-.03-.04-.11-.15-.17-.15s-.09.05-.15.18a3.857,3.857,0,0,1-.76,1.09,2.019,2.019,0,0,1-.4.31v-.02c0-.02.18-.29.21-.34a5.417,5.417,0,0,0,.82-2.81c0-.39,0-.42.09-.42,0,0,.29.07.38.1.26.08.29.09.29.16,0,.05-.13.21-.13.24-.03.1-.09.53-.1.62-.02.06-.11.47-.11.5,0,.3.68.9.98.9.05,0,.13,0,.16-.15,0-.07.03-1.41.03-1.51a7.85,7.85,0,0,0-.07-1.32c-.06-.18-.15-.18-.28-.18h-.32Z" fill="#3e3a39"/>
      <path id="パス_869" data-name="パス 869" d="M428.89,13.9c0,.06-.03.1-.17.12a.631.631,0,0,0-.33.2,5.764,5.764,0,0,1-1.67,1.17c-.06.02-.31.12-.34.12s-.03,0-.03-.02c0-.04.62-.49.69-.56.74-.78.9-.98,1.06-1.49,0-.02.04-.1.09-.1a1.418,1.418,0,0,1,.37.22c.31.22.34.26.34.33Zm.5-1.05c.22,0,.24-.09.24-.26V11.22a5.485,5.485,0,0,0-.05-1.03c0-.06-.1-.34-.1-.38,0-.07.1-.08.14-.08.26,0,.73.17.73.29,0,.03-.14.15-.16.18a2.71,2.71,0,0,0-.03.77c0,.14,0,.28.25.28h.83c.3,0,.36-.02.41-.07s.26-.45.34-.45c.11,0,.67.5.67.63,0,.1-.05.1-.43.1h-1.82c-.25,0-.25.13-.25.25v.86c0,.26.09.26.26.26h1.46a1.845,1.845,0,0,0,.42-.03c.09-.05.38-.5.49-.5a2.006,2.006,0,0,1,.67.62c0,.11-.14.11-.42.11h-2.93s-.06,0-.06.04c0,.02.02.02.18.1.13.06.19.1.21.18,0,.04,0,.06-.11.14-.14.1-.14.48-.14.66,0,.05.02.81.02.9a.737.737,0,0,1-.37.73,1.039,1.039,0,0,1-.47.14.234.234,0,0,1-.11-.02c-.05-.02-.17-.27-.21-.31-.06-.06-.4-.3-.4-.3,0-.02.03-.03.05-.03s.38.02.45.02c.45,0,.49-.09.5-.35v-.8c0-1.02-.03-1.09-.29-1.09h-1.53c-.14,0-.74,0-1.01.02-.02,0-.14.02-.18.02-.02,0-.04-.02-.06-.05l-.16-.18a.163.163,0,0,1-.03-.06c0-.02.02-.02.03-.02.16,0,.94.06,1.13.06s.21-.1.21-.26V11.43a7.319,7.319,0,0,0-.03-.82c0-.03-.06-.22-.06-.26s.02-.05.06-.05c0,0,.82.12.82.26v.06c-.02.02-.15.13-.17.16a7.4,7.4,0,0,0-.05,1.75c0,.24.03.3.24.3h.86Zm2.82,2.29c0,.1-.03.1-.22.14-.14.02-.18.06-.62.41a6.154,6.154,0,0,1-3.98,1.23c-.09,0-.58,0-.58-.06a.949.949,0,0,1,.31-.06,6.792,6.792,0,0,0,3.91-1.52,1.527,1.527,0,0,0,.4-.64c.03-.1.04-.11.1-.11s.08.03.37.26c.26.21.33.27.33.36Zm1.01-.27a.266.266,0,0,1-.3.27c-.22,0-.29-.1-.46-.38a6.351,6.351,0,0,0-1.08-1.13c-.12-.1-.14-.1-.14-.14s.06-.03.08-.03a2.285,2.285,0,0,1,.65.18c.8.34,1.24.89,1.24,1.23Z" fill="#3e3a39"/>
      <path id="パス_870" data-name="パス 870" d="M434.11,12.5a1.93,1.93,0,0,1,1.7-2.07c1.25,0,1.85,1.5,1.85,2.75,0,1.74-1.08,3.38-2.27,3.38-.52,0-1.06-.36-1.06-.79a.459.459,0,0,1,.46-.46c.38,0,.41.35.42.63a.332.332,0,0,0,.37.36c.14,0,.64-.09,1.03-.96a4,4,0,0,0,.31-1.47c0-.05,0-.15-.07-.15a.23.23,0,0,0-.14.09,1.428,1.428,0,0,1-1.07.46,1.667,1.667,0,0,1-1.53-1.78Zm2.82.38c0-.58-.23-2.2-1.11-2.2-.66,0-.98.89-.98,1.72,0,1.05.49,1.53,1.03,1.53a1.078,1.078,0,0,0,1.06-1.05Z" fill="#3e3a39"/>
      <path id="パス_871" data-name="パス 871" d="M441.23,10.78c0,.08-.06.1-.22.14-.08.02-.22.26-.4.54a5.176,5.176,0,0,1-2.37,2.21.047.047,0,0,1-.05-.05c0-.05.02-.06.17-.18a6.887,6.887,0,0,0,1.8-2.41c.06-.12.26-.8.27-.8.06-.02.81.41.81.54Zm.78,2.33c-.21,0-.21.02-.26.44a3.343,3.343,0,0,1-1.62,2.86,5.1,5.1,0,0,1-1.53.52c-.02,0-.1,0-.1-.06,0-.04.04-.06.18-.1a4.71,4.71,0,0,0,1.58-.97,3.889,3.889,0,0,0,.9-2.52c0-.18-.08-.18-.2-.18h-.24c-.3,0-.68,0-.82.02-.03,0-.14.02-.17.02s-.05-.02-.07-.06l-.16-.18a.219.219,0,0,1-.03-.05c0-.02,0-.02.03-.02.06,0,.3.03.35.03.39.02.72.02,1.1.02h1.75c.36,0,.4-.02.53-.15s.19-.18.25-.18c.13,0,.59.37.59.54,0,.04-.13.18-.14.22-.04.08-.09.99-.1,1.17a5.174,5.174,0,0,1-.38,1.98,1.22,1.22,0,0,1-.81.48c-.09,0-.09-.02-.15-.25-.05-.18-.32-.29-.74-.41-.18-.05-.26-.08-.26-.13s.07-.05.09-.05a2.439,2.439,0,0,1,.31.06,3.435,3.435,0,0,0,.57.06c.38,0,.6-.07.71-.9.08-.62.16-1.54.16-1.95,0-.22-.02-.29-.24-.29h-1.08Zm.4-2.58c-.2,0-.47,0-.64.02-.02,0-.14.02-.16.02s-.03,0-.06-.05l-.15-.18a.2.2,0,0,1-.02-.06.02.02,0,0,1,.02-.02c.05,0,.28.03.33.03.09,0,.42.02.48.02a.433.433,0,0,0,.34-.21c.16-.22.18-.25.24-.25.1,0,.7.4.7.58,0,.08-.02.09-.24.14a.179.179,0,0,0-.16.17,2.961,2.961,0,0,0,2.41,1.82c.02,0,.12.02.12.06s-.21.09-.24.1a1.653,1.653,0,0,0-.49.37c-.02.02-.1.12-.13.12a4,4,0,0,1-1.91-2.31c-.09-.34-.1-.38-.29-.38h-.14Z" fill="#3e3a39"/>
      <line id="線_43" data-name="線 43" x2="211.69" transform="translate(234.19 22.13)" fill="none" stroke="#231815" stroke-miterlimit="10" stroke-width="0.3"/>
      <path id="パス_872" data-name="パス 872" d="M235.39,13.79a2.786,2.786,0,0,1-1.48,1.52.037.037,0,0,1-.04-.04,2.6,2.6,0,0,1,.32-.42,4.255,4.255,0,0,0,.97-2.34,1.573,1.573,0,0,0-.14-.69.443.443,0,0,1-.03-.14c0-.02,0-.04.04-.04.06,0,.9.27.9.68,0,.02-.41,1.18-.54,1.48Zm1.3.74s.04-.25.05-.29c.02-.15.03-.78.03-.98a5.1,5.1,0,0,0-.15-1.5,1.662,1.662,0,0,1-.1-.29c0-.03.03-.04.05-.04.04,0,.88.14.88.56a5.8,5.8,0,0,1-.13.6c-.03.22-.06,1.18-.06,1.45,0,.1,0,.26.15.26a4.742,4.742,0,0,0,1.74-1.3c.14-.14.82-.86.85-.86a.032.032,0,0,1,.03.03,6.688,6.688,0,0,1-1.86,2.29,3.772,3.772,0,0,0-.55.51c-.14.15-.21.21-.26.22-.23.04-.66-.43-.66-.66Z" fill="#3e3a39"/>
      <path id="パス_873" data-name="パス 873" d="M243.56,16.34c-.19,0-.24-.05-.66-.52a5.407,5.407,0,0,0-2.09-1.3c-.18-.06-.2-.07-.2-.11,0-.07.11-.07.14-.07.75,0,3.18.66,3.18,1.62a.373.373,0,0,1-.38.39Zm-.5-3.13a.323.323,0,0,1-.28.31c-.18,0-.24-.05-.77-.45a3.8,3.8,0,0,0-1.16-.53c-.05-.02-.1-.03-.1-.08,0-.07.05-.07.51-.06.39,0,1.79.14,1.79.81Zm-1.54-2.6c.74,0,2.21.19,2.21.98a.264.264,0,0,1-.24.28c-.1,0-.28-.13-.59-.34a5.051,5.051,0,0,0-1.52-.73c-.18-.07-.18-.07-.18-.13,0-.03.13-.06.33-.06Z" fill="#3e3a39"/>
      <path id="パス_874" data-name="パス 874" d="M245.92,11.92a3.153,3.153,0,0,0,.67.08,9.541,9.541,0,0,0,2-.32,4.127,4.127,0,0,1,.45-.17c.25,0,.78.17.78.41,0,.15-.22.16-.42.17-.18,0-1,.12-1.17.14-.03,0-.12.02-.12.09a.191.191,0,0,0,.07.12c.19.2.22.22.22.29,0,.05-.06.26-.06.3-.03.32-.09.74-.14,1.1v.09c0,.12.06.15.24.15.16,0,1.17-.07,1.38-.08.1,0,.5-.06.59-.06.22,0,.79.36.79.59,0,.14-.27.17-.3.17-.06,0-.41-.1-.5-.12a3.3,3.3,0,0,0-.97-.1,14.246,14.246,0,0,0-3.46.41,4.287,4.287,0,0,1-.43.14c-.03,0-.82-.34-.82-.74a.058.058,0,0,1,.06-.06,1.554,1.554,0,0,1,.23.05,4,4,0,0,0,.7.07,18.338,18.338,0,0,0,1.91-.22c.16-.07.16-.52.16-.92,0-.94-.06-1.15-.29-1.15-.17,0-1,.24-1.03.24a1.436,1.436,0,0,1-.52-.36c-.08-.11-.17-.29-.14-.32,0,0,.1.02.11.02Z" fill="#3e3a39"/>
      <path id="パス_875" data-name="パス 875" d="M257.67,13.02h.18c.49,0,.56.3.56.35,0,.22-.33.25-.66.25-.18,0-.98-.02-1.14-.02-1.1,0-2.93.1-3.13.14-.1.02-.53.14-.62.14-.34,0-.71-.5-.71-.77,0-.05.02-.1.06-.1s.23.09.27.1a4.423,4.423,0,0,0,.98.07c.26,0,3.05-.1,4.22-.17Z" fill="#3e3a39"/>
      <path id="パス_876" data-name="パス 876" d="M260.72,13.79a2.786,2.786,0,0,1-1.48,1.52.037.037,0,0,1-.04-.04,2.6,2.6,0,0,1,.32-.42,4.255,4.255,0,0,0,.97-2.34,1.573,1.573,0,0,0-.14-.69.441.441,0,0,1-.03-.14c0-.02,0-.04.04-.04.06,0,.9.27.9.68,0,.02-.41,1.18-.54,1.48Zm1.3.74s.04-.25.05-.29c.02-.15.03-.78.03-.98a5.1,5.1,0,0,0-.15-1.5,1.662,1.662,0,0,1-.1-.29c0-.03.03-.04.05-.04.04,0,.88.14.88.56a5.8,5.8,0,0,1-.13.6c-.03.22-.06,1.18-.06,1.45,0,.1,0,.26.15.26a4.742,4.742,0,0,0,1.74-1.3c.14-.14.82-.86.85-.86a.032.032,0,0,1,.03.03,6.688,6.688,0,0,1-1.86,2.29,3.768,3.768,0,0,0-.55.51c-.14.15-.21.21-.26.22-.23.04-.66-.43-.66-.66Z" fill="#3e3a39"/>
      <path id="パス_877" data-name="パス 877" d="M265.91,14.94c0-.15.07-.23.3-.37a5.9,5.9,0,0,0,.78-.62c.04-.04.13-.12.16-.12s.04.07.04.1c0,.38-.38,1.34-.9,1.34a.567.567,0,0,1-.15-.03.329.329,0,0,1-.23-.3Zm3.13.53c0,.12,0,.65-.42.65-.18,0-.19-.05-.36-.51a2.4,2.4,0,0,0-.3-.57c-.03-.06-.05-.07-.05-.1s.02-.03.03-.03c.06,0,.32.1.38.1.1,0,.14-.09.16-.22.04-.38.04-1.17.04-1.61,0-.38-.02-.53-.23-.53-.05,0-1.01.14-1.48.26a1.914,1.914,0,0,1-.32.09c-.18,0-.58-.54-.58-.7,0-.04,0-.07.06-.07.03,0,.05,0,.15.05a2.34,2.34,0,0,0,.71.08c.18,0,1.05-.05,1.29-.06.3-.02.38-.07.38-.34a2.874,2.874,0,0,0-.17-1.02c-.02-.04-.15-.17-.15-.21,0-.02.09-.08.27-.08.55,0,.75.35.75.42,0,.05-.13.22-.14.26a2.065,2.065,0,0,0-.07.62c0,.25.1.29.31.29a6.3,6.3,0,0,0,.78-.08c.1-.02.53-.12.62-.12a1.738,1.738,0,0,1,.78.27c.09.06.2.12.2.26s-.18.16-.21.16c-.12,0-.64-.09-.75-.1-.3-.03-.89-.04-.95-.04-.69,0-.76,0-.76.46,0,.38.04,2.09.04,2.43Zm1.93-.58a2.848,2.848,0,0,0-.65-.98,1.769,1.769,0,0,1-.32-.34c0-.04.04-.04.06-.04.42,0,1.71.78,1.71,1.45,0,.18-.1.45-.36.44C271.19,15.42,271.11,15.24,270.97,14.89Z" fill="#3e3a39"/>
      <path id="パス_878" data-name="パス 878" d="M278.27,13.02h.18c.49,0,.56.3.56.35,0,.22-.33.25-.66.25-.18,0-.98-.02-1.14-.02-1.1,0-2.93.1-3.13.14-.1.02-.53.14-.62.14-.34,0-.71-.5-.71-.77,0-.05.02-.1.06-.1s.23.09.27.1a4.423,4.423,0,0,0,.98.07c.26,0,3.05-.1,4.22-.17Z" fill="#3e3a39"/>
      <path id="パス_879" data-name="パス 879" d="M281.32,13.79a2.786,2.786,0,0,1-1.48,1.52.037.037,0,0,1-.04-.04,2.6,2.6,0,0,1,.32-.42,4.255,4.255,0,0,0,.97-2.34,1.573,1.573,0,0,0-.14-.69.443.443,0,0,1-.03-.14c0-.02,0-.04.04-.04.06,0,.9.27.9.68,0,.02-.41,1.18-.54,1.48Zm1.3.74s.04-.25.05-.29c.02-.15.03-.78.03-.98a5.1,5.1,0,0,0-.15-1.5,1.667,1.667,0,0,1-.1-.29c0-.03.03-.04.05-.04.04,0,.88.14.88.56a5.818,5.818,0,0,1-.13.6c-.03.22-.06,1.18-.06,1.45,0,.1,0,.26.15.26a4.742,4.742,0,0,0,1.74-1.3c.13-.14.81-.86.85-.86a.032.032,0,0,1,.03.03,6.687,6.687,0,0,1-1.86,2.29,3.767,3.767,0,0,0-.55.51c-.14.15-.21.21-.26.22-.23.04-.66-.43-.66-.66Z" fill="#3e3a39"/>
    </g>
    <g id="グループ_1" data-name="グループ 1">
      <path id="パス_900" data-name="パス 900" d="M150.61,41.27s-.14.18-.16.21c-.14.19-.68,1.05-.82,1.21-.06.07-.22.26-.29.26-.02,0-.03,0-.03-.03,0,0,.24-.58.28-.7a5.3,5.3,0,0,0,.3-1.04c0-.23,0-.26.07-.26a1.862,1.862,0,0,1,.31.1c.11.05.34.15.34.24Zm1.69-.93c-.02-.07-.03-.12-.11-.12s-.45.08-.54.09c-.22.03-.22.1-.22.4V43.2a.409.409,0,0,1-.41.44.164.164,0,0,1-.18-.19c0-.1.04-.59.04-.7.02-.58.04-1.57.04-2.14,0-.1-.02-.19-.16-.19a5.627,5.627,0,0,0-.94.12,1.009,1.009,0,0,1-.23.12c-.14,0-.19-.64-.19-.68s0-.12.07-.12c0,0,.2.06.22.06a2.541,2.541,0,0,0,.8.11c.26,0,.29-.02.36-.14a9.3,9.3,0,0,0,.97-2.24c.04-.19.04-.21.1-.21.04,0,.78.3.78.46,0,.07-.06.1-.12.1a.494.494,0,0,0-.29.17,19.933,19.933,0,0,0-1.24,1.82c0,.02.02.03.02.04h.56c.12,0,.38-.02.46-.02a.063.063,0,0,0,.07-.07,4.289,4.289,0,0,0-.22-.57c0-.03.02-.03.03-.03.13,0,.88.43.88,1.01,0,.18-.1.32-.25.32-.18,0-.28-.06-.33-.33Zm-1.74-1.05c-.11,0-.18-.05-.26-.26a3.5,3.5,0,0,0-.54-.86c-.08-.1-.09-.1-.09-.13s.02-.05.06-.05c.1,0,.52.2.58.2a5.159,5.159,0,0,0,.49-1.63c.02-.13.04-.13.07-.13.06,0,.72.27.72.37,0,.05-.2.18-.23.21a8.685,8.685,0,0,0-.8,1.31.2.2,0,0,0,.07.15.8.8,0,0,1,.2.46c0,.16-.09.34-.27.34Zm2.31,2.96a.4.4,0,0,1-.33.41c-.16,0-.18-.06-.3-.62a2.166,2.166,0,0,0-.26-.69.476.476,0,0,1-.05-.14.037.037,0,0,1,.04-.04,1.364,1.364,0,0,1,.46.32,1.318,1.318,0,0,1,.43.77Zm.79-3.82c-.18,0-.23.02-.3.12-.18.29-.63.98-.78.98a.053.053,0,0,1-.06-.06c0-.02.3-.58.34-.7a7.579,7.579,0,0,0,.69-2.24v-.11c0-.02,0-.05.03-.05s.87.26.87.42c0,.08-.1.13-.22.18a6.889,6.889,0,0,0-.63,1.18c0,.05.06.05.14.05h1.46c.22,0,.22,0,.31-.07.14-.14.16-.15.22-.15.1,0,.63.3.63.45,0,.06-.02.06-.2.21a1.56,1.56,0,0,0-.06.6,9.4,9.4,0,0,1-.68,3.91,1.193,1.193,0,0,1-.86.5c-.1,0-.13-.06-.2-.26a1.117,1.117,0,0,0-.44-.5c-.11-.07-.13-.08-.13-.12s.02-.03.03-.03.22.07.26.08a2.458,2.458,0,0,0,.5.12c.34,0,.52-.34.62-.72a11.373,11.373,0,0,0,.36-2.96c0-.13,0-.7-.02-.74-.05-.1-.15-.1-.24-.1h-1.64Zm.87,2.58a.462.462,0,0,1-.38.51c-.19,0-.22-.1-.32-.62a3.617,3.617,0,0,0-.24-.79c-.06-.12-.06-.14-.06-.17s0-.05.02-.05a1.817,1.817,0,0,1,.63.43.985.985,0,0,1,.35.68Z" fill="#3e3a39"/>
      <path id="パス_901" data-name="パス 901" d="M158.07,37.85c-.27,0-.27.07-.28.32,0,.12-.06,1.47-.06,1.48,0,.06.02.12.07.12s.07-.02.31-.17a1.506,1.506,0,0,1,.84-.23,1.736,1.736,0,0,1,1.72,1.82,2.04,2.04,0,0,1-2,2.04,1.429,1.429,0,0,1-1.5-1.14.444.444,0,0,1,.47-.46.378.378,0,0,1,.41.39c0,.06-.06.38-.06.45,0,.34.38.5.66.5.58,0,1.27-.57,1.27-1.69s-.62-1.57-1.13-1.57a1.785,1.785,0,0,0-1.04.46c-.04.03-.19.22-.25.22s-.07-.06-.07-.13c0-.32.1-2.3.11-2.73,0-.1.02-.3.26-.3h2.29c.16,0,.23,0,.23.08a1.957,1.957,0,0,1-.11.41c-.05.12-.13.12-.23.12h-1.91Z" fill="#3e3a39"/>
      <path id="パス_902" data-name="パス 902" d="M162.9,43.23c-1.26,0-1.8-1.59-1.8-3.06s.54-3.07,1.8-3.07c1.29,0,1.8,1.66,1.8,3.07S164.19,43.23,162.9,43.23Zm0-5.87c-1.06,0-1.08,2.4-1.08,2.81,0,.33,0,2.81,1.08,2.8,1.06,0,1.08-2.38,1.08-2.8C163.98,39.83,163.98,37.36,162.9,37.36Z" fill="#3e3a39"/>
      <path id="パス_903" data-name="パス 903" d="M166.9,43.23c-1.26,0-1.8-1.59-1.8-3.06s.54-3.07,1.8-3.07c1.29,0,1.8,1.66,1.8,3.07S168.19,43.23,166.9,43.23Zm0-5.87c-1.06,0-1.08,2.4-1.08,2.81,0,.33,0,2.81,1.08,2.8,1.06,0,1.08-2.38,1.08-2.8C167.98,39.83,167.98,37.36,166.9,37.36Z" fill="#3e3a39"/>
      <path id="パス_904" data-name="パス 904" d="M174,43.07c-.14,0-.15-.1-.15-.13,0-.12.1-.13.22-.13.42-.02.42-.23.42-1.31a5.919,5.919,0,0,0-.08-1.48.646.646,0,0,0-.63-.54,1.369,1.369,0,0,0-1.08.67,14.057,14.057,0,0,0-.05,1.5c0,.78,0,.86.08.98a.386.386,0,0,0,.33.18c.23,0,.3,0,.3.13s-.11.13-.18.13h-1.61c-.07,0-.19,0-.19-.13,0-.05.02-.1.06-.11a1.83,1.83,0,0,1,.34-.02c.32-.06.32-.23.32-1.34a4.537,4.537,0,0,0-.1-1.55.628.628,0,0,0-.6-.42,1.446,1.446,0,0,0-.89.4c-.19.19-.21.21-.21,1.58,0,1.11,0,1.34.42,1.35.12,0,.24,0,.24.13s-.11.13-.18.13h-1.51s-.16,0-.16-.13.1-.13.24-.13a.371.371,0,0,0,.35-.23,13.394,13.394,0,0,0,.06-1.6,9.4,9.4,0,0,0-.05-1.23.3.3,0,0,0-.3-.2c-.03,0-.2.02-.24.02-.02,0-.08,0-.08-.06s.02-.07.39-.18c.18-.05.69-.18.75-.2.08,0,.08.04.08.23,0,.21,0,.26.08.26a1.789,1.789,0,0,0,.24-.15,1.755,1.755,0,0,1,1-.34.868.868,0,0,1,.9.52c.02.03.06.11.1.11s.06-.02.18-.13a1.792,1.792,0,0,1,1.21-.5.816.816,0,0,1,.91.62,6.093,6.093,0,0,1,.1,1.83c0,.96,0,1.22.45,1.22.06,0,.18,0,.18.14,0,.08-.07.12-.15.12h-1.5Z" fill="#3e3a39"/>
      <path id="パス_905" data-name="パス 905" d="M183.39,36.62c-.36.34-6.25,6.24-6.79,6.79a1.993,1.993,0,0,1-.22.2.086.086,0,0,1-.09-.08.1.1,0,0,1,.04-.08c.33-.31,6.26-6.25,6.8-6.79a1.37,1.37,0,0,1,.22-.2.088.088,0,0,1,.09.09.087.087,0,0,1-.05.07Z" fill="#3e3a39"/>
      <path id="パス_906" data-name="パス 906" d="M185.13,39.95s0-.1-.06-.1c-.02,0-.97.66-1.03.66a.02.02,0,0,1-.02-.02s.32-.34.36-.39a12.212,12.212,0,0,0,1.47-1.88c.05-.1.1-.21.13-.21s.67.4.67.6c0,.04-.02.05-.22.11a4.094,4.094,0,0,0-.79.67.058.058,0,0,0,.06.06c.14.03.18.05.18.14a.073.073,0,0,1-.02.06c-.02.03-.14.15-.15.18a9.969,9.969,0,0,0-.05,1.14c0,.3.03,1.8.03,2.13a.46.46,0,0,1-.42.52c-.23,0-.23-.21-.23-.28s.03-.47.04-.54c.04-.6.04-.91.04-1.78V39.93Zm1.55-2.99c0,.06-.03.07-.26.12a.956.956,0,0,0-.41.2,7.686,7.686,0,0,1-1.58.98,1.022,1.022,0,0,1-.11.05.02.02,0,0,1-.02-.02c0-.02.47-.44.54-.5a6.123,6.123,0,0,0,1.08-1.28c.06-.1.08-.14.13-.14.1,0,.63.47.63.6Zm1.2,2.39c-.18,0-.73,0-1.01.02-.03,0-.14.02-.18.02-.02,0-.04-.02-.06-.05l-.16-.18a.163.163,0,0,1-.03-.06c0-.02,0-.02.03-.02.06,0,.3.02.35.02.37.02.72.03,1.1.03h.41c.22,0,.24-.04.24-.88,0-.42-.04-.42-.38-.42-.18,0-.73,0-1.01.02-.03,0-.14.02-.17.02s-.05-.02-.07-.05l-.16-.18a.163.163,0,0,1-.03-.06s0-.02.03-.02.42.03.5.03c.58.02.6.02,1.02.02a.2.2,0,0,0,.23-.22c0-.18-.02-.53-.03-.62,0-.05-.06-.25-.06-.29,0-.07.05-.09.1-.09,0,0,.76.11.76.28,0,.04,0,.05-.15.17-.05.04-.06.1-.06.36s0,.4.26.4h.34c.37,0,.42,0,.53-.18.16-.23.18-.26.25-.26.1,0,.63.38.63.52,0,.12-.15.12-.43.12h-1.32c-.22,0-.26.06-.26.32,0,.1.02.53.02.62,0,.26,0,.37.26.37H190c.37,0,.41,0,.5-.16.13-.22.18-.28.26-.28.13,0,.66.39.66.53,0,.12-.14.12-.42.12h-1.87s-.07,0-.07.03.02.04.07.06c.03.02.1.06.1.11a.847.847,0,0,1-.1.19,1.194,1.194,0,0,0-.04.39c0,.7,0,.71.24.71h.62c.37,0,.41,0,.53-.18.15-.23.17-.26.24-.26.1,0,.63.38.63.53,0,.11-.14.11-.43.11h-1.58c-.23,0-.25.1-.25.26v1.05c0,.3.07.39.51.39a6.912,6.912,0,0,0,1.76-.22,3.092,3.092,0,0,0,.3-.08.02.02,0,0,1,.02.02,1,1,0,0,1-.14.16c-.27.3-.29.41-.29.49s0,.14-.09.18a6.873,6.873,0,0,1-.98.07,2.807,2.807,0,0,1-2.75-1.23c-.03-.04-.11-.15-.17-.15s-.09.05-.15.18a3.857,3.857,0,0,1-.76,1.09,2.376,2.376,0,0,1-.4.31v-.02c0-.02.18-.29.21-.34a5.325,5.325,0,0,0,.82-2.81c0-.39,0-.42.09-.42,0,0,.29.07.38.1.26.08.29.09.29.16,0,.05-.13.21-.14.24-.03.1-.09.53-.1.62-.02.06-.11.47-.11.5,0,.3.68.9.98.9.05,0,.14,0,.16-.15,0-.07.03-1.41.03-1.51a7.855,7.855,0,0,0-.07-1.32c-.06-.18-.15-.18-.28-.18h-.32Z" fill="#3e3a39"/>
      <path id="パス_907" data-name="パス 907" d="M194.87,40.56c0,.06-.03.1-.17.12a.631.631,0,0,0-.33.2,5.765,5.765,0,0,1-1.67,1.17c-.06.02-.31.12-.34.12s-.03,0-.03-.02c0-.04.62-.49.69-.56.74-.78.9-.98,1.06-1.49,0-.02.04-.1.09-.1a1.417,1.417,0,0,1,.37.22c.31.22.34.26.34.33Zm.5-1.05c.22,0,.24-.09.24-.26V37.88a5.481,5.481,0,0,0-.05-1.03c0-.06-.1-.34-.1-.38,0-.07.1-.08.14-.08.26,0,.73.17.73.29,0,.03-.14.15-.16.18a2.711,2.711,0,0,0-.03.77c0,.14,0,.28.25.28h.83c.3,0,.36-.02.41-.07s.26-.45.34-.45c.11,0,.67.5.67.63,0,.1-.05.1-.43.1h-1.82c-.25,0-.25.13-.25.25v.86c0,.26.09.26.26.26h1.46a1.845,1.845,0,0,0,.42-.03c.09-.05.38-.5.49-.5a2.006,2.006,0,0,1,.67.62c0,.11-.14.11-.42.11h-2.93s-.06,0-.06.04c0,.02.02.02.18.1.13.06.19.1.21.18,0,.04,0,.06-.11.14-.14.1-.14.48-.14.66,0,.05.02.81.02.9a.737.737,0,0,1-.37.73,1.039,1.039,0,0,1-.47.14.234.234,0,0,1-.11-.02c-.05-.02-.17-.27-.21-.31-.06-.06-.4-.3-.4-.3,0-.02.03-.03.05-.03s.38.02.45.02c.46,0,.49-.09.5-.35v-.8c0-1.02-.03-1.09-.29-1.09h-1.53c-.14,0-.74,0-1.01.02-.02,0-.14.02-.18.02-.02,0-.04-.02-.06-.05l-.16-.18a.163.163,0,0,1-.03-.06c0-.02.02-.02.03-.02.16,0,.94.06,1.13.06s.21-.1.21-.26V38.09a7.311,7.311,0,0,0-.03-.82c0-.03-.06-.22-.06-.26s.02-.05.06-.05c0,0,.82.12.82.26v.06c-.02.02-.15.13-.17.16a7.4,7.4,0,0,0-.05,1.75c0,.24.03.3.24.3h.86Zm2.82,2.29c0,.1-.03.1-.22.14-.14.02-.18.06-.62.41a6.154,6.154,0,0,1-3.98,1.23c-.09,0-.58,0-.58-.06a.949.949,0,0,1,.31-.06,6.792,6.792,0,0,0,3.91-1.52,1.527,1.527,0,0,0,.4-.64c.03-.1.04-.11.1-.11s.08.03.37.26c.26.21.33.27.33.36Zm1.01-.27a.266.266,0,0,1-.3.27c-.22,0-.29-.1-.46-.38a6.351,6.351,0,0,0-1.08-1.13c-.12-.1-.14-.1-.14-.14s.06-.03.08-.03a2.285,2.285,0,0,1,.65.18c.8.34,1.24.89,1.24,1.23Z" fill="#3e3a39"/>
      <path id="パス_908" data-name="パス 908" d="M203.33,37.25c.18,0,.34,0,.34.22a.445.445,0,0,1-.09.3,8.641,8.641,0,0,0-1.73,4.69c-.02.29-.06.77-.46.77a.459.459,0,0,1-.41-.48,10.267,10.267,0,0,1,1.27-3.22c.14-.25.89-1.46.89-1.57s-.06-.1-.21-.1h-1.1c-.92,0-1.25.32-1.42.77-.1.26-.12.28-.18.28a.094.094,0,0,1-.1-.1c0-.02.18-.89.21-1.01.1-.44.14-.54.55-.54h2.45Z" fill="#3e3a39"/>
      <path id="パス_909" data-name="パス 909" d="M207.21,37.45c0,.08-.06.1-.22.14-.08.02-.22.26-.4.54a5.176,5.176,0,0,1-2.37,2.21.047.047,0,0,1-.05-.05c0-.05.02-.06.17-.18a6.887,6.887,0,0,0,1.8-2.41c.06-.12.26-.8.27-.8.06-.02.81.41.81.54Zm.78,2.33c-.21,0-.21.02-.26.44a3.343,3.343,0,0,1-1.62,2.86,5.187,5.187,0,0,1-1.53.52c-.02,0-.1,0-.1-.06,0-.04.04-.06.18-.1a4.71,4.71,0,0,0,1.58-.97,3.889,3.889,0,0,0,.9-2.52c0-.18-.08-.18-.2-.18h-.24c-.3,0-.68,0-.82.02-.03,0-.14.02-.17.02s-.05-.02-.07-.06l-.16-.18a.219.219,0,0,1-.03-.05c0-.02,0-.02.03-.02.06,0,.3.03.35.03.39.02.72.02,1.1.02h1.75c.36,0,.4-.02.53-.15s.19-.18.25-.18c.13,0,.59.37.59.54,0,.04-.13.18-.14.22-.04.08-.09.99-.1,1.17a5.175,5.175,0,0,1-.38,1.98,1.237,1.237,0,0,1-.82.48c-.09,0-.09-.02-.15-.25-.05-.18-.32-.29-.74-.41-.18-.05-.26-.08-.26-.13s.07-.05.09-.05a2.438,2.438,0,0,1,.31.06,3.436,3.436,0,0,0,.57.06c.38,0,.6-.07.71-.9.08-.62.16-1.54.16-1.95,0-.22-.02-.29-.24-.29h-1.08Zm.4-2.58c-.2,0-.47,0-.64.02-.02,0-.14.02-.16.02s-.03,0-.06-.05l-.15-.18a.2.2,0,0,1-.02-.06.02.02,0,0,1,.02-.02c.05,0,.28.03.33.03.09,0,.42.02.48.02a.433.433,0,0,0,.34-.21c.16-.22.18-.25.24-.25.1,0,.7.4.7.58,0,.08-.02.09-.24.14a.179.179,0,0,0-.16.17,2.978,2.978,0,0,0,2.41,1.82c.02,0,.12.02.12.06s-.21.09-.24.1a1.652,1.652,0,0,0-.49.37c-.02.02-.1.12-.13.12a4,4,0,0,1-1.91-2.31c-.09-.34-.1-.38-.29-.38h-.14Z" fill="#3e3a39"/>
      <line id="線_45" data-name="線 45" x2="211.69" transform="translate(0.17 48.8)" fill="none" stroke="#231815" stroke-miterlimit="10" stroke-width="0.3"/>
      <path id="パス_910" data-name="パス 910" d="M1.22,39.22c-.19,0-.23.06-.23.24v3.47c0,.2,0,.67-.37.67-.26,0-.26-.26-.26-.36a2.822,2.822,0,0,1,.02-.39c0-.06.04-1.97.04-2.18,0-.89,0-2.81-.07-3.56,0-.06-.06-.34-.06-.39s.06-.06.1-.06a1.429,1.429,0,0,1,.47.15.813.813,0,0,0,.39.09h.96a.455.455,0,0,0,.31-.08c.03-.03.2-.23.26-.23.04,0,.63.41.63.51,0,.06-.02.07-.2.2a.3.3,0,0,0-.1.28c0,.22.02,1.32.02,1.57,0,.19,0,.47-.36.47-.19,0-.2-.07-.22-.24-.02-.13-.14-.15-.24-.15H1.2ZM1.2,37.11c-.24,0-.24.11-.24.48,0,.18,0,.31.24.31H2.32c.24,0,.24-.14.24-.31,0-.37,0-.48-.25-.48Zm1.14,1.9c.24,0,.24-.11.24-.47,0-.31,0-.42-.24-.42H1.21c-.24,0-.24.14-.24.3,0,.54,0,.6.25.6H2.34Zm2.56.18c-.1,0-.21,0-.23.17a.411.411,0,0,1-.41.32.187.187,0,0,1-.2-.2c0-.09.03-.53.03-.62,0-.34-.03-1.25-.03-1.31,0-.12-.05-.66-.05-.73s.02-.18.12-.18a1.486,1.486,0,0,1,.42.18,1.1,1.1,0,0,0,.5.09h.92a.521.521,0,0,0,.3-.07c.03-.02.19-.2.25-.2a2.953,2.953,0,0,1,.32.19c.24.17.26.18.26.27,0,.06-.02.08-.17.2-.08.06-.08.23-.08.29,0,.72.04,4.25.04,5.05a.838.838,0,0,1-.27.74,1.063,1.063,0,0,1-.54.25.173.173,0,0,1-.15-.1,1.446,1.446,0,0,0-.36-.46c-.03-.02-.24-.11-.24-.16,0-.02.05-.05.14-.05.07,0,.41.02.48.02.14,0,.34-.02.37-.19.02-.09.02-1,.02-1.16,0-.18,0-2.05-.02-2.18-.03-.15-.17-.15-.25-.15H4.89Zm-.02-2.07c-.26,0-.26.11-.26.38,0,.29,0,.39.26.39H6.05c.25,0,.25-.11.25-.38,0-.29,0-.39-.25-.39Zm1.18,1.86c.25,0,.25-.07.25-.47,0-.32,0-.4-.25-.4H4.88c-.23,0-.25.1-.25.27,0,.54,0,.6.26.6H6.06Z" fill="#3e3a39"/>
      <path id="パス_911" data-name="パス 911" d="M11.23,42.51c0,.06-.31.11-.36.14-.78.36-1,.46-1.21.54a6.722,6.722,0,0,1-1.7.41c-.02,0-.06,0-.06-.02a.922.922,0,0,1,.29-.14,6.274,6.274,0,0,0,2.24-1.3c.14-.17.15-.18.21-.18a.222.222,0,0,1,.11.05c.11.09.47.39.47.51Zm2.62-.92c.34,0,.42,0,.51-.14.18-.28.21-.31.3-.31.12,0,.63.38.63.55,0,.1-.17.1-.43.1H9.41c-.45,0-.77,0-1.02.02-.02,0-.14.02-.17.02s-.04-.02-.07-.05L8,41.6a.163.163,0,0,1-.03-.06c0-.02,0-.02.02-.02.06,0,.3.02.35.02.39.02.72.03,1.1.03h4.41Zm-2.74-3.47c.24,0,.24-.1.24-.44a.2.2,0,0,0-.23-.22H9.97c-.7,0-.94.02-1.02.02-.02,0-.14.02-.17.02s-.04-.02-.07-.05l-.15-.18a.163.163,0,0,1-.03-.06c0-.02,0-.02.02-.02.06,0,.3.02.35.02.39.02.73.03,1.1.03h1.1c.08,0,.24,0,.24-.2a1.584,1.584,0,0,0-.05-.38c0-.04-.1-.21-.1-.25s.07-.03.12-.03c.02,0,.67.11.7.12a.12.12,0,0,1,.1.12c0,.06,0,.06-.12.18a.567.567,0,0,0-.09.26.193.193,0,0,0,.21.18h1.04c.34,0,.42,0,.51-.14.22-.33.24-.36.33-.36.11,0,.74.44.74.59,0,.11-.17.11-.42.11H12.12c-.16,0-.24.05-.24.21,0,.38,0,.46.26.46h.66a.39.39,0,0,0,.34-.15c.08-.1.1-.13.15-.13.09,0,.62.29.62.41,0,.06-.18.22-.2.26a.538.538,0,0,0-.06.3c0,.32.06,1.73.06,2.01,0,.1,0,.5-.42.5-.21,0-.22-.09-.25-.25a.2.2,0,0,0-.21-.12H10.42a.268.268,0,0,0-.29.18.478.478,0,0,1-.38.23c-.18,0-.23-.12-.23-.25a1.679,1.679,0,0,1,.02-.29c.03-.34.04-.74.04-1.1a13.218,13.218,0,0,0-.06-1.56c0-.05-.06-.24-.06-.28s.06-.06.08-.06c.1,0,.16.03.4.17a1.064,1.064,0,0,0,.57.13h.59Zm-.74.21c-.07,0-.25,0-.25.21,0,.38,0,.47.25.47h2.48c.08,0,.25,0,.25-.21,0-.38,0-.47-.25-.47Zm0,.9c-.08,0-.25,0-.25.21,0,.34,0,.43.25.43h2.47c.08,0,.25,0,.25-.21,0-.34,0-.43-.25-.43Zm-.02.86a.2.2,0,0,0-.22.2c0,.36,0,.46.22.46h2.52c.22,0,.22-.15.22-.34s0-.33-.22-.33H10.35Zm2.41,2.06c1.33.53,1.84.74,1.84,1.25a.274.274,0,0,1-.27.31c-.13,0-.2-.06-.8-.64-.19-.18-1.48-1.07-1.45-1.14a3.63,3.63,0,0,1,.68.21Z" fill="#3e3a39"/>
      <path id="パス_912" data-name="パス 912" d="M20.12,39.65c-.25,0-.25.06-.25.42V42.5c0,.12.02.64.02.74,0,.22-.05.25-.25.34a.456.456,0,0,1-.22.06c-.18,0-.18-.08-.18-.21,0-.29,0-.37.02-.76.02-.63.04-2.03.04-2.74,0-.13,0-.28-.22-.28h-1.3c-.25,0-.25.14-.25.29v2.77c0,.22-.23.36-.46.36-.19,0-.19-.09-.19-.18s.03-.59.03-.7c.02-.5.02-.93.02-1.04,0-.58,0-1.54-.02-1.71,0-.04-.02-.19-.02-.22s0-.12.06-.12a1.862,1.862,0,0,1,.4.2.787.787,0,0,0,.47.14h1.27c.22,0,.22-.1.22-.73a2.931,2.931,0,0,0-.04-.61.145.145,0,0,0-.16-.1H17.38c-.62,0-.86,0-1.01.02-.02,0-.14.02-.17.02s-.05-.02-.07-.05l-.15-.18s-.04-.04-.04-.06c0,0,.02-.02.03-.02.06,0,.3.02.35.02.39.02.72.03,1.1.03h1.61c.22,0,.24-.1.24-.27v-.59c0-.06-.05-.42-.05-.45s.06-.04.08-.04c.06,0,.78.11.78.26,0,.04-.17.18-.18.22a.987.987,0,0,0-.02.27c0,.54,0,.61.24.61h1.6c.17,0,.19,0,.34-.2.27-.36.3-.4.38-.4a2.354,2.354,0,0,1,.86.7c0,.1-.16.1-.42.1H20c-.1,0-.12,0-.12.05,0,.03.03.05.06.07.11.08.13.09.13.13s-.14.17-.16.21a5.8,5.8,0,0,0-.04.74c0,.1,0,.23.24.23h1.22a.408.408,0,0,0,.39-.16c.19-.21.22-.23.25-.23a1.728,1.728,0,0,1,.65.61c0,.06-.02.08-.21.24-.08.07-.08.18-.08.47s.02,1.58.02,1.83c0,.41,0,.53-.21.67a.845.845,0,0,1-.46.18c-.12,0-.12-.02-.24-.27-.09-.2-.26-.26-.78-.46-.08-.03-.22-.09-.22-.14,0-.02.03-.03.07-.03s.78.1.9.1.26,0,.31-.18c.03-.09.03-1.24.03-1.44,0-.97,0-.98-.24-.98H20.13Z" fill="#3e3a39"/>
      <path id="パス_913" data-name="パス 913" d="M24.94,40.55V39.26c0-.05,0-.18-.08-.18-.06,0-.13.09-.25.22a3.318,3.318,0,0,1-.77.67c-.03,0-.04-.02-.04-.03s.13-.19.19-.29a9.853,9.853,0,0,0,1.45-3.11c0-.09.02-.17.1-.17.03,0,.71.26.71.41a.136.136,0,0,1-.06.11,1.563,1.563,0,0,0-.19.14,10.911,10.911,0,0,0-.63,1.34c0,.1.09.15.22.22.09.04.14.1.14.16a1.884,1.884,0,0,1-.21.31,16.672,16.672,0,0,0-.06,1.75c0,.29.02,1.89.02,2.21s0,.65-.39.65c-.18,0-.19-.11-.19-.29,0-.4.06-2.39.06-2.84Zm2.53-.09a8.319,8.319,0,0,0-1.01.02c-.02,0-.14.02-.17.02s-.05-.02-.07-.06l-.15-.18s-.04-.04-.04-.05.02-.02.03-.02c.06,0,.3.02.35.03.39.02.72.02,1.1.02h.58a.2.2,0,0,0,.22-.22v-.6c0-.06-.03-.3-.03-.36s0-.08.06-.08c.02,0,.67.14.67.3,0,.06-.15.23-.17.27a1.516,1.516,0,0,0-.04.42c0,.18.02.27.24.27h.6c.36,0,.4,0,.51-.14.22-.26.24-.29.33-.29a1.482,1.482,0,0,1,.66.53c0,.05-.03.07-.07.09a1.3,1.3,0,0,1-.34.02H29.16c-.06,0-.17,0-.17.09a4.409,4.409,0,0,0,2.3,1.91c.1.04.13.05.13.08,0,.05-.03.06-.2.11a1.373,1.373,0,0,0-.38.22.2.2,0,0,1-.13.06,3.98,3.98,0,0,1-1.53-1.56c-.05-.08-.34-.59-.34-.59-.03,0-.03.06-.03.09,0,.37.06,1.99.06,2.33,0,.49-.38.49-.38.49-.18,0-.18-.19-.18-.26,0-.3.03-1.66.03-1.93,0-.3,0-.34-.07-.34s-.18.17-.26.26a4.2,4.2,0,0,1-1.98,1.62.046.046,0,0,1-.05-.04c0-.02.1-.1.18-.17a8.6,8.6,0,0,0,1.86-2.29c0-.07-.07-.07-.12-.07h-.42Zm1.94-3.67a.333.333,0,0,0,.29-.11c.2-.18.22-.21.3-.21a.821.821,0,0,1,.48.45c0,.07-.05.12-.18.26a2.962,2.962,0,0,0-.06.73c0,.11.02.66.02.79a.352.352,0,0,1-.38.38.2.2,0,0,1-.22-.19c0-.22,0-.27-.2-.27H27.63c-.18,0-.2.09-.21.17,0,.15-.02.42-.38.42-.22,0-.22-.15-.22-.25,0-.16.03-.96.03-1.13s-.04-.98-.04-1.18c0-.06.02-.09.07-.09a4.6,4.6,0,0,1,.48.18.583.583,0,0,0,.25.05h1.78Zm.09,1.62c.2,0,.24,0,.24-.77,0-.58,0-.64-.24-.64H27.63c-.24,0-.24.06-.24.71s0,.7.24.7Z" fill="#3e3a39"/>
      <path id="パス_914" data-name="パス 914" d="M34.89,39.34a.254.254,0,0,0,.15-.03c.02-.02.13-.17.16-.17s.56.22.56.37a.184.184,0,0,1-.09.13.319.319,0,0,0-.18.28,10.344,10.344,0,0,1-.26,1.25c-.02.1-.2.58-.2.66,0,.26.79.9,2.27.9a6,6,0,0,0,1.93-.31c.16-.06.18-.06.18-.03s-.03.05-.06.07a1.287,1.287,0,0,0-.46.61c-.02.05-.06.29-.1.31a2.7,2.7,0,0,1-.46.02c-1.62,0-2.26-.1-3.01-.65a4.241,4.241,0,0,0-.53-.41c-.07,0-.4.42-.48.5a1.687,1.687,0,0,1-.9.56c-.02,0-.02-.02-.02-.03a.955.955,0,0,1,.21-.16,2.7,2.7,0,0,0,.9-1.26.426.426,0,0,0-.08-.21,5.83,5.83,0,0,1-.57-1.53c0-.04,0-.06.02-.06s.08.05.12.16a2.818,2.818,0,0,0,.66,1.1c.15,0,.39-1.63.39-1.7,0-.14-.09-.14-.16-.14h-.32a.224.224,0,0,0-.18.1c-.06.13-.11.22-.28.22-.09,0-.27-.06-.27-.21a5.3,5.3,0,0,1,.19-.61,13.858,13.858,0,0,0,.45-1.69c0-.09-.05-.1-.14-.1s-.5.04-.55.04c-.03,0-.11-.18-.15-.18a4.847,4.847,0,0,0-.62,1.17c0,.1.02.12.23.22.06.03.22.11.22.22,0,.05-.03.07-.1.13a.425.425,0,0,0-.16.41v3.09c0,.13.03.78.03.92a.311.311,0,0,1-.09.27.6.6,0,0,1-.35.14.159.159,0,0,1-.18-.18c0-.06.05-.33.05-.39.04-.69.04-2.1.04-2.84,0-.16-.02-.99-.02-1.1,0-.07,0-.18-.05-.18a.721.721,0,0,0-.14.19,2.111,2.111,0,0,1-.66.75h-.02a1.382,1.382,0,0,1,.1-.22c.06-.1.46-1.02.67-1.62a5.4,5.4,0,0,0,.48-1.62c0-.05,0-.08.06-.08.08,0,.7.34.7.48,0,.02-.02.04-.04.07s-.03.03-.03.05a3.835,3.835,0,0,0,.62.06.168.168,0,0,0,.18-.1c.11-.14.14-.14.15-.14a4.164,4.164,0,0,1,.4.22c.06.04.18.11.18.21,0,.03-.02.06-.04.06-.19.11-.22.13-.25.2s-.49,1.74-.49,1.76c0,.1.06.1.1.1h.26Zm3.85-1.01c-.18,0-.21.08-.21.21v.35c0,.08.04.45.04.53a.352.352,0,0,1-.36.31c-.19,0-.21-.1-.22-.18s-.12-.11-.2-.11h-.42c-.1,0-.22.02-.22.19,0,.68.02.73.24.73.2,0,.29,0,.38-.14s.14-.21.23-.21a1.822,1.822,0,0,1,.6.45c0,.11-.16.11-.43.11H37.4c-.18,0-.22.06-.22.23,0,.51,0,.57.23.57h.3c.3,0,.45,0,.5-.13.1-.22.12-.28.22-.28a2.036,2.036,0,0,1,.69.51c0,.11-.16.11-.42.11H37.41c-.1,0-.22,0-.22.2,0,.06.02.29.02.33,0,.36-.39.36-.42.36-.19,0-.22-.11-.22-.27,0-.07.03-.39.03-.46,0-.16-.11-.17-.18-.17-.17,0-.55,0-.7.02-.02,0-.1.02-.11.02-.03,0-.05-.02-.07-.06l-.15-.18s-.04-.04-.04-.05.02-.02.03-.02c.16,0,.87.06,1.02.06.21,0,.21-.07.21-.37,0-.34,0-.43-.18-.43-.07,0-.42.04-.48.04-.02,0-.04-.02-.07-.06l-.15-.18a.219.219,0,0,1-.03-.05c0-.02,0-.02.02-.02.11,0,.58.04.67.04.19,0,.22-.09.22-.23v-.48c0-.18-.13-.18-.18-.18-.07,0-.41.03-.46.03-.02,0-.03-.02-.06-.06l-.16-.18a.333.333,0,0,1-.03-.06c0-.02,0-.02.02-.02.08,0,.58.04.69.04.18,0,.18-.04.18-.63,0-.15-.02-.25-.22-.25-.03,0-.57,0-.83.02-.02,0-.14.02-.17.02s-.04-.02-.07-.05l-.15-.18a.163.163,0,0,1-.03-.06.02.02,0,0,1,.02-.02c.06,0,.3.02.36.02.27.02.63.03.9.03.2,0,.2-.02.2-.57,0-.12,0-.22-.18-.22-.1,0-.6.04-.66.04-.02,0-.04-.02-.07-.06l-.15-.18a.219.219,0,0,1-.03-.05c0-.02,0-.02.02-.02.15,0,.81.06.94.06.05,0,.14,0,.14-.14a.7.7,0,0,0-.06-.3c0-.04-.08-.2-.08-.23s.04-.05.06-.05c0,0,.48.1.54.1.18.04.3.06.3.16,0,.06-.02.07-.16.2a.206.206,0,0,0-.07.17c0,.1.07.1.12.1h.53a.235.235,0,0,0,.23-.1c.04-.04.12-.12.17-.12.02,0,.38.18.42.2.08.04.18.1.18.18,0,.06-.21.22-.22.27a.3.3,0,0,0-.02.15c0,.06,0,.33.05.33.02,0,.1-.08.11-.1a.168.168,0,0,1,.14-.06c.11,0,.46.24.46.34,0,.12-.14.12-.43.12h-.14Zm-.94-.21c.22,0,.22-.07.22-.46,0-.21,0-.32-.22-.32h-.47c-.22,0-.22.08-.22.45,0,.22,0,.34.22.34h.47Zm.02,1.1c.14,0,.2-.03.2-.22,0-.61,0-.68-.21-.68h-.49c-.21,0-.21.07-.21.35,0,.49,0,.54.22.54h.49Z" fill="#3e3a39"/>
      <path id="パス_915" data-name="パス 915" d="M41.42,38.14c-.7,0-.94.02-1.02.02-.02,0-.14.02-.17.02s-.04-.02-.07-.05l-.15-.18a.163.163,0,0,1-.03-.06.02.02,0,0,1,.02-.02c.14,0,.74.05.86.05.24,0,.33,0,.33-.25,0-.08-.05-.82-.06-.9,0-.05-.05-.26-.05-.3s.06-.06.08-.06c.04,0,.71.15.71.29a1.767,1.767,0,0,1-.12.17.6.6,0,0,0-.09.34c0,.64,0,.71.25.71h.22c.15,0,.16-.02.29-.17.06-.07.11-.13.17-.13.13,0,.49.45.49.56,0,.06-.02.07-.19.12a3.57,3.57,0,0,0-.58.64c-.18.22-.36.45-.54.66a.239.239,0,0,0-.07.16c0,.06.02.06.28.1a.715.715,0,0,1,.66.62c0,.18-.13.34-.25.34s-.18-.06-.3-.33c-.06-.14-.21-.42-.34-.42-.08,0-.08.02-.08.28,0,.46.05,2.46.05,2.87,0,.14-.03.41-.35.41-.25,0-.25-.15-.25-.27,0-.07.04-.61.05-.72,0-.22.05-1.58.05-1.74v-.57c-.02-.05-.03-.08-.08-.08-.02,0-.21.16-.22.16a3.458,3.458,0,0,1-1.11.7c-.02,0,0-.03.05-.08a10.857,10.857,0,0,0,2.21-2.59.545.545,0,0,0,.11-.24c0-.07-.08-.08-.17-.08h-.58Zm4.43-1.2c.35,0,.39,0,.48-.13.12-.17.19-.22.25-.22a1.5,1.5,0,0,1,.57.46c0,.08-.1.1-.42.1H44.21c-.58,0-.81,0-1.01.02-.03,0-.14.02-.17.02s-.05-.02-.07-.06l-.15-.18s-.04-.04-.04-.05.02-.02.03-.02c.06,0,.3.03.35.03.39.02.72.02,1.1.02h1.61Zm-2.11,6.12c-.08,0-.15,0-.2.14-.06.17-.12.37-.36.37-.22,0-.22-.14-.22-.28,0-.3.02-1.77.02-2.11,0-.11-.02-.65-.02-.77,0-.04,0-.14.1-.14a1.2,1.2,0,0,1,.28.14.618.618,0,0,0,.38.1h2.16c.15,0,.22-.02.27-.11.1-.14.13-.19.19-.19.02,0,.6.25.6.43,0,.05-.02.06-.17.19a1.974,1.974,0,0,0-.07.68c0,.21.06,1.22.06,1.45,0,.18,0,.56-.38.56-.22,0-.23-.09-.25-.26-.02-.2-.14-.2-.24-.2H43.75Zm1.79-5.11a.284.284,0,0,0,.27-.11c.1-.14.12-.18.18-.18s.59.26.59.4c0,.05-.02.06-.17.18a.315.315,0,0,0-.08.26c0,.11.03.94.03,1.11a.379.379,0,0,1-.38.33c-.14,0-.16-.06-.22-.19a.212.212,0,0,0-.23-.14H44.18a.372.372,0,0,0-.26.1c-.18.18-.22.22-.34.22-.16,0-.22-.06-.22-.22,0-.02.04-.91.04-1.09,0-.22,0-.42-.02-.62,0-.04-.03-.22-.03-.26s.03-.05.06-.05a1.338,1.338,0,0,1,.32.16.721.721,0,0,0,.45.11h1.34Zm-1.22,3.74c.25,0,.25-.11.25-.49s0-.49-.25-.49h-.53c-.25,0-.25.11-.25.49s0,.49.25.49Zm.02,1.16c.23,0,.23-.06.23-.5,0-.38,0-.46-.23-.46h-.57c-.23,0-.23.06-.23.5,0,.38,0,.46.23.46Zm-.15-4.69c-.24,0-.24.13-.24.58,0,.59,0,.66.24.66h1.34c.25,0,.25-.12.25-.58,0-.59,0-.66-.25-.66Zm1.7,4.69c.26,0,.26-.08.26-.47s0-.48-.26-.48h-.55c-.26,0-.26.08-.26.47s0,.48.26.48Zm0-1.16c.26,0,.26-.06.26-.66,0-.22-.03-.32-.26-.32h-.56c-.22,0-.26.09-.26.32,0,.59,0,.66.26.66Z" fill="#3e3a39"/>
      <path id="パス_916" data-name="パス 916" d="M49.45,38.21c-.47,0-.78,0-1.02.02-.02,0-.14.02-.17.02s-.04-.02-.07-.05l-.15-.18a.163.163,0,0,1-.03-.06.02.02,0,0,1,.02-.02c.16,0,.86.05,1,.05s.26,0,.26-.2c0-.22-.03-.79-.06-1.03,0-.05-.06-.26-.06-.3a.068.068,0,0,1,.07-.07c.03,0,.42.15.49.18.19.07.27.1.27.19,0,.05-.05.1-.15.19s-.09.53-.09.63c0,.42.06.42.31.42.11,0,.14,0,.19-.06.14-.15.22-.25.27-.25.09,0,.48.34.48.51,0,.06-.03.09-.15.14s-.16.1-.62.67c-.06.07-.36.4-.4.47a.685.685,0,0,0-.07.33c0,.16.02.17.26.26.32.12.82.32.82.8a.274.274,0,0,1-.24.3c-.13,0-.14-.02-.42-.5-.1-.18-.23-.41-.34-.41-.06,0-.07.06-.07.1,0,.46.08,2.46.08,2.88a.375.375,0,0,1-.36.42c-.22,0-.22-.15-.22-.23,0-.12.03-.65.03-.75.02-.67.02-1.78.02-2.12,0-.54,0-.54-.08-.54s-1.1.9-1.37.9a.02.02,0,0,1-.02-.02c0-.02.08-.09.12-.13a11.062,11.062,0,0,0,2.06-2.47c0-.1-.06-.1-.17-.1h-.42Zm2.09,5.04c-.23,0-.79,0-.98.02-.03,0-.17.02-.2.02a.1.1,0,0,1-.07-.05l-.16-.19A.219.219,0,0,1,50.1,43a.02.02,0,0,1,.02-.02c.13,0,.74.05.87.05.33,0,.33-.09.33-.4,0-3.36,0-3.4-.1-3.79,0-.02-.06-.17-.06-.2a.1.1,0,0,1,.11-.1c.06,0,.49.12.57.14.19.05.3.08.3.18,0,.06-.23.29-.25.35-.03.14-.03,3.21-.03,3.57,0,.19.06.25.26.25h.42c.07,0,.19,0,.22-.11.02-.07.04-1.41.04-1.64,0-.77-.05-4.01-.12-4.43,0-.05-.07-.28-.07-.33a.094.094,0,0,1,.1-.1,4.713,4.713,0,0,1,.57.14c.19.05.3.09.3.18,0,.05-.1.16-.14.21-.12.11-.12.16-.12.61,0,.22.02,1.49.02,1.57a.2.2,0,0,0,.22.22h.22c.36,0,.4,0,.6-.23.09-.11.18-.22.22-.22.06,0,.63.44.63.55s-.04.1-.42.1H53.55c-.15,0-.21.06-.21.32v2.89c0,.12,0,.27.25.27h.25a1.746,1.746,0,0,0,.39-.02c.07-.04.34-.4.44-.4.05,0,.62.41.62.53s-.04.11-.42.11H51.5Z" fill="#3e3a39"/>
      <path id="パス_917" data-name="パス 917" d="M56.1,39.61a1.464,1.464,0,0,0,.3.02,6.484,6.484,0,0,0,1.67-.36c.22-.06.23-.12.23-.54,0-.86-.1-1-.29-1.29,0-.02-.1-.14-.1-.15,0-.07.3-.14.37-.14.1,0,.18.04.55.35.02.02.17.16.17.24a3.881,3.881,0,0,1-.15.36c-.06.26-.12.74-.12.77a.14.14,0,0,0,.16.15,8.609,8.609,0,0,0,1.2-.34,3.589,3.589,0,0,1,.34-.17c.22,0,1.07.62,1.07.94,0,.06-.04.12-.14.12-.03,0-.18-.02-.22-.02-.17,0-.26.06-.54.23a6.448,6.448,0,0,1-.6.36.054.054,0,0,1-.05-.05s.14-.23.15-.26a1.365,1.365,0,0,0,.22-.66c0-.05,0-.16-.1-.16-.02,0-1.22.39-1.32.42a.3.3,0,0,0-.25.34c0,.67,0,1.39.02,1.54.06.63.51.7.99.7a6.159,6.159,0,0,0,.88-.08,3.329,3.329,0,0,1,.66-.11.317.317,0,0,1,.34.26c0,.51-1.34.51-1.77.51-1.38,0-1.55-.36-1.55-1.69,0-.16.02-.86.02-.99s-.05-.18-.16-.18a5.922,5.922,0,0,0-.75.22c-.47.25-.52.27-.7.27-.41,0-.73-.61-.73-.64s.03-.03.05-.03a.5.5,0,0,1,.14.03Z" fill="#3e3a39"/>
      <path id="パス_918" data-name="パス 918" d="M64.61,41.63a4.952,4.952,0,0,0-.78.66c-.15.18-.17.2-.29.2-.43,0-1.02-.51-1.02-.83,0-.06,0-.42.08-.42.03,0,.21.14.24.15a1.376,1.376,0,0,0,.54.18,13.424,13.424,0,0,0,3.84-2.73,4.3,4.3,0,0,1,.37-.35.043.043,0,0,1,.04.04,10.941,10.941,0,0,1-3.01,3.1ZM63.95,39c-.22,0-.3-.13-.56-.53a1.772,1.772,0,0,0-.73-.66c-.03-.02-.07-.04-.07-.07s.06-.07.18-.07c.86,0,1.53.46,1.53.93a.355.355,0,0,1-.34.4Z" fill="#3e3a39"/>
      <path id="パス_919" data-name="パス 919" d="M68.26,42.94a6.832,6.832,0,0,0,2.73-2.48c0-.25-.95-.86-1.15-.86-.18,0-1.15,1.05-1.42,1.05a.037.037,0,0,1-.04-.04,2.776,2.776,0,0,1,.29-.34,5.959,5.959,0,0,0,1.61-2.61c0-.06-.13-.32-.13-.38s.1-.05.15-.05c.42,0,.72.31.72.47,0,.05-.09.26-.09.31,0,.12.17.14.27.14a5.252,5.252,0,0,0,1.2-.19c.05-.02.25-.18.3-.18.08,0,.66.36.66.62,0,.12-.06.14-.2.21-.12.06-.15.1-.39.47-.11.18-.66.94-.75,1.1-.07.11-.09.14-.09.2s0,.09.15.27a1.128,1.128,0,0,1,.34.7.336.336,0,0,1-.34.38c-.17,0-.2-.06-.5-.57-.02-.03-.1-.18-.18-.18s-.12.06-.28.22a6.944,6.944,0,0,1-2.95,1.93c-.02,0-.09,0-.07-.07,0-.03.02-.03.18-.12Zm4.07-4.43c0-.09-.08-.11-.14-.11-.12,0-.82.1-.97.1a.609.609,0,0,1-.24-.03.628.628,0,0,0-.19-.03.156.156,0,0,0-.1.03,7.026,7.026,0,0,0-.68.9c0,.11.07.14.27.22.25.1.31.13.88.41a.546.546,0,0,0,.18.06,3.928,3.928,0,0,0,.98-1.54Z" fill="#3e3a39"/>
      <path id="パス_920" data-name="パス 920" d="M79.95,39.68h.18c.49,0,.56.3.56.35,0,.22-.33.25-.66.25-.18,0-.98-.02-1.14-.02-1.1,0-2.93.1-3.13.14-.1.02-.53.14-.62.14-.34,0-.71-.5-.71-.77,0-.05.02-.1.06-.1s.23.09.27.1a4.423,4.423,0,0,0,.98.07c.26,0,3.05-.1,4.22-.17Z" fill="#3e3a39"/>
    </g>
  </g>
</svg>
