<svg id="shops01-04" xmlns="http://www.w3.org/2000/svg" width="351.74" height="203.32" viewBox="0 0 351.74 203.32">
  <rect id="長方形_8" data-name="長方形 8" width="351.74" height="203.32" fill="#a7dcf7" opacity="0.4"/>
  <path id="パス_103" data-name="パス 103" d="M26.39,47.33a2.4,2.4,0,0,1,2.71,2.42,2.091,2.091,0,0,1-1.38,2.04,2.306,2.306,0,0,1,1.73,2.33,2.58,2.58,0,0,1-2.91,2.66H22.05V47.33Zm-3.15,1.03v3.11h2.9c1.44,0,1.76-.92,1.76-1.56,0-.42-.14-1.55-1.76-1.55Zm0,4.02v3.37h3.07a1.71,1.71,0,0,0,1.94-1.69c0-.68-.36-1.68-1.98-1.68Z" fill="#3e3a39"/>
  <path id="パス_104" data-name="パス 104" d="M35.69,47.33l3.49,9.45H37.94l-.77-2.13H32.74l-.76,2.13H30.73l3.49-9.45h1.45Zm-.72,1.12L33.1,53.69h3.74l-1.87-5.24Z" fill="#3e3a39"/>
  <path id="パス_105" data-name="パス 105" d="M41.56,47.33l2.82,4.61,2.81-4.61h1.4l-3.62,5.75v3.71H43.78V53.08l-3.62-5.75h1.4Z" fill="#3e3a39"/>
  <path id="パス_106" data-name="パス 106" d="M56.2,47.33v1.03H51.43v3.21h4.1V52.6h-4.1v4.17H50.24V47.32H56.2Z" fill="#3e3a39"/>
  <path id="パス_107" data-name="パス 107" d="M59.29,47.33v8.42h4.77v1.03H58.1V47.33h1.19Z" fill="#3e3a39"/>
  <path id="パス_108" data-name="パス 108" d="M74.1,52.06c0,2.87-1.69,4.99-4.27,4.99s-4.26-2.1-4.26-4.99c0-2.71,1.55-4.99,4.26-4.99s4.27,2.33,4.27,4.99Zm-7.33,0c0,2.73,1.49,3.95,3.06,3.95,1.45,0,3.07-1.07,3.07-3.95s-1.5-3.95-3.07-3.95S66.77,49.24,66.77,52.06Z" fill="#3e3a39"/>
  <path id="パス_109" data-name="パス 109" d="M76.6,47.33l1.69,8.32,1.68-8.32h1.45l1.68,8.32,1.69-8.32h1.25l-2.15,9.45H82.35l-1.67-8.2-1.67,8.2H77.47l-2.13-9.45h1.25Z" fill="#3e3a39"/>
  <path id="パス_110" data-name="パス 110" d="M28.21,69.61a2.429,2.429,0,0,0-2.47-2.49c-1.94,0-2.88,1.98-2.88,4.04,0,2.66,1.37,3.85,2.87,3.85.68,0,2.3-.26,2.49-2.63h1.22c-.12.74-.56,3.67-3.66,3.67-2.9,0-4.13-2.39-4.13-4.89s1.21-5.08,4.04-5.08c.4,0,3.21,0,3.68,3.54H28.19Z" fill="#3e3a39"/>
  <path id="パス_111" data-name="パス 111" d="M39.56,71.06c0,2.87-1.69,4.99-4.27,4.99s-4.26-2.1-4.26-4.99c0-2.71,1.55-4.99,4.26-4.99S39.56,68.4,39.56,71.06Zm-7.33,0c0,2.73,1.49,3.95,3.06,3.95,1.45,0,3.07-1.07,3.07-3.95s-1.5-3.95-3.07-3.95S32.23,68.24,32.23,71.06Z" fill="#3e3a39"/>
  <path id="パス_112" data-name="パス 112" d="M42.7,66.33v8.42h4.77v1.03H41.51V66.33Z" fill="#3e3a39"/>
  <path id="パス_113" data-name="パス 113" d="M57.5,71.06c0,2.87-1.69,4.99-4.27,4.99s-4.26-2.1-4.26-4.99c0-2.71,1.55-4.99,4.26-4.99s4.27,2.33,4.27,4.99Zm-7.33,0c0,2.73,1.49,3.95,3.06,3.95,1.45,0,3.07-1.07,3.07-3.95s-1.5-3.95-3.07-3.95S50.17,68.24,50.17,71.06Z" fill="#3e3a39"/>
  <path id="パス_114" data-name="パス 114" d="M60.61,66.33l5.4,7.68V66.33H67.2v9.45H66.01l-5.4-7.68v7.68H59.43V66.33Z" fill="#3e3a39"/>
  <path id="パス_115" data-name="パス 115" d="M70.25,66.33l2.82,4.61,2.81-4.61h1.4l-3.62,5.75v3.71H72.47V72.08l-3.62-5.75h1.4Z" fill="#3e3a39"/>
  <path id="パス_116" data-name="パス 116" d="M85.57,74.75v1.03H78.52c.08-1.93,1.16-2.76,2.91-3.93,2.35-1.6,2.88-1.94,2.88-3.05,0-1.24-1.09-1.69-2.1-1.69-2.22,0-2.31,1.94-2.35,2.6H78.65c.06-2.33,1.39-3.65,3.59-3.65,1.87,0,3.27,1.01,3.27,2.78,0,1.22-.53,2.02-2.48,3.25-2.21,1.39-2.64,1.87-2.93,2.65h5.47Z" fill="#3e3a39"/>
  <path id="パス_117" data-name="パス 117" d="M91.49,75.78H90.31V69H88.37v-.9a1.966,1.966,0,0,0,2.17-1.78h.95v9.45Z" fill="#3e3a39"/>
  <path id="パス_118" data-name="パス 118" d="M96.79,72.68a2.115,2.115,0,0,0,2.25,2.33c1.74,0,2.35-.97,2.35-1.94a1.848,1.848,0,0,0-2.07-1.85h-.94v-.91h.82c1.32,0,2.03-.68,2.03-1.62,0-1.01-.85-1.57-2-1.57a1.961,1.961,0,0,0-2.19,2.04H95.82a3.144,3.144,0,0,1,3.48-3.08c1.82,0,3.13.97,3.13,2.5a2.076,2.076,0,0,1-1.69,2.12,2.279,2.279,0,0,1,1.87,2.34c0,1.28-.71,3.02-3.45,3.02-1.12,0-3.38-.17-3.57-3.37h1.22Z" fill="#3e3a39"/>
  <path id="パス_119" data-name="パス 119" d="M105.39,73.39a1.774,1.774,0,0,0,1.91,1.62c2.36,0,2.54-2.5,2.64-3.77a3.181,3.181,0,0,1-2.69,1.14,3,3,0,0,1-3.24-3.09,3.16,3.16,0,0,1,3.43-3.21c3.42,0,3.71,3.44,3.71,4.8,0,2.48-.94,5.18-3.83,5.18a3.071,3.071,0,0,1-3.19-2.66h1.26Zm-.18-4.08a2,2,0,0,0,2.19,2.15,2.14,2.14,0,0,0,2.41-2.11,2.233,2.233,0,0,0-2.4-2.23,2.087,2.087,0,0,0-2.21,2.19Z" fill="#3e3a39"/>
  <path id="パス_120" data-name="パス 120" d="M27.98,85.33v1.03H23.21v3.21h4.1V90.6h-4.1v4.17H22.02V85.32h5.96Z" fill="#3e3a39"/>
  <path id="パス_121" data-name="パス 121" d="M38.01,90.06c0,2.87-1.69,4.99-4.27,4.99s-4.26-2.1-4.26-4.99c0-2.71,1.55-4.99,4.26-4.99S38.01,87.4,38.01,90.06Zm-7.33,0c0,2.73,1.49,3.95,3.06,3.95,1.45,0,3.07-1.07,3.07-3.95s-1.5-3.95-3.07-3.95S30.68,87.24,30.68,90.06Z" fill="#3e3a39"/>
  <path id="パス_122" data-name="パス 122" d="M44.45,85.33c2.47,0,2.94,1.55,2.94,2.51a2.375,2.375,0,0,1-1.82,2.46,1.9,1.9,0,0,1,1.61,2.03v.7c0,1.21.28,1.44.48,1.62v.14H46.29A2.7,2.7,0,0,1,46,93.24v-.8c0-.84-.42-1.67-1.92-1.67h-2.9v4.02H39.99V85.34h4.46Zm-3.27,1.03v3.37h3.17a1.712,1.712,0,0,0,1.85-1.75c0-.86-.5-1.62-1.93-1.62H41.19Z" fill="#3e3a39"/>
  <path id="パス_123" data-name="パス 123" d="M55.93,85.33v1.03H50.51v3.05h4.76v1.03H50.51v3.31h5.53v1.03h-6.7V85.33h6.6Z" fill="#3e3a39"/>
  <path id="パス_124" data-name="パス 124" d="M58.45,85.33l2.97,8.2,2.96-8.2h1.25l-3.54,9.45H60.74L57.2,85.33h1.25Z" fill="#3e3a39"/>
  <path id="パス_125" data-name="パス 125" d="M73.86,85.33v1.03H68.44v3.05H73.2v1.03H68.44v3.31h5.53v1.03h-6.7V85.33h6.6Z" fill="#3e3a39"/>
  <path id="パス_126" data-name="パス 126" d="M80.3,85.33c2.47,0,2.94,1.55,2.94,2.51a2.375,2.375,0,0,1-1.82,2.46,1.9,1.9,0,0,1,1.61,2.03v.7c0,1.21.28,1.44.48,1.62v.14H82.14a2.7,2.7,0,0,1-.29-1.55v-.8c0-.84-.42-1.67-1.92-1.67h-2.9v4.02H75.84V85.34H80.3Zm-3.27,1.03v3.37H80.2a1.712,1.712,0,0,0,1.85-1.75c0-.86-.5-1.62-1.93-1.62H77.04Z" fill="#3e3a39"/>
  <path id="パス_127" data-name="パス 127" d="M91.86,93.75v1.03H84.81c.08-1.93,1.16-2.76,2.91-3.93,2.35-1.6,2.88-1.94,2.88-3.05,0-1.24-1.09-1.69-2.1-1.69-2.22,0-2.31,1.94-2.35,2.6H84.94c.06-2.33,1.39-3.65,3.59-3.65,1.87,0,3.27,1.01,3.27,2.78,0,1.22-.53,2.02-2.48,3.25-2.21,1.39-2.64,1.87-2.93,2.65h5.47Z" fill="#3e3a39"/>
  <path id="パス_128" data-name="パス 128" d="M97.77,94.78H96.59V88H94.65v-.9a1.966,1.966,0,0,0,2.17-1.78h.95v9.45Z" fill="#3e3a39"/>
  <path id="パス_129" data-name="パス 129" d="M23.18,104.33v3.97h5.4v-3.97h1.19v9.45H28.58v-4.46h-5.4v4.46H22v-9.45Z" fill="#3e3a39"/>
  <path id="パス_130" data-name="パス 130" d="M40.22,109.23a7.284,7.284,0,0,1-1.44,2.69l1.75,1.87h-1.5l-1.04-1.14a4.961,4.961,0,0,1-3.35,1.4,2.6,2.6,0,0,1-2.89-2.65c0-1.94,1.39-2.57,2.37-3-.82-.86-1.22-1.3-1.22-2.17a2.268,2.268,0,0,1,2.55-2.16c1.93,0,2.61,1.22,2.61,2.2,0,1.44-1.15,2.01-2.29,2.42l2.33,2.54a5.741,5.741,0,0,0,.97-2h1.14Zm-5.41-.17c-1.06.43-1.92,1.04-1.92,2.28a1.66,1.66,0,0,0,1.9,1.71,4.011,4.011,0,0,0,2.59-1.09l-2.57-2.9Zm2.23-2.88a1.427,1.427,0,0,0-1.55-1.3,1.458,1.458,0,0,0-1.6,1.32c0,.62.79,1.4,1.21,1.81.92-.37,1.93-.83,1.93-1.84Z" fill="#3e3a39"/>
  <path id="パス_131" data-name="パス 131" d="M43.78,104.33l2.6,8.04,2.6-8.04h1.65v9.45H49.45v-8.06l-2.61,8.06H45.9l-2.6-8.06v8.06H42.11v-9.45h1.66Z" fill="#3e3a39"/>
  <path id="パス_132" data-name="パス 132" d="M23.21,123.33v8.42h4.77v1.03H22.02v-9.45h1.19Z" fill="#3e3a39"/>
  <path id="パス_133" data-name="パス 133" d="M34.14,123.33l3.49,9.45H36.39l-.77-2.13H31.19l-.76,2.13H29.18l3.49-9.45h1.45Zm-.72,1.12-1.87,5.24h3.74Z" fill="#3e3a39"/>
  <path id="パス_134" data-name="パス 134" d="M40.45,123.33v4.41l5.13-4.41h1.69l-4.2,3.65,4.45,5.8H45.96l-3.79-5.04-1.73,1.4v3.63H39.26v-9.45h1.18Z" fill="#3e3a39"/>
  <path id="パス_135" data-name="パス 135" d="M57.5,128.06c0,2.87-1.69,4.99-4.27,4.99s-4.26-2.1-4.26-4.99c0-2.71,1.55-4.99,4.26-4.99s4.27,2.33,4.27,4.99Zm-7.33,0c0,2.73,1.49,3.95,3.06,3.95,1.45,0,3.07-1.07,3.07-3.95s-1.5-3.95-3.07-3.95S50.17,125.24,50.17,128.06Z" fill="#3e3a39"/>
  <path id="パス_136" data-name="パス 136" d="M60.64,123.33v8.42h4.77v1.03H59.45v-9.45h1.19Z" fill="#3e3a39"/>
  <path id="パス_137" data-name="パス 137" d="M73.87,123.33v1.03H68.45v3.05h4.76v1.03H68.45v3.31h5.53v1.03h-6.7v-9.45h6.6Z" fill="#3e3a39"/>
  <path id="パス_138" data-name="パス 138" d="M28.88,142.33v1.03H25.7v8.42H24.51v-8.42H21.33v-1.03h7.54Z" fill="#3e3a39"/>
  <path id="パス_139" data-name="パス 139" d="M30.48,146.88c.05-1.56,1.4-2.24,2.88-2.24.96,0,2.82.35,2.82,2.28v3.71a1.584,1.584,0,0,0,.3,1.01v.16H35.3a1.762,1.762,0,0,1-.2-.85,3.418,3.418,0,0,1-2.53,1.12,2.214,2.214,0,0,1-2.48-2.12c0-1.58,1.42-1.86,3.72-2.23.85-.13,1.31-.2,1.31-.89,0-.28-.17-1.26-1.75-1.26-1,0-1.74.38-1.8,1.33H30.49Zm4.62,1.33a3.34,3.34,0,0,1-1.38.35c-2.02.3-2.49.55-2.49,1.34,0,.5.35,1.22,1.51,1.22a2.279,2.279,0,0,0,2.36-1.64Z" fill="#3e3a39"/>
  <path id="パス_140" data-name="パス 140" d="M39.3,144.89v.79a2.172,2.172,0,0,1,1.93-1.04,1.778,1.778,0,0,1,1.75,1.21,2.1,2.1,0,0,1,1.99-1.21,1.926,1.926,0,0,1,2,2.11v5.04H45.88v-4.83c0-.62-.2-1.4-1.18-1.4-1.43,0-1.57,1.46-1.57,1.82v4.41H42.05v-4.83c0-.24-.06-1.4-1.18-1.4a1.646,1.646,0,0,0-1.57,1.73v4.51H38.22v-6.9h1.07Z" fill="#3e3a39"/>
  <path id="パス_141" data-name="パス 141" d="M49.08,146.88c.05-1.56,1.4-2.24,2.88-2.24.96,0,2.82.35,2.82,2.28v3.71a1.584,1.584,0,0,0,.3,1.01v.16H53.9a1.762,1.762,0,0,1-.2-.85,3.418,3.418,0,0,1-2.53,1.12,2.214,2.214,0,0,1-2.48-2.12c0-1.58,1.42-1.86,3.72-2.23.85-.13,1.31-.2,1.31-.89,0-.28-.17-1.26-1.75-1.26-1,0-1.74.38-1.8,1.33H49.09Zm4.62,1.33a3.34,3.34,0,0,1-1.38.35c-2.02.3-2.49.55-2.49,1.34,0,.5.35,1.22,1.51,1.22a2.279,2.279,0,0,0,2.36-1.64v-1.27Z" fill="#3e3a39"/>
  <path id="パス_142" data-name="パス 142" d="M57.54,144.89l2.18,5.1,2.25-5.1h1.26l-3.41,7.3a2.157,2.157,0,0,1-2.14,1.2,2.107,2.107,0,0,1-.61-.05v-.89h.53c.43,0,1.08-.01,1.48-1.34l-2.81-6.22h1.26Z" fill="#3e3a39"/>
  <path id="パス_143" data-name="パス 143" d="M65.83,144.89v4.5a1.646,1.646,0,0,0,1.68,1.74,1.944,1.944,0,0,0,1.89-1.98v-4.26h1.08v6.9H69.41v-1.01a2.617,2.617,0,0,1-2.21,1.27,2.439,2.439,0,0,1-2.47-2.59v-4.57h1.09Z" fill="#3e3a39"/>
  <path id="パス_144" data-name="パス 144" d="M73.69,144.89v.95a2.492,2.492,0,0,1,2.48-1.2h.49v1.09h-.54a3.155,3.155,0,0,0-1.5.31,1.989,1.989,0,0,0-.92,1.66v4.09H72.61v-6.9h1.08Z" fill="#3e3a39"/>
  <path id="パス_145" data-name="パス 145" d="M78.29,146.88c.05-1.56,1.4-2.24,2.88-2.24.96,0,2.82.35,2.82,2.28v3.71a1.584,1.584,0,0,0,.3,1.01v.16H83.11a1.762,1.762,0,0,1-.2-.85,3.418,3.418,0,0,1-2.53,1.12,2.214,2.214,0,0,1-2.48-2.12c0-1.58,1.42-1.86,3.72-2.23.85-.13,1.31-.2,1.31-.89,0-.28-.17-1.26-1.75-1.26-1,0-1.74.38-1.8,1.33H78.3Zm4.62,1.33a3.34,3.34,0,0,1-1.38.35c-2.02.3-2.49.55-2.49,1.34,0,.5.35,1.22,1.51,1.22a2.279,2.279,0,0,0,2.36-1.64v-1.27Z" fill="#3e3a39"/>
  <path id="パス_146" data-name="パス 146" d="M94.76,142.33l3.49,9.45H97.01l-.77-2.13H91.81l-.76,2.13H89.8l3.49-9.45h1.45Zm-.72,1.12-1.87,5.24h3.74l-1.87-5.24Z" fill="#3e3a39"/>
  <path id="パス_147" data-name="パス 147" d="M101.48,142.97v1.92h1.5v.88h-1.5v4.58c0,.7.54.74,1.14.74h.36v.94c-.13.01-.28.02-.55.02-.71,0-2.04,0-2.04-1.68v-4.61H99.25v-.88h1.14v-1.92h1.09Z" fill="#3e3a39"/>
  <path id="パス_148" data-name="パス 148" d="M105.62,142.33v3.56a2.536,2.536,0,0,1,2.18-1.26,2.43,2.43,0,0,1,2.47,2.58v4.57h-1.08v-4.5a1.649,1.649,0,0,0-1.69-1.74,1.935,1.935,0,0,0-1.88,1.98v4.26h-1.09v-9.45Z" fill="#3e3a39"/>
  <path id="パス_149" data-name="パス 149" d="M113.59,142.33v9.45H112.5v-9.45Z" fill="#3e3a39"/>
  <path id="パス_150" data-name="パス 150" d="M121.8,149.65a2.809,2.809,0,0,1-3.06,2.4c-2.99,0-3.29-2.71-3.29-3.72,0-2.04,1.02-3.69,3.19-3.69s3.24,1.66,3.25,3.96h-5.31c.07,1.5.62,2.53,2.15,2.53a1.758,1.758,0,0,0,1.92-1.48h1.15Zm-1.04-1.92c-.2-1.37-.86-2.18-2.09-2.18s-1.88.82-2.06,2.18h4.15Z" fill="#3e3a39"/>
  <path id="パス_151" data-name="パス 151" d="M21.77,170.02v-.97h5.89l1.02-5.76H23.52v-.97h6.46l-1.2,6.73h3.23v.97H21.77Z" fill="#3e3a39"/>
  <path id="パス_152" data-name="パス 152" d="M33.82,169.83v-1.01H44.09v1.01Zm1.48-6.22v-1h7.3v1Z" fill="#3e3a39"/>
  <path id="パス_153" data-name="パス 153" d="M54.6,163.89c-1.14,2.69-2.58,6.1-6.98,7.87a4.234,4.234,0,0,0-.79-.78,10.452,10.452,0,0,0,6.58-7.24H49.43a16.265,16.265,0,0,1-3.06,3.44,8.148,8.148,0,0,0-.8-.74,12.785,12.785,0,0,0,4.16-5.57l1.01.43s.17.07.17.17c0,.13-.2.17-.29.17-.3.6-.44.85-.61,1.14H53.6a1.838,1.838,0,0,0,.79-.18l.6.56a4.334,4.334,0,0,0-.38.73Z" fill="#3e3a39"/>
  <path id="パス_154" data-name="パス 154" d="M58.4,169.92v.64H57.32v-8.17h8.42v8.17H64.66v-.64H58.4Zm6.26-.97v-5.59H58.4v5.59Z" fill="#3e3a39"/>
  <path id="パス_155" data-name="パス 155" d="M25.71,181.75a18.62,18.62,0,0,1-1.67,5.19,10.323,10.323,0,0,1-1.79,2.6,5.565,5.565,0,0,0-.98-.54,13.577,13.577,0,0,0,3.41-7.86l1.06.24c.16.04.23.07.23.17,0,.07-.05.16-.25.19Zm5.84,7.58a18.155,18.155,0,0,0-3.57-7.77l.83-.61a19.279,19.279,0,0,1,3.78,7.8,4.873,4.873,0,0,0-1.03.59Zm-.26-7.06a1.08,1.08,0,0,1,0-2.16,1.08,1.08,0,0,1,0,2.16Zm0-1.69a.612.612,0,0,0-.61.61.606.606,0,0,0,.61.61.619.619,0,0,0,.61-.61A.606.606,0,0,0,31.29,180.58Z" fill="#3e3a39"/>
  <path id="パス_156" data-name="パス 156" d="M36.99,185.27a13.594,13.594,0,0,0-3.07-1.67l.6-.85a16.313,16.313,0,0,1,3.12,1.62,3.674,3.674,0,0,0-.65.9Zm-1.44,4.94c-.01.12-.04.29-.19.29-.08,0-.14-.1-.19-.19l-.49-.94a17.03,17.03,0,0,0,8.83-6.78,5.96,5.96,0,0,0,.7.86,18.745,18.745,0,0,1-8.65,6.75Zm2.87-7.75a12.354,12.354,0,0,0-3.23-1.65l.6-.8a14.8,14.8,0,0,1,3.26,1.57,4.673,4.673,0,0,0-.64.89Z" fill="#3e3a39"/>
  <path id="パス_157" data-name="パス 157" d="M52.56,183.54v5.45c0,.73-.02,1.67-2.81,1.5a4.231,4.231,0,0,0-.41-1.14,7.291,7.291,0,0,0,1.32.13c.83,0,.83-.25.83-1.26v-3.71a13,13,0,0,1-5.35,4.56,2.571,2.571,0,0,0-.68-.86,11.594,11.594,0,0,0,5.51-4.67H45.76v-.98h5.73v-2.64l1.07.08c.16.01.24.02.24.13s-.13.17-.24.22v2.21h2.87v.98H52.56Z" fill="#3e3a39"/>
  <path id="パス_158" data-name="パス 158" d="M66.65,190a15.874,15.874,0,0,0-3.77-3.9,13.356,13.356,0,0,1-5.17,4.05,2.438,2.438,0,0,0-.67-.92,11.357,11.357,0,0,0,6.91-7.47H58.09v-.98h6.03a3.862,3.862,0,0,0,.82-.08l.59.55a3.86,3.86,0,0,0-.44.79,18.119,18.119,0,0,1-1.66,3.29,20.776,20.776,0,0,1,4.07,3.83,5.625,5.625,0,0,0-.84.85Z" fill="#3e3a39"/>
  <path id="パス_159" data-name="パス 159" d="M165.57,51.58h-1.93v-.85h1.93V48.87a16.38,16.38,0,0,1-1.22,1.12,3.056,3.056,0,0,0-.9-.53,8.813,8.813,0,0,0,2.63-2.89l.94.34c.06.02.2.07.2.19,0,.16-.17.16-.37.17a5.241,5.241,0,0,1-.42.62h7.69v.88h-1.36v1.97h1.87v.85h-1.87v2.06h1.49v.84H164.09v-.84h1.49V51.59Zm.8,3.56c.1.05.22.1.22.22,0,.16-.25.14-.35.14a11.636,11.636,0,0,1-1.7,2.29,2.658,2.658,0,0,0-.88-.59,7.676,7.676,0,0,0,1.89-2.45l.82.38Zm.08-4.41h1.21V48.76h-1.21Zm0,2.91h1.21V51.58h-1.21Zm1.45,1.37a13.8,13.8,0,0,1,.78,2.51,6.027,6.027,0,0,0-1.02.23,13.771,13.771,0,0,0-.65-2.53l.89-.2Zm.64-6.25v1.97h1.22V48.76Zm0,2.82v2.06h1.22V51.58Zm1.91,3.33a12.487,12.487,0,0,1,.94,2.39,5.932,5.932,0,0,0-.96.32,15.085,15.085,0,0,0-.89-2.45Zm.2-6.15v1.97h1.21V48.76Zm0,2.82v2.06h1.21V51.58Zm1.93,3.17a11.606,11.606,0,0,1,1.94,2.42,5.051,5.051,0,0,0-.88.56,13.091,13.091,0,0,0-1.83-2.47l.77-.52Z" fill="#3e3a39"/>
  <path id="パス_160" data-name="パス 160" d="M181.12,47.5a1.367,1.367,0,0,1-.29-.05,12.507,12.507,0,0,1-3.39,1.2v2.28h3.59v.95h-3.59v3h3.59v.92h-3.59v1.58h-1V47.53l.96.22a9.1,9.1,0,0,0,3.12-1.25l.66.66c.1.1.12.13.12.19,0,.08-.04.14-.18.14Zm2.89,8.78a2.836,2.836,0,0,0-.37-1.15,4.635,4.635,0,0,0,.85.08c.59,0,.86-.06.86-.61V48.3h-2.59v9.43h-1.01V47.37h4.62v7.44c0,1.16-.55,1.54-2.36,1.47Z" fill="#3e3a39"/>
  <path id="パス_161" data-name="パス 161" d="M190.77,52.81v3.3c1.45-.42,1.62-.47,3-.94a4.012,4.012,0,0,0-.16.97c-1.39.54-3.54,1.14-4.47,1.38-.04.16-.07.31-.24.31-.07,0-.14-.05-.2-.25l-.29-.9c.67-.13,1.01-.22,1.36-.31V48.11h3.24v-1.4l1.06.04c.11,0,.29.01.29.18,0,.12-.06.14-.29.22v.97h3.2v4.49l.71.52c.11.08.14.13.14.19,0,.1-.06.16-.2.16a1.026,1.026,0,0,1-.2-.02,14.629,14.629,0,0,1-1.92,1.88,8.871,8.871,0,0,0,3.36,1.55,2.942,2.942,0,0,0-.67.88,9.058,9.058,0,0,1-5.82-4.93h-1.88Zm0-2.81h5.5V48.93h-5.5Zm5.5.79h-5.5v1.17h5.5Zm-2.58,2.01a6.716,6.716,0,0,0,1.39,1.91,13.626,13.626,0,0,0,1.83-1.91h-3.23Z" fill="#3e3a39"/>
  <path id="パス_162" data-name="パス 162" d="M201.76,56.95v.77h-1V52.44h4.44v5.03h-.98v-.52Zm2.46-.86V53.34h-2.46v2.75Zm4.63-9.01v4.33h-5.97V47.08Zm-4.97.89v2.57h3.96V47.97Zm3.44,8.98v.77h-.98V52.44h4.59v5.28h-.97v-.77Zm2.64-.86V53.34h-2.64v2.75Z" fill="#3e3a39"/>
  <path id="パス_163" data-name="パス 163" d="M164.12,70.88c.05-1.56,1.4-2.24,2.88-2.24.96,0,2.82.35,2.82,2.28v3.71a1.584,1.584,0,0,0,.3,1.01v.16h-1.18a1.762,1.762,0,0,1-.2-.85,3.418,3.418,0,0,1-2.53,1.12,2.214,2.214,0,0,1-2.48-2.12c0-1.58,1.42-1.86,3.72-2.23.85-.13,1.31-.2,1.31-.89,0-.28-.17-1.26-1.75-1.26-1,0-1.74.38-1.8,1.33h-1.08Zm4.62,1.33a3.34,3.34,0,0,1-1.38.35c-2.02.3-2.49.55-2.49,1.34,0,.5.35,1.22,1.51,1.22a2.279,2.279,0,0,0,2.36-1.64V72.21Z" fill="#3e3a39"/>
  <path id="パス_164" data-name="パス 164" d="M173.2,75.78h-1.25V74.45h1.25Z" fill="#3e3a39"/>
  <path id="パス_165" data-name="パス 165" d="M181.07,66.33v9.45H180v-.92a2.442,2.442,0,0,1-2.17,1.19c-1.58,0-2.85-1.31-2.85-3.69,0-2.65,1.49-3.72,2.88-3.72a2.32,2.32,0,0,1,2.13,1.18V66.34h1.08Zm-4.95,6.01c0,2.5,1.37,2.78,1.93,2.78.53,0,1.94-.25,1.94-2.78s-1.31-2.79-1.94-2.79C177.57,69.55,176.12,69.77,176.12,72.34Z" fill="#3e3a39"/>
  <path id="パス_166" data-name="パス 166" d="M189.18,73.65a2.809,2.809,0,0,1-3.06,2.4c-2.99,0-3.29-2.71-3.29-3.72,0-2.04,1.02-3.69,3.19-3.69s3.24,1.66,3.25,3.96h-5.31c.07,1.5.62,2.53,2.15,2.53a1.758,1.758,0,0,0,1.92-1.48h1.15Zm-1.04-1.92c-.2-1.37-.86-2.18-2.09-2.18s-1.88.82-2.06,2.18Z" fill="#3e3a39"/>
  <path id="パス_167" data-name="パス 167" d="M192.11,68.89l.02.92a2.385,2.385,0,0,1,2.15-1.18c1.6,0,2.85,1.31,2.85,3.69,0,2.64-1.48,3.72-2.88,3.72a2.325,2.325,0,0,1-2.12-1.17v2.52h-1.09v-8.5h1.07Zm.02,3.45c0,2.46,1.33,2.78,1.93,2.78.44,0,1.93-.18,1.93-2.78s-1.33-2.79-1.93-2.79C193.58,69.55,192.13,69.75,192.13,72.34Z" fill="#3e3a39"/>
  <path id="パス_168" data-name="パス 168" d="M204.9,73.65a2.809,2.809,0,0,1-3.06,2.4c-2.99,0-3.29-2.71-3.29-3.72,0-2.04,1.02-3.69,3.19-3.69s3.24,1.66,3.25,3.96h-5.31c.07,1.5.62,2.53,2.15,2.53a1.758,1.758,0,0,0,1.92-1.48h1.15Zm-1.04-1.92c-.2-1.37-.86-2.18-2.09-2.18s-1.88.82-2.06,2.18Z" fill="#3e3a39"/>
  <path id="パス_169" data-name="パス 169" d="M212.86,73.24a2.864,2.864,0,0,1-3.14,2.81c-2.46,0-3.3-1.93-3.3-3.66s.78-3.75,3.35-3.75a2.774,2.774,0,0,1,3.03,2.76h-1.15a1.755,1.755,0,0,0-1.94-1.85c-1.75,0-2.15,1.45-2.15,2.75,0,1.69.6,2.83,2.19,2.83a1.747,1.747,0,0,0,1.92-1.88h1.19Z" fill="#3e3a39"/>
  <path id="パス_170" data-name="パス 170" d="M215.72,66.33v3.56a2.536,2.536,0,0,1,2.18-1.26,2.43,2.43,0,0,1,2.47,2.58v4.57h-1.08v-4.5a1.649,1.649,0,0,0-1.69-1.74,1.935,1.935,0,0,0-1.88,1.98v4.26h-1.09V66.33h1.09Z" fill="#3e3a39"/>
  <path id="パス_171" data-name="パス 171" d="M228.48,73.65a2.809,2.809,0,0,1-3.06,2.4c-2.99,0-3.29-2.71-3.29-3.72,0-2.04,1.02-3.69,3.19-3.69s3.24,1.66,3.25,3.96h-5.31c.07,1.5.62,2.53,2.15,2.53a1.758,1.758,0,0,0,1.92-1.48h1.15Zm-1.04-1.92c-.2-1.37-.86-2.18-2.09-2.18s-1.88.82-2.06,2.18Z" fill="#3e3a39"/>
  <path id="パス_172" data-name="パス 172" d="M170.54,91.82a3.065,3.065,0,0,1-3.41,3.23c-2.43,0-3.41-1.34-3.41-3.49V91h1.18v.47c0,.78,0,2.54,2.09,2.54a2.1,2.1,0,0,0,2.36-2.22V85.34h1.19v6.49Z" fill="#3e3a39"/>
  <path id="パス_173" data-name="パス 173" d="M173.82,94.78h-1.19V85.33h1.19Z" fill="#3e3a39"/>
  <path id="パス_174" data-name="パス 174" d="M177.27,85.33l5.4,7.68V85.33h1.19v9.45h-1.19l-5.4-7.68v7.68h-1.18V85.33Z" fill="#3e3a39"/>
  <path id="パス_175" data-name="パス 175" d="M191.33,88c-.07-1.34-.78-1.88-2.06-1.88-.24,0-2.01,0-2.01,1.47,0,.98.66,1.24,2.53,1.93,1.92.72,3.01,1.12,3.01,2.72,0,1.2-.86,2.81-3.36,2.81-1.7,0-3.61-.79-3.67-3.11h1.26c.01,1.36.94,2.06,2.33,2.06s2.24-.76,2.24-1.66c0-.98-.79-1.28-2.3-1.81-2.07-.73-3.24-1.15-3.24-2.81s1.34-2.66,3.2-2.66a2.956,2.956,0,0,1,3.3,2.93h-1.22Z" fill="#3e3a39"/>
  <path id="パス_176" data-name="パス 176" d="M168.43,104.33l3.49,9.45h-1.24l-.77-2.13h-4.43l-.76,2.13h-1.25l3.49-9.45h1.45Zm-.72,1.12-1.87,5.24h3.74l-1.87-5.24Z" fill="#3e3a39"/>
  <path id="パス_177" data-name="パス 177" d="M174.14,104.33l1.69,8.32,1.68-8.32h1.45l1.68,8.32,1.69-8.32h1.25l-2.15,9.45h-1.54l-1.67-8.2-1.67,8.2h-1.54l-2.13-9.45h1.25Z" fill="#3e3a39"/>
  <path id="パス_178" data-name="パス 178" d="M191.77,104.33v1.03h-5.42v3.05h4.76v1.03h-4.76v3.31h5.53v1.03h-6.7v-9.45h6.6Z" fill="#3e3a39"/>
  <path id="パス_179" data-name="パス 179" d="M198.88,107c-.07-1.34-.78-1.88-2.06-1.88-.24,0-2.01,0-2.01,1.47,0,.98.66,1.24,2.53,1.93,1.92.72,3.01,1.12,3.01,2.72,0,1.2-.86,2.81-3.36,2.81-1.7,0-3.61-.79-3.67-3.11h1.26c.01,1.36.94,2.06,2.33,2.06s2.24-.76,2.24-1.66c0-.98-.79-1.28-2.3-1.81-2.07-.73-3.24-1.15-3.24-2.81s1.34-2.66,3.2-2.66a2.956,2.956,0,0,1,3.3,2.93h-1.22Z" fill="#3e3a39"/>
  <path id="パス_180" data-name="パス 180" d="M210.38,109.06c0,2.87-1.69,4.99-4.27,4.99s-4.26-2.1-4.26-4.99c0-2.71,1.55-4.99,4.26-4.99S210.38,106.4,210.38,109.06Zm-7.33,0c0,2.73,1.49,3.95,3.06,3.95,1.45,0,3.07-1.07,3.07-3.95s-1.5-3.95-3.07-3.95S203.05,106.24,203.05,109.06Z" fill="#3e3a39"/>
  <path id="パス_181" data-name="パス 181" d="M213.93,104.33l2.6,8.04,2.6-8.04h1.65v9.45H219.6v-8.06l-2.61,8.06h-.94l-2.6-8.06v8.06h-1.19v-9.45h1.66Z" fill="#3e3a39"/>
  <path id="パス_182" data-name="パス 182" d="M229.63,104.33v1.03h-5.42v3.05h4.76v1.03h-4.76v3.31h5.53v1.03h-6.7v-9.45h6.6Z" fill="#3e3a39"/>
  <path id="パス_183" data-name="パス 183" d="M241.03,107c-.07-1.34-.78-1.88-2.06-1.88-.24,0-2.01,0-2.01,1.47,0,.98.66,1.24,2.53,1.93,1.92.72,3.01,1.12,3.01,2.72,0,1.2-.86,2.81-3.36,2.81-1.7,0-3.61-.79-3.67-3.11h1.26c.01,1.36.94,2.06,2.33,2.06s2.24-.76,2.24-1.66c0-.98-.79-1.28-2.3-1.81-2.07-.73-3.24-1.15-3.24-2.81s1.34-2.66,3.2-2.66a2.956,2.956,0,0,1,3.3,2.93h-1.22Z" fill="#3e3a39"/>
  <path id="パス_184" data-name="パス 184" d="M251.27,104.33v1.03h-3.18v8.42H246.9v-8.42h-3.18v-1.03h7.54Z" fill="#3e3a39"/>
  <path id="パス_185" data-name="パス 185" d="M261.06,109.06c0,2.87-1.69,4.99-4.27,4.99s-4.26-2.1-4.26-4.99c0-2.71,1.55-4.99,4.26-4.99S261.06,106.4,261.06,109.06Zm-7.33,0c0,2.73,1.49,3.95,3.06,3.95,1.45,0,3.07-1.07,3.07-3.95s-1.5-3.95-3.07-3.95-3.06,1.13-3.06,3.95Z" fill="#3e3a39"/>
  <path id="パス_186" data-name="パス 186" d="M267.49,104.33c2.47,0,2.94,1.55,2.94,2.51a2.375,2.375,0,0,1-1.82,2.46,1.9,1.9,0,0,1,1.61,2.03v.7c0,1.21.28,1.44.48,1.62v.14h-1.37a2.7,2.7,0,0,1-.29-1.55v-.8c0-.84-.42-1.67-1.92-1.67h-2.9v4.02h-1.19v-9.45h4.46Zm-3.27,1.03v3.37h3.17a1.712,1.712,0,0,0,1.85-1.75c0-.86-.5-1.62-1.93-1.62h-3.08Z" fill="#3e3a39"/>
  <path id="パス_187" data-name="パス 187" d="M278.97,104.33v1.03h-5.42v3.05h4.76v1.03h-4.76v3.31h5.53v1.03h-6.7v-9.45h6.6Z" fill="#3e3a39"/>
  <path id="パス_188" data-name="パス 188" d="M170.15,130.24a2.864,2.864,0,0,1-3.14,2.81c-2.46,0-3.3-1.93-3.3-3.66s.78-3.75,3.35-3.75a2.774,2.774,0,0,1,3.03,2.76h-1.15a1.755,1.755,0,0,0-1.94-1.85c-1.75,0-2.15,1.45-2.15,2.75,0,1.69.6,2.83,2.19,2.83a1.747,1.747,0,0,0,1.92-1.88h1.19Z" fill="#3e3a39"/>
  <path id="パス_189" data-name="パス 189" d="M178.01,129.34c0,2.78-1.73,3.71-3.21,3.71-1.75,0-3.23-1.19-3.23-3.65,0-3.26,2.16-3.77,3.23-3.77,1.47,0,3.21.9,3.21,3.71Zm-5.3,0c0,1.15.54,2.78,2.09,2.78s2.08-1.66,2.08-2.78-.53-2.79-2.08-2.79S172.71,128.19,172.71,129.34Z" fill="#3e3a39"/>
  <path id="パス_190" data-name="パス 190" d="M180.51,130.71a1.509,1.509,0,0,0,1.67,1.42c.23,0,1.74,0,1.74-1.13,0-.73-.41-.86-1.85-1.29-1.68-.5-2.53-.76-2.53-2.08,0-1.56,1.58-1.99,2.63-1.99,2.48,0,2.67,1.54,2.76,2.17H183.8c-.04-1.22-1.27-1.26-1.58-1.26-1.01,0-1.54.42-1.54.97,0,.59.17.77,1.98,1.32,1.55.48,2.4.84,2.4,2.04,0,1.56-1.39,2.17-2.76,2.17-2.58,0-2.84-1.68-2.93-2.34Z" fill="#3e3a39"/>
  <path id="パス_191" data-name="パス 191" d="M187.77,125.89v.79a2.172,2.172,0,0,1,1.93-1.04,1.778,1.778,0,0,1,1.75,1.21,2.1,2.1,0,0,1,1.99-1.21,1.926,1.926,0,0,1,2,2.11v5.04h-1.09v-4.83c0-.62-.2-1.4-1.18-1.4-1.43,0-1.57,1.46-1.57,1.82v4.41h-1.08v-4.83c0-.24-.06-1.4-1.18-1.4a1.646,1.646,0,0,0-1.57,1.73v4.51h-1.08v-6.9h1.07Z" fill="#3e3a39"/>
  <path id="パス_192" data-name="パス 192" d="M203.49,130.65a2.809,2.809,0,0,1-3.06,2.4c-2.99,0-3.29-2.71-3.29-3.72,0-2.04,1.02-3.69,3.19-3.69s3.24,1.66,3.25,3.96h-5.31c.07,1.5.62,2.53,2.15,2.53a1.758,1.758,0,0,0,1.92-1.48Zm-1.04-1.92c-.2-1.37-.86-2.18-2.09-2.18s-1.88.82-2.06,2.18Z" fill="#3e3a39"/>
  <path id="パス_193" data-name="パス 193" d="M207.04,123.97v1.92h1.5v.88h-1.5v4.58c0,.7.54.74,1.14.74h.36v.94c-.13.01-.28.02-.55.02-.71,0-2.04,0-2.04-1.68v-4.61h-1.14v-.88h1.14v-1.92h1.09Z" fill="#3e3a39"/>
  <path id="パス_194" data-name="パス 194" d="M216.08,130.65a2.809,2.809,0,0,1-3.06,2.4c-2.99,0-3.29-2.71-3.29-3.72,0-2.04,1.02-3.69,3.19-3.69s3.24,1.66,3.25,3.96h-5.31c.07,1.5.62,2.53,2.15,2.53a1.758,1.758,0,0,0,1.92-1.48Zm-1.04-1.92c-.2-1.37-.86-2.18-2.09-2.18s-1.88.82-2.06,2.18Z" fill="#3e3a39"/>
  <path id="パス_195" data-name="パス 195" d="M219.04,125.89v.95a2.492,2.492,0,0,1,2.48-1.2h.49v1.09h-.54a3.155,3.155,0,0,0-1.5.31,1.989,1.989,0,0,0-.92,1.66v4.09h-1.09v-6.9h1.08Z" fill="#3e3a39"/>
  <path id="パス_196" data-name="パス 196" d="M224.86,124.68H223.6v-1.34h1.26Zm-.08,8.11h-1.09v-6.9h1.09Z" fill="#3e3a39"/>
  <path id="パス_197" data-name="パス 197" d="M227.04,127.88c.05-1.56,1.4-2.24,2.88-2.24.96,0,2.82.35,2.82,2.28v3.71a1.584,1.584,0,0,0,.3,1.01v.16h-1.18a1.762,1.762,0,0,1-.2-.85,3.418,3.418,0,0,1-2.53,1.12,2.214,2.214,0,0,1-2.48-2.12c0-1.58,1.42-1.86,3.72-2.23.85-.13,1.31-.2,1.31-.89,0-.28-.17-1.26-1.75-1.26-1,0-1.74.38-1.8,1.33h-1.08Zm4.62,1.33a3.34,3.34,0,0,1-1.38.35c-2.02.3-2.49.55-2.49,1.34,0,.5.35,1.22,1.51,1.22a2.279,2.279,0,0,0,2.36-1.64v-1.27Z" fill="#3e3a39"/>
  <path id="パス_198" data-name="パス 198" d="M170.37,145.61a2.429,2.429,0,0,0-2.47-2.49c-1.94,0-2.88,1.98-2.88,4.04,0,2.66,1.37,3.85,2.87,3.85.68,0,2.3-.26,2.49-2.63h1.22c-.12.74-.56,3.67-3.66,3.67-2.9,0-4.13-2.39-4.13-4.89s1.21-5.08,4.04-5.08c.4,0,3.21,0,3.68,3.54h-1.18Z" fill="#3e3a39"/>
  <path id="パス_199" data-name="パス 199" d="M181.72,147.06c0,2.87-1.69,4.99-4.27,4.99s-4.26-2.1-4.26-4.99c0-2.71,1.55-4.99,4.26-4.99S181.72,144.4,181.72,147.06Zm-7.33,0c0,2.73,1.49,3.95,3.06,3.95,1.45,0,3.07-1.07,3.07-3.95s-1.5-3.95-3.07-3.95S174.39,144.24,174.39,147.06Z" fill="#3e3a39"/>
  <path id="パス_200" data-name="パス 200" d="M184.85,142.33v8.42h4.77v1.03h-5.96v-9.45Z" fill="#3e3a39"/>
  <path id="パス_201" data-name="パス 201" d="M199.66,147.06c0,2.87-1.69,4.99-4.27,4.99s-4.26-2.1-4.26-4.99c0-2.71,1.55-4.99,4.26-4.99S199.66,144.4,199.66,147.06Zm-7.33,0c0,2.73,1.49,3.95,3.06,3.95,1.45,0,3.07-1.07,3.07-3.95s-1.5-3.95-3.07-3.95S192.33,144.24,192.33,147.06Z" fill="#3e3a39"/>
  <path id="パス_202" data-name="パス 202" d="M206.75,145c-.07-1.34-.78-1.88-2.06-1.88-.24,0-2.01,0-2.01,1.47,0,.98.66,1.24,2.53,1.93,1.92.72,3.01,1.12,3.01,2.72,0,1.2-.86,2.81-3.36,2.81-1.7,0-3.61-.79-3.67-3.11h1.26c.01,1.36.94,2.06,2.33,2.06s2.24-.76,2.24-1.66c0-.98-.79-1.28-2.3-1.81-2.08-.73-3.24-1.15-3.24-2.81s1.34-2.66,3.2-2.66a2.956,2.956,0,0,1,3.3,2.93h-1.22Z" fill="#3e3a39"/>
  <path id="パス_203" data-name="パス 203" d="M215.27,145c-.07-1.34-.78-1.88-2.06-1.88-.24,0-2.01,0-2.01,1.47,0,.98.66,1.24,2.53,1.93,1.92.72,3.01,1.12,3.01,2.72,0,1.2-.86,2.81-3.36,2.81-1.7,0-3.61-.79-3.67-3.11h1.26c.01,1.36.94,2.06,2.33,2.06s2.24-.76,2.24-1.66c0-.98-.79-1.28-2.3-1.81-2.08-.73-3.24-1.15-3.24-2.81s1.34-2.66,3.2-2.66a2.956,2.956,0,0,1,3.3,2.93h-1.22Z" fill="#3e3a39"/>
  <path id="パス_204" data-name="パス 204" d="M225.2,142.33v1.03h-5.42v3.05h4.76v1.03h-4.76v3.31h5.53v1.03h-6.7v-9.45h6.6Z" fill="#3e3a39"/>
  <path id="パス_205" data-name="パス 205" d="M235.29,147.06c0,2.87-1.69,4.99-4.27,4.99s-4.26-2.1-4.26-4.99c0-2.71,1.55-4.99,4.26-4.99S235.29,144.4,235.29,147.06Zm-7.33,0c0,2.73,1.49,3.95,3.06,3.95,1.45,0,3.07-1.07,3.07-3.95s-1.5-3.95-3.07-3.95S227.96,144.24,227.96,147.06Z" fill="#3e3a39"/>
  <path id="パス_206" data-name="パス 206" d="M245.8,142.33a2.843,2.843,0,0,1,3.17,2.93c0,2.06-1.33,2.9-3.17,2.9h-3.05v3.62h-1.19v-9.45h4.23Zm-3.05,1.03v3.78h2.95a1.855,1.855,0,0,0,2.04-1.87,1.884,1.884,0,0,0-2.04-1.91Z" fill="#3e3a39"/>
  <path id="パス_207" data-name="パス 207" d="M252.11,143.68h-1.26v-1.34h1.26Zm-.08,8.11h-1.09v-6.9h1.09Z" fill="#3e3a39"/>
  <path id="パス_208" data-name="パス 208" d="M259.45,144.89v.88l-4.27,5.16h4.4v.86h-5.84v-.86l4.27-5.16h-4.05v-.88Z" fill="#3e3a39"/>
  <path id="パス_209" data-name="パス 209" d="M266.42,144.89v.88l-4.27,5.16h4.4v.86h-5.84v-.86l4.27-5.16h-4.05v-.88Z" fill="#3e3a39"/>
  <path id="パス_210" data-name="パス 210" d="M268.24,146.88c.05-1.56,1.4-2.24,2.88-2.24.96,0,2.82.35,2.82,2.28v3.71a1.584,1.584,0,0,0,.3,1.01v.16h-1.18a1.763,1.763,0,0,1-.2-.85,3.418,3.418,0,0,1-2.53,1.12,2.214,2.214,0,0,1-2.48-2.12c0-1.58,1.42-1.86,3.72-2.23.85-.13,1.31-.2,1.31-.89,0-.28-.17-1.26-1.75-1.26-1,0-1.74.38-1.8,1.33h-1.08Zm4.62,1.33a3.34,3.34,0,0,1-1.38.35c-2.02.3-2.49.55-2.49,1.34,0,.5.35,1.22,1.51,1.22a2.279,2.279,0,0,0,2.36-1.64Z" fill="#3e3a39"/>
  <path id="パス_211" data-name="パス 211" d="M286.33,149.65a2.809,2.809,0,0,1-3.06,2.4c-2.99,0-3.29-2.71-3.29-3.72,0-2.04,1.02-3.69,3.19-3.69s3.24,1.66,3.25,3.96h-5.31c.07,1.5.62,2.53,2.15,2.53a1.758,1.758,0,0,0,1.92-1.48Zm-1.04-1.92c-.2-1.37-.86-2.18-2.09-2.18s-1.88.82-2.06,2.18Z" fill="#3e3a39"/>
  <path id="パス_212" data-name="パス 212" d="M296.87,142.33a2.843,2.843,0,0,1,3.17,2.93c0,2.06-1.33,2.9-3.17,2.9h-3.05v3.62h-1.19v-9.45h4.23Zm-3.05,1.03v3.78h2.95a1.855,1.855,0,0,0,2.04-1.87,1.884,1.884,0,0,0-2.04-1.91Z" fill="#3e3a39"/>
  <path id="パス_213" data-name="パス 213" d="M301.96,146.88c.05-1.56,1.4-2.24,2.88-2.24.96,0,2.82.35,2.82,2.28v3.71a1.584,1.584,0,0,0,.3,1.01v.16h-1.18a1.763,1.763,0,0,1-.2-.85,3.418,3.418,0,0,1-2.53,1.12,2.214,2.214,0,0,1-2.48-2.12c0-1.58,1.41-1.86,3.72-2.23.85-.13,1.31-.2,1.31-.89,0-.28-.17-1.26-1.75-1.26-1,0-1.74.38-1.8,1.33h-1.08Zm4.62,1.33a3.34,3.34,0,0,1-1.38.35c-2.01.3-2.5.55-2.5,1.34,0,.5.35,1.22,1.51,1.22a2.279,2.279,0,0,0,2.36-1.64v-1.27Z" fill="#3e3a39"/>
  <path id="パス_214" data-name="パス 214" d="M310.49,149.71a1.509,1.509,0,0,0,1.67,1.42c.23,0,1.74,0,1.74-1.13,0-.73-.41-.86-1.85-1.29-1.68-.5-2.53-.76-2.53-2.08,0-1.56,1.58-1.99,2.63-1.99,2.48,0,2.68,1.54,2.76,2.17h-1.13c-.04-1.22-1.27-1.26-1.58-1.26-1.01,0-1.54.42-1.54.97,0,.59.17.77,1.98,1.32,1.55.48,2.4.84,2.4,2.04,0,1.56-1.39,2.17-2.76,2.17-2.58,0-2.84-1.68-2.93-2.34h1.14Z" fill="#3e3a39"/>
  <path id="パス_215" data-name="パス 215" d="M318.42,142.97v1.92h1.5v.88h-1.5v4.58c0,.7.54.74,1.14.74h.36v.94c-.13.01-.28.02-.55.02-.71,0-2.04,0-2.04-1.68v-4.61h-1.14v-.88h1.14v-1.92h1.09Z" fill="#3e3a39"/>
  <path id="パス_216" data-name="パス 216" d="M321.53,146.88c.05-1.56,1.4-2.24,2.88-2.24.96,0,2.82.35,2.82,2.28v3.71a1.584,1.584,0,0,0,.3,1.01v.16h-1.17a1.763,1.763,0,0,1-.2-.85,3.418,3.418,0,0,1-2.53,1.12,2.214,2.214,0,0,1-2.48-2.12c0-1.58,1.41-1.86,3.72-2.23.85-.13,1.31-.2,1.31-.89,0-.28-.17-1.26-1.75-1.26-1,0-1.74.38-1.8,1.33h-1.08Zm4.62,1.33a3.34,3.34,0,0,1-1.38.35c-2.01.3-2.49.55-2.49,1.34,0,.5.35,1.22,1.51,1.22a2.279,2.279,0,0,0,2.36-1.64Z" fill="#3e3a39"/>
  <path id="パス_217" data-name="パス 217" d="M170.37,164.6a1.1,1.1,0,0,0-1.14.23,1.679,1.679,0,0,1,.16.7c0,1.17-1.02,1.89-2.58,1.89a7.587,7.587,0,0,1-1.19-.13c-.14.05-.54.23-.54.5,0,.32.35.42,1.8.55a5.39,5.39,0,0,1,2.66.59,1.646,1.646,0,0,1,.7,1.38c0,2.09-2.95,2.09-3.37,2.09-1.45,0-3.24-.34-3.24-1.94a1.672,1.672,0,0,1,1.14-1.63c-.32-.14-.78-.36-.78-.86,0-.29.14-.62.94-.95a1.643,1.643,0,0,1-.84-1.5c0-1.16,1.01-1.87,2.65-1.87a3.043,3.043,0,0,1,2.04.56,1.484,1.484,0,0,1,1.25-.64.847.847,0,0,1,.35.06v.97Zm-5.64,5.71c0,.77.64,1.22,2.22,1.22.82,0,2.12-.14,2.12-1.17a.94.94,0,0,0-.68-.94c-.4-.12-1.98-.26-2.49-.31-.54.17-1.16.37-1.16,1.2Zm.5-4.79c0,1.05,1.31,1.08,1.5,1.09.16,0,1.51-.01,1.51-1.09,0-.67-.55-1.08-1.5-1.08C165.72,164.44,165.23,164.88,165.23,165.52Z" fill="#3e3a39"/>
  <path id="パス_218" data-name="パス 218" d="M177.91,168.65a2.809,2.809,0,0,1-3.06,2.4c-2.99,0-3.29-2.71-3.29-3.72,0-2.04,1.02-3.69,3.19-3.69s3.24,1.66,3.25,3.96h-5.31c.07,1.5.62,2.53,2.15,2.53a1.758,1.758,0,0,0,1.92-1.48Zm-1.04-1.92c-.2-1.37-.86-2.18-2.09-2.18s-1.88.82-2.06,2.18Z" fill="#3e3a39"/>
  <path id="パス_219" data-name="パス 219" d="M180.98,161.33v9.45h-1.09v-9.45Z" fill="#3e3a39"/>
  <path id="パス_220" data-name="パス 220" d="M183.24,165.88c.05-1.56,1.4-2.24,2.88-2.24.96,0,2.82.35,2.82,2.28v3.71a1.584,1.584,0,0,0,.3,1.01v.16h-1.18a1.762,1.762,0,0,1-.2-.85,3.418,3.418,0,0,1-2.53,1.12,2.214,2.214,0,0,1-2.48-2.12c0-1.58,1.42-1.86,3.72-2.23.85-.13,1.31-.2,1.31-.89,0-.28-.17-1.26-1.75-1.26-1,0-1.74.38-1.8,1.33h-1.08Zm4.62,1.33a3.34,3.34,0,0,1-1.38.35c-2.02.3-2.49.55-2.49,1.34,0,.5.35,1.22,1.51,1.22a2.279,2.279,0,0,0,2.36-1.64v-1.27Z" fill="#3e3a39"/>
  <path id="パス_221" data-name="パス 221" d="M192.74,161.97v1.92h1.5v.88h-1.5v4.58c0,.7.54.74,1.14.74h.36v.94c-.13.01-.28.02-.55.02-.71,0-2.04,0-2.04-1.68v-4.61h-1.14v-.88h1.14v-1.92h1.09Z" fill="#3e3a39"/>
  <path id="パス_222" data-name="パス 222" d="M201.88,167.34c0,2.78-1.73,3.71-3.21,3.71-1.75,0-3.23-1.19-3.23-3.65,0-3.26,2.16-3.77,3.23-3.77,1.48,0,3.21.9,3.21,3.71Zm-5.3,0c0,1.15.54,2.78,2.09,2.78s2.08-1.66,2.08-2.78-.53-2.79-2.08-2.79S196.58,166.19,196.58,167.34Z" fill="#3e3a39"/>
  <path id="パス_223" data-name="パス 223" d="M209.01,163.89l.02.92a2.385,2.385,0,0,1,2.15-1.18c1.6,0,2.85,1.31,2.85,3.69,0,2.64-1.48,3.72-2.88,3.72a2.325,2.325,0,0,1-2.12-1.17v2.52h-1.09v-8.5h1.07Zm.02,3.45c0,2.46,1.33,2.78,1.93,2.78.44,0,1.93-.18,1.93-2.78s-1.33-2.79-1.93-2.79C210.48,164.55,209.03,164.75,209.03,167.34Z" fill="#3e3a39"/>
  <path id="パス_224" data-name="パス 224" d="M217.08,162.68h-1.26v-1.34h1.26Zm-.08,8.11h-1.09v-6.9H217Z" fill="#3e3a39"/>
  <path id="パス_225" data-name="パス 225" d="M224.95,172.39h-1.08v-2.52a2.4,2.4,0,0,1-2.13,1.17c-1.36,0-2.88-1.08-2.88-3.72,0-2.39,1.27-3.69,2.85-3.69a2.385,2.385,0,0,1,2.16,1.18v-.92h1.08v8.5ZM220,167.34c0,2.52,1.39,2.78,1.93,2.78.49,0,1.94-.22,1.94-2.78,0-2.42-1.28-2.79-1.94-2.79C221.5,164.55,220,164.73,220,167.34Z" fill="#3e3a39"/>
  <path id="パス_226" data-name="パス 226" d="M228.16,163.89v4.5a1.646,1.646,0,0,0,1.68,1.74,1.944,1.944,0,0,0,1.89-1.98v-4.26h1.08v6.9h-1.07v-1.01a2.617,2.617,0,0,1-2.21,1.27,2.439,2.439,0,0,1-2.47-2.59v-4.57h1.09Z" fill="#3e3a39"/>
  <path id="パス_227" data-name="パス 227" d="M240.93,168.65a2.809,2.809,0,0,1-3.06,2.4c-2.99,0-3.29-2.71-3.29-3.72,0-2.04,1.02-3.69,3.19-3.69s3.24,1.66,3.25,3.96h-5.31c.07,1.5.62,2.53,2.15,2.53a1.758,1.758,0,0,0,1.92-1.48Zm-1.04-1.92c-.2-1.37-.86-2.18-2.09-2.18s-1.88.82-2.06,2.18Z" fill="#3e3a39"/>
  <path id="パス_228" data-name="パス 228" d="M253.18,168.24a2.864,2.864,0,0,1-3.14,2.81c-2.46,0-3.3-1.93-3.3-3.66s.78-3.75,3.35-3.75a2.774,2.774,0,0,1,3.03,2.76h-1.15a1.755,1.755,0,0,0-1.94-1.85c-1.75,0-2.15,1.45-2.15,2.75,0,1.69.6,2.83,2.19,2.83a1.747,1.747,0,0,0,1.92-1.88h1.19Z" fill="#3e3a39"/>
  <path id="パス_229" data-name="パス 229" d="M255.01,165.88c.05-1.56,1.4-2.24,2.88-2.24.96,0,2.82.35,2.82,2.28v3.71a1.584,1.584,0,0,0,.3,1.01v.16h-1.18a1.763,1.763,0,0,1-.2-.85,3.418,3.418,0,0,1-2.53,1.12,2.214,2.214,0,0,1-2.48-2.12c0-1.58,1.42-1.86,3.72-2.23.85-.13,1.31-.2,1.31-.89,0-.28-.17-1.26-1.75-1.26-1,0-1.74.38-1.8,1.33h-1.08Zm4.62,1.33a3.34,3.34,0,0,1-1.38.35c-2.02.3-2.49.55-2.49,1.34,0,.5.35,1.22,1.51,1.22a2.279,2.279,0,0,0,2.36-1.64v-1.27Z" fill="#3e3a39"/>
  <path id="パス_230" data-name="パス 230" d="M263.42,163.89v-.97a1.636,1.636,0,0,1,1.87-1.85h.72v.92h-.64c-.72,0-.86.37-.86.91v.98h1.5v.88h-1.5v6.02h-1.09v-6.02h-1.16v-.88h1.16Z" fill="#3e3a39"/>
  <path id="パス_231" data-name="パス 231" d="M273.54,168.65a2.809,2.809,0,0,1-3.06,2.4c-2.99,0-3.29-2.71-3.29-3.72,0-2.04,1.02-3.69,3.19-3.69s3.24,1.66,3.25,3.96h-5.31c.07,1.5.62,2.53,2.15,2.53a1.758,1.758,0,0,0,1.92-1.48Zm-1.04-1.92c-.2-1.37-.86-2.18-2.09-2.18s-1.88.82-2.06,2.18Z" fill="#3e3a39"/>
  <path id="パス_232" data-name="パス 232" d="M167.06,180.37a16.442,16.442,0,0,1-1.21,2.42c.11.02.41.11.41.19,0,.12-.14.17-.3.22v7.48H165v-6.62c-.37.5-.73.91-1.01,1.25a2.97,2.97,0,0,0-.66-.78,13.3,13.3,0,0,0,2.97-4.89l.95.38a.244.244,0,0,1,.17.19c0,.12-.16.14-.36.16Zm5.36,9.92h-2.61c-1.61,0-1.85-.66-1.85-1.64v-4.14l-1.39.29-.19-.92,1.58-.34v-3.06l.94.08c.18.01.3.06.3.14s-.06.13-.26.23v2.4l1.5-.31V179.7l.96.08c.14.01.29.07.29.16s-.06.12-.3.2v2.67l1.88-.4.56.34V186c0,1.13,0,1.88-1.74,1.87a2.546,2.546,0,0,0-.37-1.01c.23.02.41.05.64.05.37,0,.5-.08.5-.71v-2.75l-1.48.31v4.04h-.95v-3.84l-1.5.32v4.25c0,.66.13.82,1.19.82h2.35c.82,0,1.2-.06,1.51-1.41a1.949,1.949,0,0,0,.83.48c-.48,1.86-1.3,1.86-2.39,1.86Z" fill="#3e3a39"/>
  <line id="線_22" data-name="線 22" x2="315.42" transform="translate(19.37 34.36)" fill="none" stroke="#0084c8" stroke-miterlimit="10" stroke-width="0.5"/>
  <path id="パス_233" data-name="パス 233" d="M26.86,19.64a5.942,5.942,0,0,1-4.46,6.21,4.123,4.123,0,0,0-.83-.92c3.68-1.03,4.16-3.24,4.16-5.29H20.57V18.6H31.48v1.04Zm-4.47-3.5V15.1h7.32v1.04Z" fill="#3e3a39"/>
  <path id="パス_234" data-name="パス 234" d="M40.94,18.67a7.48,7.48,0,0,1-4.65,7.27,3.1,3.1,0,0,0-.87-.9,6.288,6.288,0,0,0,4.36-6.37H34.31V17.62h5.47V14.5l1.17.04c.13,0,.29.01.29.16s-.2.21-.29.25v2.68h4.43v1.05H40.95Z" fill="#3e3a39"/>
  <path id="パス_235" data-name="パス 235" d="M51.9,18.29a14.543,14.543,0,0,0-3.69-2.48l.68-.96a17.092,17.092,0,0,1,3.72,2.46,6.9,6.9,0,0,0-.7.99Zm-2.54,7.02c-.01.22-.04.3-.18.3a.286.286,0,0,1-.21-.16l-.7-1.17a15.364,15.364,0,0,0,9.93-7.14,6.4,6.4,0,0,0,.72,1.01,17.522,17.522,0,0,1-9.56,7.15Z" fill="#3e3a39"/>
  <path id="パス_236" data-name="パス 236" d="M68.4,22.22a18.276,18.276,0,0,0-4.81-3.3v6.84H62.42V14.51l1.18.09c.17.01.25.05.25.16,0,.14-.17.18-.26.2v3.7l.51-.7a20.929,20.929,0,0,1,4.99,3.31A6.04,6.04,0,0,0,68.4,22.22Z" fill="#3e3a39"/>
  <path id="パス_237" data-name="パス 237" d="M76.65,15.82c.08.04.2.13.2.22,0,.14-.18.13-.38.12-.25.33-1.33,1.82-1.55,2.11-.56.72-.73.91-1.22,1.5.59-.06,1.07-.14,2.04-.3a5.737,5.737,0,0,0-.38-1.04l.88-.27a13.891,13.891,0,0,1,.87,2.7,5.067,5.067,0,0,0-.95.33,8.685,8.685,0,0,0-.19-.9c-.16.04-1,.19-1.09.22v5.62h-1V20.67c-.56.08-.94.13-1.91.25-.05.17-.1.3-.22.3s-.2-.23-.21-.34l-.14-.94c.31-.01.86-.05,1.07-.06.33-.35.58-.7,1.03-1.27a15.671,15.671,0,0,0-2.07-1.88l.62-.83c.46.38.61.52.75.65a21.543,21.543,0,0,0,1.38-2.47l.86.42a.271.271,0,0,1,.19.22c0,.12-.18.12-.25.12h-.12a23.658,23.658,0,0,1-1.44,2.29c.05.04.47.46.7.68.09-.12,1.25-1.66,1.69-2.43l.83.48Zm-3.42,5.95c.12.03.27.06.27.18s-.1.16-.32.22a15.653,15.653,0,0,1-.75,3.09,3.61,3.61,0,0,0-.98-.26,13.093,13.093,0,0,0,.87-3.39Zm3.13-.25a17.433,17.433,0,0,0,.83,2.79,3.544,3.544,0,0,0-.95.33,15.742,15.742,0,0,1-.77-2.86l.88-.26Zm6.63-5.19c.01,2.12.01,6.67-.68,8.48-.42,1.09-1.17,1.29-2.76,1.26a3.032,3.032,0,0,0-.47-1.21,6.559,6.559,0,0,0,1.1.1c.91,0,1.29-.25,1.59-2.87a41.08,41.08,0,0,0,.16-4.77H78.51a12.454,12.454,0,0,1-1.07,1.66,3.244,3.244,0,0,0-.92-.58,12.081,12.081,0,0,0,2.24-4.29l.98.32c.18.07.29.16.29.22,0,.12-.1.16-.4.21-.18.46-.38.97-.61,1.47H83ZM79.04,19a19.369,19.369,0,0,1,1.51,2.92,6.112,6.112,0,0,0-.95.47,19.81,19.81,0,0,0-1.47-2.99l.91-.4Z" fill="#3e3a39"/>
  <path id="パス_238" data-name="パス 238" d="M90.72,25.12H89.45V17.77H87.34V16.8a2.127,2.127,0,0,0,2.35-1.92h1.03Z" fill="#3e3a39"/>
  <path id="パス_239" data-name="パス 239" d="M103.19,15.99H98.54l-.61,3.31a3.125,3.125,0,0,1,2.33-.9,3.347,3.347,0,0,1,3.47,3.45,3.449,3.449,0,0,1-3.69,3.55,4.382,4.382,0,0,1-3-1.07,3.088,3.088,0,0,1-.92-2.07h1.37a2.2,2.2,0,0,0,2.43,2,2.342,2.342,0,0,0,2.52-2.46,2.252,2.252,0,0,0-2.42-2.38,2.678,2.678,0,0,0-2.16.99H96.44l1.01-5.55h5.75v1.12Z" fill="#3e3a39"/>
  <path id="パス_240" data-name="パス 240" d="M113.99,19.99c0,2.08-.52,5.41-3.87,5.41s-3.89-3.41-3.89-5.41.47-5.41,3.89-5.41S113.99,18.04,113.99,19.99Zm-6.46,0c0,1.7.36,4.28,2.57,4.28s2.59-2.59,2.59-4.28-.36-4.28-2.57-4.28S107.53,18.26,107.53,19.99Z" fill="#3e3a39"/>
  <path id="パス_241" data-name="パス 241" d="M118.59,16.74v2.87a12.713,12.713,0,0,1-1.4,6.42,3.488,3.488,0,0,0-1.03-.53c1.34-2.04,1.35-5,1.35-5.98V15.79h4.34V14.18l1.14.07c.09,0,.29.04.29.19,0,.09-.16.18-.31.22v1.13h5.29v.95h-9.67Zm4.78,2.63v1.88h3.67v4.82h-1.08v-.62h-5.21v.64H119.7V21.25h2.56V16.79l1.12.1c.12.01.31.04.31.17s-.16.16-.31.18v1.17h4.41v.95h-4.41Zm2.59,2.85h-5.21v2.29h5.21V22.22Z" fill="#3e3a39"/>
  <path id="パス_242" data-name="パス 242" d="M139.64,25.88h-.96V23.11h-1.43v3.04h-.95V17.93h2.38V16.58h-2.63a3.242,3.242,0,0,0,.3.23,3.354,3.354,0,0,0-.78.71,9.762,9.762,0,0,1-1.95-2.21,13.233,13.233,0,0,1-2.17,2.63H133V16.52l1.01.05c.14.01.25.03.25.14,0,.16-.18.2-.33.23v.99h1.65v.84h-1.65V19.9h1.99v.83h-5.14V19.9h2.21V18.77h-1.57v-.82l-.18.16a2.208,2.208,0,0,0-.85-.66,8.816,8.816,0,0,0,2.85-3.41l1.03.2c.07.01.23.05.23.18,0,.16-.2.21-.42.22a13.1,13.1,0,0,0,1.83,1.83v-.79h2.76V14.12l.96.04c.23.01.34.01.34.14s-.13.17-.34.23v1.14h1.55a7.626,7.626,0,0,0-.86-1.21l.66-.36a11.089,11.089,0,0,1,.99,1.27l-.53.3h1.18v.88h-2.99V17.9h2.47v7.02c0,.78-.12,1.17-1.7,1.14a2.238,2.238,0,0,0-.4-1.09,4.835,4.835,0,0,0,.73.08c.42,0,.42-.13.42-.65V23.07h-1.51v2.77Zm-4.13-4.42v4.68h-.94v-.69h-2.13v.69h-1V21.46Zm-3.07.88v2.22h2.13V22.34Zm6.24-3.55h-1.43v1.29h1.43V18.79Zm0,2.15h-1.43v1.3h1.43Zm.96-.86h1.51V18.79h-1.51Zm0,2.16h1.51v-1.3h-1.51Z" fill="#3e3a39"/>
</svg>
