<?xml version="1.0" encoding="UTF-8"?>
<svg id="_レイヤー_2" data-name="レイヤー 2" xmlns="http://www.w3.org/2000/svg" viewBox="0 0 177.16 31.11">
  <defs>
    <style>
      .cls-1 {
        fill: #fff;
      }
    </style>
  </defs>
  <g id="_レイヤー_1-2" data-name="レイヤー 1">
    <g>
      <g>
        <path class="cls-1" d="M1.38,26.85c-.29,0-.32,.15-.34,.41-.04,.31-.34,.66-.7,.66-.29,0-.31-.15-.31-.31,0-.08,.04-.48,.05-.58,.02-.45,.02-1.56,.02-1.88,0-.74-.02-1.51-.07-2.14,0-.06-.04-.39-.04-.41,0-.04,0-.08,.04-.08,.11,0,.19,.05,.9,.42,.22,.12,.37,.17,.64,.17h1.96c.35,0,.35-.21,.35-.44,0-.35-.01-1.43-.04-1.76-.01-.07-.07-.37-.07-.44s.07-.07,.12-.07c.08,0,1.16,.18,1.16,.4,0,.07-.25,.31-.26,.37-.05,.2-.05,.3-.05,1.55,0,.18,0,.39,.33,.39h2.19c.13,0,.25,0,.37-.17,.22-.31,.25-.34,.35-.34,.16,0,1,.6,1,.75,0,.07-.26,.29-.29,.35-.09,.16-.09,.31-.09,1.49,0,.24,.04,1.42,.04,1.69,0,.25,.01,.39-.12,.54-.24,.28-.52,.31-.58,.31-.33,0-.33-.28-.33-.58,0-.11,0-.32-.34-.32h-2.12c-.21,0-.38,.02-.38,.39,0,.41,.02,2.45,.02,2.91,0,.25,0,.93-.62,.93-.39,0-.39-.35-.39-.47,0-.13,.05-.73,.05-.87,.01-.41,.04-2.08,.04-2.48,0-.28-.04-.41-.35-.41H1.38Zm2.13-.32c.09,0,.25,0,.31-.14,.07-.14,.07-1.63,.07-1.92,0-.94,0-1.04-.37-1.04H1.33c-.34,0-.34,.13-.34,.55,0,.29,.02,1.76,.02,2.1s.06,.45,.37,.45H3.52Zm3.82,0c.11,0,.27,0,.31-.18,.02-.08,.06-2.31,.06-2.54,0-.28-.11-.39-.34-.39h-2.28c-.34,0-.34,.24-.34,.4,0,.31,0,2.35,.04,2.49,.04,.18,.17,.21,.32,.21h2.24Z"/>
        <path class="cls-1" d="M17.71,30.52c-.17,0-.28,.01-.34,.2-.05,.18-.11,.39-.45,.39-.39,0-.39-.19-.39-.37,0-.64,.08-3.75,.08-4.46,0-1.11-.04-2.52-.05-2.58-.05-.27-.28-.27-.54-.27h-.84c-.14,0-.37,0-.37,.35,0,.33,0,.57,.33,.78,.35,.24,1.13,.75,1.13,1.31,0,.21-.11,.5-.34,.5-.18,0-.26-.15-.37-.53-.09-.31-.48-1.12-.62-1.12-.06,0-.12,.05-.12,.13,0,.78,.08,4.65,.08,5.52,0,.15,0,.7-.6,.7-.29,0-.35-.13-.35-.47,0-.13,.09-2.26,.11-2.69,.01-.71,.04-1.83,.04-2.12,0-.05-.05-.08-.11-.08-.02,0-.06,.01-.08,.04-.04,.05-.33,.53-.4,.64-.67,1.07-1.32,1.79-1.32,1.63,0-.01,.77-1.73,.9-2.06,.51-1.25,.75-2.16,.75-2.23,0-.13-.09-.26-.27-.26-.13,0-.85,.05-.97,.05-.04,0-.06-.02-.09-.07l-.24-.27q-.05-.06-.05-.08s.02-.02,.04-.02c.22,0,1.26,.07,1.5,.07,.2,0,.32-.09,.32-.33,0-.08-.02-1-.05-1.54,0-.12-.06-.75-.06-.75,0-.04,0-.14,.14-.14,.08,0,1.09,.26,1.09,.5,0,.08-.08,.13-.12,.15-.15,.11-.16,.12-.19,.15-.07,.12-.07,1.46-.07,1.69,0,.2,.15,.31,.27,.31,.11,0,.2-.07,.31-.22,.17-.21,.25-.28,.35-.28s.14,.02,.51,.32c.08,.06,.11,.08,.16,.08,.07,0,.14-.06,.14-.13,0-.31-.04-1.05-.06-1.36-.01-.12-.11-.73-.11-.77s0-.09,.05-.09c.09,0,.54,.27,.65,.34,.22,.15,.46,.21,.68,.21h3.31c.51,0,.57-.01,.71-.26,.19-.34,.21-.39,.32-.39,.18,0,.98,.7,.98,.81,0,.14-.25,.14-.63,.14h-4.74c-.37,0-.37,.13-.37,.8,0,.18-.02,3.15-.02,3.74,0,1.59,.07,3.85,.09,3.93,.05,.16,.22,.2,.34,.2h3.21c.48,0,.58-.01,.71-.26,.18-.35,.2-.4,.33-.4,.14,0,1,.72,1,.85,0,.12-.06,.12-.64,.12h-4.68Zm.31-7.38c.07,0,.62,.37,1.78,1.66,.18,.2,.21,.25,.29,.25,.09,0,.14-.06,.42-.93,.17-.5,.33-1.12,.4-1.78,.02-.25,.02-.28,.12-.28,.21,0,1.2,.41,1.2,.51,0,.05-.33,.27-.38,.33-.15,.19-.84,2.1-1.03,2.48-.04,.08-.09,.19-.09,.37,0,.16,.06,.31,.15,.42,.46,.62,1.21,1.78,1.21,2.32,0,.26-.18,.48-.38,.48-.3,0-.47-.32-.85-1.12-.05-.09-.47-.88-.55-1.01-.02-.05-.07-.07-.14-.07-.08,0-.14,.05-.18,.11-.74,1.2-2.14,2.55-2.29,2.55-.01,0-.02-.01-.02-.02,0-.05,.9-1.31,1.06-1.56,.27-.44,.92-1.49,.92-1.83,0-.26-.05-.34-.38-.86-.47-.74-.5-.77-1.12-1.6-.06-.08-.2-.27-.21-.33,0-.04,0-.07,.05-.07Z"/>
        <path class="cls-1" d="M26.9,28.58c1.21-2.3,1.56-4.33,1.56-4.34,0-.12-.05-.12-.42-.12-.25,0-.66-.01-1.05-.21-.38-.19-.61-.52-.61-.64,0-.04,.04-.05,.05-.05,.05,0,.22,.09,.27,.11,.18,.06,.66,.13,1.05,.13,.18,0,.74-.02,.84-.11,.1-.08,.13-.88,.13-.97,0-.09,0-.5-.14-.73-.05-.06-.33-.35-.33-.44,0-.12,.22-.27,.53-.27,.53,0,.94,.48,.94,.62,0,.06-.13,.29-.13,.35,0,.22,.94,.42,1.06,.42,.05,0,.31-.02,.37-.02,.09,0,.39,0,.39,.37,0,.66-1,1-1.78,1.21-.4,.11-.45,.12-.5,.33-.6,2.57-.61,2.58-.86,3.35-.81,2.45-1.24,2.45-1.46,2.45-.28,0-.32-.39-.32-.52,0-.14,.06-.26,.42-.94Zm2.49-5.39c.06,0,.96-.32,.96-.47,0-.12-.64-.38-.77-.38-.07,0-.11,.02-.13,.14-.05,.24-.05,.27-.11,.55-.01,.08-.02,.15,.05,.15Zm.9,5c.25,1.03,1.52,1.25,2.42,1.25,.2,0,1.1-.08,1.29-.08,.4,0,.94,.2,.94,.59,0,.33-.44,.4-1.44,.4-1.91,0-3.5-.48-3.5-1.97,0-.27,.07-.52,.17-.52,.05,0,.12,.29,.13,.33Zm2.61-4.1c1.12,0,1.97,.33,1.97,.85,0,.28-.25,.28-.34,.28-.11,0-.57-.04-.66-.04-.21,0-.39,0-.87,.19-.3,.11-.41,.15-.5,.15-.02,0-.06,0-.06-.04,0-.08,.61-.53,.61-.66,0-.18-.84-.19-1.01-.19-.26,0-.58,.01-.85,.05-.07,.01-.34,.05-.39,.05-.04,0-.09,0-.11-.02-.08-.15,.94-.63,2.21-.63Zm1.92-1.31c0,.19-.17,.45-.37,.45-.17,0-.26-.08-.6-.54-.2-.27-.31-.35-.8-.73-.05-.04-.17-.14-.17-.19s.11-.09,.21-.09c1.05,0,1.72,.68,1.72,1.11Zm1.21-.78c0,.15-.11,.35-.31,.35-.26,0-.4-.22-.59-.5-.15-.22-.6-.57-.98-.74-.12-.06-.14-.11-.14-.14,0-.11,.27-.11,.45-.11,.4,0,1.57,.34,1.57,1.13Z"/>
        <path class="cls-1" d="M38.69,24.31s.05-.09,.11-.09c.04,0,.65,.16,.78,.16,.34,0,1.96-.34,1.98-.35,.2-.14,.21-1.33,.21-1.39,0-.31-.02-.66-.29-1-.18-.21-.2-.24-.2-.27,0-.08,.14-.09,.19-.09,.79,0,1.25,.45,1.25,.75,0,.02-.45,1.52-.45,1.75,0,.07,.05,.11,.13,.11,.06,0,.6-.06,.7-.06,.88,0,1.57,.42,1.57,1.51,0,.93-.33,2.96-1.01,3.79-.33,.39-.8,.72-1.2,.72-.45,0-.57-.44-.7-.81-.02-.06-.15-.37-.15-.39,0-.04,.02-.06,.06-.06,.05,0,.26,.07,.29,.08,.24,.05,.47,.08,.6,.08,.34,0,.78-.17,1.12-1.44,.13-.47,.37-1.43,.37-2.05,0-.83-.47-.88-.81-.88-.38,0-1.05,.18-1.13,.28-.05,.06-.06,.11-.18,.51-.47,1.6-1.62,4.51-2.57,4.51-.26,0-.38-.16-.38-.38,0-.25,.08-.34,.79-1.12,.32-.35,.81-.9,1.45-2.67,.05-.12,.16-.47,.16-.55,0-.04-.01-.09-.08-.09-.26,0-1.36,.47-1.59,.47-.46,0-1-.74-1-1Zm8.23,2.45c-.12,0-.66-.32-.8-.35-.06-.02-.38-.05-.38-.08,0-.07,.39-.27,.46-.33,.44-.33,.48-.37,.48-.68,0-.2-.08-.97-.96-1.36-.1-.05-.28-.13-.28-.18,0-.07,.05-.07,.08-.07,1.51,0,2.06,1.49,2.06,2.09,0,.14-.18,.97-.67,.97Z"/>
        <path class="cls-1" d="M54.94,22.24c0,.24-.19,.57-.6,.57-.11,0-.16-.01-.7-.2-.19-.07-.38-.12-.55-.12-.48,0-.84,.33-.84,.78,0,.11,.08,.61,.08,.72s-.12,.8-.14,.97c-.06,.44-.15,1.44-.15,1.73,0,.18,.01,.54,.31,.54,.22,0,.57-.21,.68-.28,.72-.47,1.17-.75,1.92-.75,1.26,0,2.16,.88,2.16,1.85,0,1.44-1.88,2.39-3.59,2.39-.15,0-.32,0-.32-.09,0-.06,.26-.12,.34-.14,1.47-.33,2.58-1.26,2.58-2.37,0-1.24-1.07-1.31-1.31-1.31-.41,0-1.01,.13-1.53,.88-.54,.77-.67,.97-1.07,.97-.5,0-.9-.57-.9-1.47,0-.5,.28-2.67,.32-3.1,.04-.41,.08-1.01,1.07-1.42,.66-.27,.94-.39,.94-.73,0-.22-.08-.35-.2-.53-.02-.05-.06-.12-.02-.15,.08-.07,1.51,.61,1.51,1.27Z"/>
        <path class="cls-1" d="M63.75,28.68c.35,0,2.15-.25,2.21-.25,.46,0,.78,.32,.78,.55,0,.64-2,.7-2.65,.7-1.17,0-3.66-.21-3.66-2.06,0-.45,.13-.58,.15-.58,.08,0,.17,.38,.19,.44,.33,.83,1.43,1.18,2.26,1.18,.08,0,.6,.02,.72,.02Zm.04-6.59c.14,0,.8-.02,.93-.02,.78,0,1.16,.77,1.16,.94,0,.21-.11,.21-.92,.27-.6,.04-1.04,.31-1.49,.57-.12,.07-.12,.06-.17,.06-.01,0-.04,0-.04-.02,0-.11,.65-.66,.65-.8,0-.07-.04-.08-.38-.14-1.53-.28-2.08-1.03-2.08-1.14,0-.04,.04-.04,.06-.04,.07,0,.33,.11,.39,.12,.53,.15,1.2,.21,1.88,.21Z"/>
        <path class="cls-1" d="M75.21,22.18c0,.18-.07,.31-.45,.55-.37,.25-1.88,1.52-2.72,2.36-.44,.44-1.1,1.19-1.1,1.27,0,.05,.05,.07,.11,.07,.26,0,1.71-.55,2.1-.71,1.26-.48,1.9-.72,2.38-.72,.26,0,1.1,.15,1.1,.58,0,.29-.45,.38-.61,.38-.07,0-.38-.02-.44-.02-.94,0-3.2,.46-3.2,2.15,0,1.11,.74,1.29,2.11,1.6,.59,.14,.71,.5,.71,.6,0,.25-.37,.38-.78,.38-.08,0-2.51-.14-2.51-2.14,0-.68,.27-1.31,.52-1.64,.05-.06,.28-.34,.28-.37,0-.01-.01-.04-.05-.04-.06,0-.55,.24-.88,.47-.64,.46-.8,.58-1.17,.58-.48,0-.61-.58-.61-.68,0-.22,.11-.33,.45-.64,.11-.08,2.17-2.52,2.61-2.96,.37-.37,1.08-1.11,1.08-1.38,0-.13-.11-.2-.2-.2-.2,0-.53,.2-.75,.42-.32,.33-.45,.47-.88,.47-.64,0-.83-1-.83-1.04s.01-.09,.08-.09c.04,0,.49,.08,.58,.08,.15,0,.29-.02,.41-.06,1.16-.29,1.29-.33,1.57-.33,1.01,0,1.1,.97,1.1,1.04Z"/>
        <path class="cls-1" d="M84.43,22.39s.02,.08,.02,.13c.05,.38,.12,.75,.12,1.27,0,.79-.18,1.89-1.21,3.46-.94,1.44-1.54,1.72-2.02,1.72-.78,0-1.47-1.21-1.47-2.65,0-.62,.13-1.82,1.31-3.01,1.5-1.53,3.08-1.53,3.76-1.53,1.07,0,1.57,.21,1.9,.38,1.27,.62,2.05,1.89,2.05,3.43s-.88,3.42-2.97,4.15c-1,.35-1.78,.44-1.96,.44-.05,0-.12-.01-.12-.08,0-.04,.02-.05,.32-.16,1.23-.48,3.79-1.5,3.79-4.44,0-.46-.05-3.27-3.27-3.27-.24,0-.25,.09-.25,.17Zm-3.83,3.62c0,.77,.31,1.82,1.03,1.82,.34,0,.62-.14,1.44-1.37,.62-.96,1.16-2.26,1.16-3.43,0-.71-.05-.77-.2-.77-1.12,0-3.42,1.52-3.42,3.75Z"/>
        <path class="cls-1" d="M92.03,26.12c-.19,0-.31-.18-.31-.38,0-.22,.08-.42,.32-.96,.08-.2,.48-1.11,.48-1.89,0-.04,0-.06,.04-.06,.02,0,.29,.41,.29,1.65,0,.7-.25,1.63-.83,1.63Zm2.21-.54c0,.53,0,2.98,.11,4.45,0,.08,.04,.41,.04,.48,0,.42-.32,.6-.67,.6s-.37-.18-.35-.32c.01-.25,.06-.67,.07-.87,.01-.2,.11-3.21,.11-5.21,0-1.05-.02-3.28-.09-3.6-.01-.09-.13-.54-.13-.59,0-.11,.12-.13,.21-.13,.24,.01,1.12,.14,1.12,.45,0,.07-.05,.14-.19,.24-.12,.08-.19,.15-.19,.45,0,.57-.02,3.49-.02,4.06Zm5.5-2.85c.11,0,.22,0,.33-.08,.05-.05,.26-.33,.34-.33,.06,0,.92,.44,.92,.65,0,.05-.01,.06-.18,.2-.18,.14-.16,.28-.18,.4-.01,.31,0,1.8,0,2.15,0,.14,0,.29,.14,.29s.22-.14,.25-.21c.17-.31,.21-.41,.34-.41,.12,0,.96,.67,.96,.86,0,.15-.25,.15-.62,.15h-3.22c-.06,0-.15,0-.15,.09s.17,.48,.29,.74c.52,.99,1.4,1.63,1.98,1.96,.85,.5,1.83,.67,1.98,.67,.02,0,.06,0,.06,.04s-.05,.05-.08,.06c-.11,.02-.6,.37-.77,.72-.06,.09-.09,.14-.17,.14-.14,0-2.77-1.24-3.41-4.14-.05-.19-.05-.2-.09-.2-.06,0-.05,.06-.06,.21-.15,3.63-3.5,4.38-3.66,4.38-.01,0-.04,0-.04-.02,0-.04,.05-.05,.06-.06,.51-.22,.99-.59,1.42-.98,1.45-1.34,1.45-3.29,1.45-3.3,0-.31-.2-.31-.34-.31h-.51c-.47,0-1.26-.01-1.49,.02-.05,0-.21,.04-.26,.04-.02,0-.05-.02-.09-.07l-.24-.28s-.05-.06-.05-.07c0-.02,.02-.04,.04-.04,.08,0,.44,.05,.52,.05,.34,.02,1.18,.04,1.63,.04h.48c.33,0,.39,0,.39-1.39,0-.34,0-1.39-.04-1.47-.07-.16-.24-.16-.31-.16-.18,0-1.05,.06-1.17,.06-.04,0-.06-.04-.11-.08l-.22-.27q-.05-.06-.05-.07s.02-.04,.04-.04c.21,0,1.27,.08,1.51,.08,.33,0,.33-.2,.33-.46,0-.98,0-1.09-.05-1.33,0-.06-.13-.35-.13-.42s.08-.07,.15-.07c.11,0,1.29,.11,1.29,.45,0,.07-.33,.27-.38,.34-.08,.11-.08,.99-.08,1.18,0,.22,.09,.32,.35,.32h.87Zm-4.48,1.8c-.29,0-.29-.21-.33-.74-.01-.25-.11-.65-.22-.9,0-.01-.02-.06-.02-.07s.01-.02,.02-.02c.05,0,1.03,.44,1.03,1.18,0,.32-.2,.55-.47,.55Zm3.6-1.49c-.11,0-.28,0-.33,.14-.05,.13-.09,2.48-.09,2.57,0,.32,.21,.32,.37,.32h1.06c.37,0,.37-.11,.37-.59,0-.31,0-2.17-.05-2.3-.06-.14-.22-.14-.34-.14h-.98Z"/>
        <path class="cls-1" d="M105.66,25.29q-.05-.06-.05-.08s.02-.02,.04-.02c.14,0,1.12,.07,1.33,.07,.17,0,.24-.07,.33-.18,.17-.2,.25-.29,.37-.29,.13,0,.76,.46,.76,.65,0,.08-.07,.14-.11,.17-.25,.15-.29,.19-.33,.28-.04,.09-.04,1.93-.04,2.16,0,.32,0,.6,.18,.9,.54,.91,1.76,.91,2.48,.91,1.85,0,4.23,0,5.51-.33,.08-.02,.48-.16,.53-.16,.01,0,.04,.01,.04,.04s-.01,.04-.13,.16c-.19,.21-.44,.52-.48,.72-.07,.25-.09,.33-.18,.38-.09,.05-2.59,.05-2.8,.05-1.82,0-2.9,0-3.68-.29-.92-.34-1.29-.79-1.42-.99-.06-.09-.28-.52-.37-.52-.11,0-.91,.93-1.18,1.27-.26,.34-.28,.38-.34,.38-.18,0-.75-.86-.75-.99,0-.09,.05-.09,.25-.09,.09,0,1.4-.6,1.53-.83,.05-.08,.05-.34,.05-2.64,0-.39-.15-.39-.44-.39-.11,0-.7,.05-.77,.05-.05,0-.06-.04-.11-.08l-.22-.27Zm2.84-2.31c0,.27-.2,.42-.4,.42-.21,0-.26-.07-.74-.75-.21-.31-.99-1.3-1.11-1.43-.09-.11-.18-.2-.29-.32,0-.02,.04-.04,.05-.04,.11,0,.67,.22,.86,.32,1.4,.67,1.64,1.58,1.64,1.79Zm1.9,.94c-.13,0-.38,0-.38,.33v4.28c0,.22-.02,.59-.48,.59-.32,0-.32-.28-.32-.41,0-.16,.05-.92,.05-1.07,.05-1.19,.05-1.21,.05-3.1,0-.18-.04-.92-.04-1.07,0-.11,.02-.19,.15-.19s.25,.06,.6,.26c.15,.08,.24,.08,.35,.08h.47c.06,0,.14,0,.14-.09,0-.07-.2-.79-.31-1.03-.21-.45-.26-.46-.53-.46-.04,0-.6,.01-.91,.04-.02,0-.14,.01-.17,.01-.04,0-.08-.04-.11-.07l-.22-.27s-.05-.06-.05-.08c0-.01,.01-.02,.04-.02,.08,0,.45,.04,.52,.05,.58,.02,1.07,.04,1.63,.04h.7c.09,0,.31,0,.31-.26,0-.09-.02-.44-.06-.63-.01-.06-.07-.27-.07-.32,0-.07,.05-.13,.14-.13,.08,0,1.04,.11,1.04,.38,0,.08-.01,.09-.14,.24-.08,.08-.13,.18-.13,.39,0,.31,.09,.33,.34,.33h.92c.53,0,.59,0,.75-.21,.33-.42,.37-.47,.47-.47,.13,0,1.01,.65,1.01,.83,0,.16-.19,.16-.54,.16h-1.62c-.09,0-.15,.01-.15,.06,0,.04,.14,.11,.22,.18,.17,.12,.31,.21,.31,.35,0,.08-.04,.09-.31,.19-.22,.07-.84,.72-.84,.75,0,.06,.07,.06,.12,.06h.93c.13,0,.2-.01,.28-.12,.18-.25,.21-.31,.29-.31,.12,0,.83,.45,.83,.67,0,.09-.04,.12-.21,.24-.08,.06-.11,.17-.11,.35v1.5c0,.33,.06,1.76,.06,2.04,0,.61-.12,.85-.29,1-.07,.06-.29,.24-.58,.24s-.29-.11-.29-.27c0-.26-.18-.41-.21-.44-.05-.02-.27-.12-.27-.15,0-.05,.05-.05,.07-.05,.07,0,.38,.05,.45,.05,.38,0,.38-.14,.38-.71,0-.53,.01-2.88,.01-3.35,0-.39-.24-.39-.35-.39h-3.95Zm1.43,4.49c-.19,0-.21,.04-.25,.18-.05,.24-.26,.33-.44,.33-.21,0-.24-.18-.24-.31,0-.14,.02-1.19,.02-1.41,0-.11-.02-.65-.02-.77,0-.05,.01-.15,.15-.15,.1,0,.54,.24,.66,.24,.19,0,.22-.09,.22-.25,0-.65,0-.72-.33-.72-.12,0-.7,.05-.79,.05-.04,0-.06-.02-.11-.07l-.22-.27q-.05-.06-.05-.08s.02-.02,.04-.02c.16,0,.99,.06,1.17,.06,.28,0,.31-.11,.31-.25,0-.18-.01-.37-.05-.57-.01-.11-.06-.2-.06-.24,0-.07,.04-.08,.19-.08,.01,0,.8,.01,.8,.29,0,.08-.06,.13-.15,.21-.07,.06-.08,.24-.08,.33,0,.28,.07,.33,.39,.33,.25,0,.32-.05,.45-.22,.15-.2,.24-.27,.32-.27,.13,0,.64,.42,.64,.62,0,.15-.09,.18-.67,.18h-.73c-.39,0-.39,.06-.39,.68,0,.12,.05,.28,.24,.28,.12,0,.18-.08,.21-.12,.12-.14,.13-.18,.22-.18,.15,0,.65,.32,.65,.48,0,.06-.2,.27-.21,.33-.02,.15,0,1.05,0,1.16,0,.65-.41,.65-.45,.65-.15,0-.21-.11-.25-.22-.06-.19-.08-.2-.28-.2h-.91Zm-.71-6.39c-.12,0-.2,.01-.2,.06,0,.04,.02,.05,.21,.19,.24,.17,.53,.48,.53,.78,0,.14-.05,.26-.08,.34-.01,.02-.09,.13-.09,.15,0,.07,.09,.07,.13,.07h.98c.19,0,.25,0,.45-.38,.07-.13,.37-.74,.37-1.05,0-.14-.06-.17-.24-.17h-2.05Zm.8,4.8c-.33,0-.33,.12-.33,.68,0,.47,0,.6,.33,.6h.8c.32,0,.32-.12,.32-.67,0-.48,0-.61-.32-.61h-.8Z"/>
        <path class="cls-1" d="M121.92,21.94c0-.18-.06-.35-.17-.52-.04-.06-.22-.28-.22-.33,0-.14,.25-.25,.48-.25,.47,0,.66,.26,.85,.52,.06,.08,.18,.13,.53,.22,.22,.06,.67,.19,.67,.52,0,.45-.66,.66-1.62,.94-.11,.04-.12,.07-.22,.48-.14,.59-1.16,4.58-2.24,4.58-.32,0-.37-.21-.37-.33,0-.16,.04-.22,.39-.73,1.29-1.89,1.63-3.79,1.63-3.85,0-.11-.08-.12-.26-.13-1.39-.12-1.39-.94-1.39-.96,0-.05,.01-.14,.08-.14,.05,0,.08,.01,.32,.15,.13,.08,.46,.25,.91,.25,.02,0,.44,0,.52-.07,.08-.07,.11-.26,.11-.37Zm3.4,7.38c-.15,1.03-1.05,1.29-1.66,1.29-1.12,0-1.78-.78-1.78-1.37,0-.77,.84-1.17,1.9-1.17,.09,0,.53,.02,.61,.02,.11,0,.16-.01,.16-.13,0-.18-.05-.97-.05-1.13,0-1.3,.07-1.92,1.06-2.49,.73-.42,.81-.46,.81-.77,0-.26-.26-.53-.33-.6-.11-.09-.15-.14-.15-.19,0-.04,.04-.06,.08-.06,.08,0,.45,.11,.7,.2,.81,.31,.86,1.03,.86,1.2,0,.45-.32,.61-.55,.61-.01,0-.15,0-.27-.05-.45-.17-.5-.19-.64-.19-.28,0-.67,.17-.86,.35-.27,.26-.28,.68-.28,.98s.12,2.12,.47,2.37c.11,.08,.66,.27,.77,.33,.25,.13,.93,.51,.93,.94,0,.2-.08,.41-.32,.41-.12,0-.19-.04-.37-.19-.32-.28-.86-.65-1.03-.58-.05,.02-.05,.07-.07,.19Zm-1.7-.67c-.27,0-1.33,0-1.33,.62,0,.28,.35,.64,1.06,.64,1.14,0,1.31-.9,1.24-1.09-.06-.18-.7-.18-.97-.18Zm-.32-6.75c0-.08-.41-.29-.48-.29-.2,0-.28,.48-.28,.52,0,.02,.01,.06,.02,.07,.04,.04,.74-.12,.74-.29Z"/>
        <path class="cls-1" d="M131.37,22.98c.24,.04,.5,.05,.74,.05,1.05,0,4.55-.55,4.88-.68,.08-.04,.41-.27,.48-.27,.27,0,1.39,1.13,1.39,1.53,0,.08,0,.21-.41,.31-.41,.08-2.22,.74-2.46,1.07-.14,.2-.19,.34-.6,1.51-.21,.61-.88,2.49-2.97,3.64-.39,.21-.73,.34-.81,.34-.05,0-.07-.02-.07-.06s.02-.06,.24-.22c.66-.48,1.47-1.18,2.11-2.19,.65-1.04,.88-2.04,.88-2.58,0-.26-.05-.48-.15-.7-.09-.19-.11-.21-.11-.26,0-.09,.18-.11,.25-.11,.2,0,.34,.01,.64,.11,.07,.02,.39,.15,.46,.15,.33,0,1.46-1.13,1.46-1.44,0-.08-.07-.18-.22-.18-.19,0-2.32,.16-4.21,.73-.17,.05-.84,.34-.99,.34-.28,0-1.2-.75-1.2-1.17,0-.02,.02-.05,.08-.05,.04,0,.51,.11,.6,.12Z"/>
        <path class="cls-1" d="M144.87,21.92c0-.12,.16-.12,.26-.12,.83,0,1.1,.61,1.1,.66,0,.14-.12,.29-.35,.59-.06,.08-.09,.13-.09,.19,0,.09,.14,.09,.19,.09,.12,0,.99-.13,1.79-.47,.14-.06,.43-.19,.55-.19,.11,0,.17,.04,.65,.32,.07,.04,.38,.2,.44,.24,.13,.08,.22,.2,.22,.29,0,.16-.08,.21-.47,.45-.13,.08-.18,.15-.59,.79-.6,.94-1.88,2.88-4.22,4.44-1.3,.85-2.28,1.13-2.35,1.13-.06,0-.11-.05-.11-.11,0-.05,.04-.07,.4-.27,3.6-1.98,5.84-6,5.84-6.37,0-.11-.09-.13-.13-.13-.02,0-1.65,.37-1.93,.37-.07,0-.39-.04-.46-.04-.22,0-.25,.02-.74,.59-.72,.8-1.02,1.11-1.61,1.53-.48,.35-.99,.63-1.13,.63-.06,0-.08-.04-.08-.07,0-.08,.79-.74,.93-.88,.96-.96,2.08-2.58,1.98-3.29-.01-.06-.08-.32-.08-.37Z"/>
        <path class="cls-1" d="M152.89,25.14c.11,.02,.32,.04,.44,.04,.47,0,.67-.06,2.46-.53,.32-.08,.34-.18,.34-.8,0-1.27-.14-1.47-.42-1.9-.01-.02-.14-.2-.14-.22,0-.11,.44-.2,.54-.2,.14,0,.27,.06,.81,.52,.04,.04,.25,.24,.25,.35,0,.09-.2,.46-.22,.53-.09,.38-.18,1.09-.18,1.13,0,.15,.09,.22,.24,.22,.07,0,1.44-.34,1.77-.5,.08-.04,.42-.25,.51-.25,.32,0,1.58,.91,1.58,1.39,0,.08-.06,.18-.21,.18-.05,0-.27-.02-.32-.02-.25,0-.38,.08-.8,.34-.29,.19-.84,.53-.88,.53-.04,0-.07-.02-.07-.07,0-.01,.2-.34,.22-.39,.18-.28,.33-.66,.33-.98,0-.07-.01-.24-.14-.24-.02,0-1.79,.58-1.95,.62-.27,.09-.37,.2-.37,.51,0,.99,0,2.05,.02,2.28,.09,.93,.75,1.04,1.46,1.04,.45,0,1.19-.09,1.3-.12,.37-.09,.73-.16,.98-.16,.28,0,.5,.19,.5,.38,0,.75-1.98,.75-2.62,.75-2.04,0-2.29-.53-2.29-2.49,0-.24,.02-1.26,.02-1.46,0-.19-.07-.27-.24-.27-.12,0-1.01,.28-1.11,.33-.7,.37-.77,.4-1.03,.4-.6,0-1.07-.9-1.07-.94,0-.04,.05-.05,.07-.05,.04,0,.05,0,.21,.05Z"/>
        <path class="cls-1" d="M168.6,23.43c-.08,0-2.56,.58-2.62,.6-.08,.02-.45,.22-.53,.22-.18,0-.73-.35-.8-.42-.08-.08-.28-.6-.28-.68,0-.06,.01-.09,.07-.09,.01,0,.27,.07,.31,.08,.37,.11,.51,.12,.62,.12,.4,0,2.62-.19,3.23-.44,.11-.05,.54-.37,.65-.37,.28,0,1,.6,1,.9,0,.11-.44,.42-.51,.51-.24,.28-1.17,1.66-1.36,1.93-.05,.06-.09,.14-.09,.24,0,.11,.02,.13,.52,.4,.53,.31,2.64,1.5,2.64,2.57,0,.27-.21,.52-.48,.52s-.32-.08-.73-.81c-.81-1.43-1.85-2.32-2.11-2.32-.12,0-.15,.04-.41,.33-.41,.44-1.62,1.76-3.15,2.52-.32,.15-.64,.27-.73,.27-.02,0-.08,0-.08-.07,0-.05,.47-.39,.54-.44,3.08-2.23,4.48-5.28,4.45-5.47-.02-.09-.12-.09-.14-.09Z"/>
        <path class="cls-1" d="M177.16,29.62c0,.66-.53,1.31-1.32,1.31s-1.3-.66-1.3-1.32c0-.9,.78-1.3,1.31-1.3,.77,0,1.31,.64,1.31,1.31Zm-2.29-.01c0,.54,.44,.99,.99,.99,.51,0,.98-.4,.98-.97,0-.46-.35-.99-1-.99s-.97,.51-.97,.97Z"/>
      </g>
      <g>
        <path class="cls-1" d="M66.45,0l1.92,5.53c.27,.77,.53,.81,1.17,.81v.32h-3.02v-.32c.61,0,1.04-.03,1.04-.35,0-.13-.12-.41-.24-.79l-.23-.69h-2.3l-.27,.86c-.06,.19-.1,.35-.1,.44,0,.48,.57,.53,.92,.53v.32h-2.47v-.32c.85,0,1.08-.56,1.22-.94l1.89-5.4h.49Zm.47,4.05l-.96-2.91h-.02l-1.01,2.91h1.99Z"/>
        <path class="cls-1" d="M78.49,0l.04,2.57h-.22c-.38-1.17-.96-2.24-2.2-2.24-1.67,0-1.93,1.87-1.93,3.17,0,1.37,.39,3.02,2.07,3.02,1.36,0,2.11-1.06,2.11-2.31h.31c0,1.53-.91,2.64-2.5,2.64-1.89,0-3.04-1.69-3.04-3.45,0-1.61,1.2-3.39,2.94-3.39,.83,0,1.51,.55,1.64,.55,.37,0,.46-.29,.57-.55h.23Z"/>
        <path class="cls-1" d="M87.99,0l.04,2.57h-.22c-.38-1.17-.96-2.24-2.2-2.24-1.67,0-1.93,1.87-1.93,3.17,0,1.37,.39,3.02,2.07,3.02,1.36,0,2.11-1.06,2.11-2.31h.31c0,1.53-.91,2.64-2.5,2.64-1.89,0-3.04-1.69-3.04-3.45,0-1.61,1.2-3.39,2.93-3.39,.83,0,1.51,.55,1.64,.55,.37,0,.46-.29,.57-.55h.22Z"/>
        <path class="cls-1" d="M97.7,2.48h-.25c-.38-1.71-.54-1.97-2.3-1.97-1.05,0-1.14,.13-1.14,.62V3.13c1.06,0,1.64-.08,1.7-1.28h.23v3.04h-.22c-.11-1.2-.56-1.44-1.71-1.44v2.19c0,.52,.12,.69,1.04,.69,1.92,0,2.21-.32,2.58-2.21h.28l-.14,2.54h-5.68v-.32c.8,0,1.03-.09,1.03-.62V1.13c0-.42-.14-.62-1.04-.62V.18h5.59l.04,2.3Z"/>
        <path class="cls-1" d="M102.39,4.11c.24,1.17,1.12,2.41,2.36,2.41,.84,0,1.55-.39,1.55-1.27,0-1.78-4.11-.83-4.11-3.58,0-1,.74-1.67,1.83-1.67,.81,0,1.3,.58,1.69,.58,.24,0,.38-.37,.45-.58h.24c0,.45-.04,.88-.04,1.31s.04,.85,.04,1.27h-.24c-.26-1.1-.95-2.25-2.22-2.25-.67,0-1.24,.42-1.24,1.15,0,1.98,4.14,.76,4.14,3.63,0,1.18-1,1.74-2.1,1.74-1.03,0-1.4-.61-1.75-.61-.31,0-.5,.36-.58,.61h-.25c.02-.23,.04-.52,.04-1.22,0-.5-.04-1.02-.04-1.52h.23Z"/>
        <path class="cls-1" d="M110.89,4.11c.24,1.17,1.12,2.41,2.36,2.41,.84,0,1.55-.39,1.55-1.27,0-1.78-4.11-.83-4.11-3.58,0-1,.74-1.67,1.83-1.67,.81,0,1.3,.58,1.69,.58,.24,0,.38-.37,.45-.58h.24c0,.45-.04,.88-.04,1.31s.04,.85,.04,1.27h-.24c-.26-1.1-.95-2.25-2.22-2.25-.67,0-1.24,.42-1.24,1.15,0,1.98,4.14,.76,4.14,3.63,0,1.18-1,1.74-2.1,1.74-1.03,0-1.4-.61-1.75-.61-.31,0-.5,.36-.58,.61h-.25c.02-.23,.04-.52,.04-1.22,0-.5-.04-1.02-.04-1.52h.23Z"/>
      </g>
    </g>
  </g>
</svg>