<svg id="shops02-04" xmlns="http://www.w3.org/2000/svg" width="351.74" height="222.19" viewBox="0 0 351.74 222.19">
  <rect id="長方形_9" data-name="長方形 9" width="351.74" height="222.19" fill="#fee67d" opacity="0.3"/>
  <path id="パス_243" data-name="パス 243" d="M28.21,50.61a2.429,2.429,0,0,0-2.47-2.49c-1.94,0-2.88,1.98-2.88,4.04,0,2.66,1.37,3.85,2.87,3.85.68,0,2.3-.26,2.5-2.63h1.22c-.12.74-.56,3.67-3.66,3.67-2.9,0-4.12-2.39-4.12-4.89s1.21-5.09,4.04-5.09c.4,0,3.21,0,3.68,3.54H28.22Z" fill="#3e3a39"/>
  <path id="パス_244" data-name="パス 244" d="M39.56,52.06c0,2.87-1.69,4.99-4.27,4.99s-4.26-2.1-4.26-4.99c0-2.71,1.55-4.99,4.26-4.99s4.27,2.33,4.27,4.99Zm-7.33,0c0,2.73,1.49,3.95,3.06,3.95,1.45,0,3.07-1.07,3.07-3.95s-1.5-3.95-3.07-3.95S32.23,49.24,32.23,52.06Z" fill="#3e3a39"/>
  <path id="パス_245" data-name="パス 245" d="M45.77,47.33l3.49,9.45H48.02l-.77-2.13H42.82l-.76,2.13H40.81l3.49-9.45h1.45Zm-.72,1.12-1.87,5.24h3.74l-1.87-5.24Z" fill="#3e3a39"/>
  <path id="パス_246" data-name="パス 246" d="M57.1,50.61a2.429,2.429,0,0,0-2.47-2.49c-1.94,0-2.88,1.98-2.88,4.04,0,2.66,1.37,3.85,2.87,3.85.68,0,2.3-.26,2.49-2.63h1.22c-.12.74-.56,3.67-3.66,3.67-2.9,0-4.13-2.39-4.13-4.89s1.21-5.09,4.04-5.09c.4,0,3.21,0,3.68,3.54H57.08Z" fill="#3e3a39"/>
  <path id="パス_247" data-name="パス 247" d="M61.49,47.33V51.3h5.4V47.33h1.19v9.45H66.89V52.32h-5.4v4.46H60.31V47.33h1.18Z" fill="#3e3a39"/>
  <path id="パス_248" data-name="パス 248" d="M23.18,66.33V72.4A2.485,2.485,0,0,0,25.89,75a2.494,2.494,0,0,0,2.69-2.6V66.33h1.19v5.94c0,1.8-.88,3.78-3.9,3.78a3.486,3.486,0,0,1-3.86-3.78V66.33Z" fill="#3e3a39"/>
  <path id="パス_249" data-name="パス 249" d="M40.05,71.07v4.71h-.91l-.07-1.58a3.626,3.626,0,0,1-3.14,1.85c-1.86,0-4.22-1.36-4.22-4.99s2.49-4.99,4.31-4.99a3.946,3.946,0,0,1,3.99,3.32H38.76a2.773,2.773,0,0,0-2.81-2.28c-1.33,0-3.05.94-3.05,3.96,0,3.23,1.93,3.93,2.95,3.93a3.219,3.219,0,0,0,3.01-2.97H36.03v-.96Z" fill="#3e3a39"/>
  <path id="パス_250" data-name="パス 250" d="M50.13,71.07v4.71h-.91l-.07-1.58a3.626,3.626,0,0,1-3.14,1.85c-1.86,0-4.22-1.36-4.22-4.99s2.49-4.99,4.31-4.99a3.946,3.946,0,0,1,3.99,3.32H48.84a2.773,2.773,0,0,0-2.81-2.28c-1.33,0-3.05.94-3.05,3.96,0,3.23,1.93,3.93,2.95,3.93a3.219,3.219,0,0,0,3.01-2.97H46.11v-.96Z" fill="#3e3a39"/>
  <path id="パス_251" data-name="パス 251" d="M24.84,90.6a14.2,14.2,0,0,1-2.67,3.38,8.369,8.369,0,0,0-.9-.65,9.571,9.571,0,0,0,2.81-3.56l.92.52a.226.226,0,0,1,.14.19C25.14,90.61,25.01,90.6,24.84,90.6Zm2.51-1.92v4.91c0,.97,0,1.69-1.86,1.69a8,8,0,0,1-.82-.05,4.359,4.359,0,0,0-.3-1.07,6.73,6.73,0,0,0,1.26.12c.66,0,.66-.23.66-1.02V88.68H21.98v-.95h4.31V85.04l1,.06c.18.01.28.02.28.13s-.13.17-.22.19v2.3h4.23v.95H27.35Zm3.96,5.15a16.625,16.625,0,0,0-2.64-3.49l.77-.61a17.547,17.547,0,0,1,2.67,3.41,3.616,3.616,0,0,0-.8.7Zm-.49-7.04a1.08,1.08,0,1,1,1.08-1.08A1.082,1.082,0,0,1,30.82,86.79Zm0-1.69a.6.6,0,0,0-.61.61.61.61,0,0,0,1.22,0A.612.612,0,0,0,30.82,85.1Z" fill="#3e3a39"/>
  <path id="パス_252" data-name="パス 252" d="M35.39,93.92v.64H34.31V86.39h8.42v8.17H41.65v-.64H35.39Zm6.26-.97V87.36H35.39v5.59Z" fill="#3e3a39"/>
  <path id="パス_253" data-name="パス 253" d="M57.54,88.39a3.411,3.411,0,0,0,1.01-.12l.68.49c-.16.26-.72,1.46-.84,1.7-1.28,2.57-2.55,3.99-6,5.17a9.178,9.178,0,0,0-.74-.86,7.9,7.9,0,0,0,6.06-5.42H49.53v-.96h8.01Zm.29-2.89v.96H50.95V85.5Z" fill="#3e3a39"/>
  <path id="パス_254" data-name="パス 254" d="M64.51,86.1v2.95a5.9,5.9,0,0,1-3,5.61,2.9,2.9,0,0,0-.85-.76,4.7,4.7,0,0,0,2.76-4.75V85.64l1.06.07c.12.01.28.02.28.16,0,.11-.12.18-.24.23Zm3.12,8.13a3.247,3.247,0,0,0-.67.54l-.77-.54c.01-.24.04-.6.04-.94V85.54l1.07.05c.13,0,.24.01.24.13s-.11.16-.24.22v7.18a12.6,12.6,0,0,0,4.05-3.77,4.234,4.234,0,0,0,.58.91,16.814,16.814,0,0,1-4.29,3.96Z" fill="#3e3a39"/>
  <path id="パス_255" data-name="パス 255" d="M82.35,86.94c-1.32,3.67-2.55,6.21-7.16,8.4a3.159,3.159,0,0,0-.78-.83c3.56-1.49,5.44-3.37,6.88-7.86H73.27v-.97h7.81a1.933,1.933,0,0,0,.84-.12l.77.68a3.451,3.451,0,0,0-.34.7Z" fill="#3e3a39"/>
  <path id="パス_256" data-name="パス 256" d="M90.5,93.92v.64H89.42V86.39h8.42v8.17H96.76v-.64H90.5Zm6.26-.97V87.36H90.5v5.59Z" fill="#3e3a39"/>
  <path id="パス_257" data-name="パス 257" d="M100.38,90.76V89.7h10.2v1.06Z" fill="#3e3a39"/>
  <path id="パス_258" data-name="パス 258" d="M116.12,94.1c-.36.18-1.98.94-2.29,1.12l-.77-.79a4.165,4.165,0,0,0,.06-.71V85.31l1.08.05c.17.01.25.02.25.12,0,.16-.17.23-.25.26v8.04a16.189,16.189,0,0,0,7.05-4.98,6.734,6.734,0,0,0,.54,1.08,18.481,18.481,0,0,1-5.67,4.22Z" fill="#3e3a39"/>
  <path id="パス_259" data-name="パス 259" d="M126.56,88.49a13.568,13.568,0,0,0-3.41-2.29l.62-.89a16.331,16.331,0,0,1,3.43,2.27,6.791,6.791,0,0,0-.65.91Zm-2.34,6.48c-.01.2-.04.28-.17.28a.253.253,0,0,1-.19-.14l-.65-1.08a14.179,14.179,0,0,0,9.16-6.58,7.339,7.339,0,0,0,.66.94,16.249,16.249,0,0,1-8.82,6.6Z" fill="#3e3a39"/>
  <path id="パス_260" data-name="パス 260" d="M26.39,104.33a2.4,2.4,0,0,1,2.71,2.42,2.091,2.091,0,0,1-1.38,2.04,2.306,2.306,0,0,1,1.73,2.33,2.58,2.58,0,0,1-2.91,2.66H22.05v-9.45h4.34Zm-3.15,1.03v3.11h2.9c1.44,0,1.76-.92,1.76-1.56,0-.42-.14-1.55-1.76-1.55Zm0,4.02v3.37h3.07a1.71,1.71,0,0,0,1.94-1.69c0-.68-.36-1.68-1.98-1.68H23.23Z" fill="#3e3a39"/>
  <path id="パス_261" data-name="パス 261" d="M39.56,109.06c0,2.87-1.69,4.99-4.27,4.99s-4.26-2.1-4.26-4.99c0-2.71,1.55-4.99,4.26-4.99S39.56,106.4,39.56,109.06Zm-7.33,0c0,2.73,1.49,3.95,3.06,3.95,1.45,0,3.07-1.07,3.07-3.95s-1.5-3.95-3.07-3.95S32.23,106.24,32.23,109.06Z" fill="#3e3a39"/>
  <path id="パス_262" data-name="パス 262" d="M46.65,107c-.07-1.34-.78-1.88-2.06-1.88-.24,0-2.02,0-2.02,1.47,0,.98.66,1.24,2.53,1.93,1.92.72,3.01,1.12,3.01,2.72,0,1.2-.86,2.81-3.36,2.81-1.7,0-3.61-.79-3.67-3.11h1.26c.01,1.36.94,2.06,2.33,2.06s2.24-.76,2.24-1.66c0-.98-.79-1.28-2.3-1.81-2.07-.73-3.24-1.15-3.24-2.81s1.34-2.66,3.2-2.66a2.956,2.956,0,0,1,3.3,2.93H46.65Z" fill="#3e3a39"/>
  <path id="パス_263" data-name="パス 263" d="M55.17,107c-.07-1.34-.78-1.88-2.06-1.88-.24,0-2.02,0-2.02,1.47,0,.98.66,1.24,2.53,1.93,1.92.72,3.01,1.12,3.01,2.72,0,1.2-.86,2.81-3.36,2.81-1.7,0-3.61-.79-3.67-3.11h1.26c.01,1.36.94,2.06,2.33,2.06s2.24-.76,2.24-1.66c0-.98-.79-1.28-2.3-1.81-2.07-.73-3.24-1.15-3.24-2.81s1.34-2.66,3.2-2.66a2.956,2.956,0,0,1,3.3,2.93H55.17Z" fill="#3e3a39"/>
  <path id="パス_264" data-name="パス 264" d="M26.39,123.33a2.4,2.4,0,0,1,2.71,2.42,2.091,2.091,0,0,1-1.38,2.04,2.306,2.306,0,0,1,1.73,2.33,2.58,2.58,0,0,1-2.91,2.66H22.05v-9.45Zm-3.15,1.03v3.11h2.9c1.44,0,1.76-.92,1.76-1.56,0-.42-.14-1.55-1.76-1.55Zm0,4.02v3.37h3.07a1.71,1.71,0,0,0,1.94-1.69c0-.68-.36-1.68-1.98-1.68H23.23Z" fill="#3e3a39"/>
  <path id="パス_265" data-name="パス 265" d="M37.99,123.33v1.03H32.57v3.05h4.76v1.03H32.57v3.31H38.1v1.03H31.39v-9.45h6.6Z" fill="#3e3a39"/>
  <path id="パス_266" data-name="パス 266" d="M44.21,123.33l3.49,9.45H46.46l-.77-2.13H41.27l-.76,2.13H39.26l3.49-9.45H44.2Zm-.72,1.12-1.87,5.24h3.74l-1.87-5.24Z" fill="#3e3a39"/>
  <path id="パス_267" data-name="パス 267" d="M50.95,123.33l2.6,8.04,2.6-8.04H57.8v9.45H56.62v-8.06l-2.61,8.06h-.94l-2.6-8.06v8.06H49.28v-9.45h1.66Z" fill="#3e3a39"/>
  <path id="パス_268" data-name="パス 268" d="M65.24,126c-.07-1.34-.78-1.88-2.06-1.88-.24,0-2.01,0-2.01,1.47,0,.98.66,1.24,2.53,1.93,1.92.72,3.01,1.12,3.01,2.72,0,1.2-.86,2.81-3.36,2.81-1.7,0-3.61-.79-3.67-3.11h1.26c.01,1.36.94,2.06,2.33,2.06s2.24-.76,2.24-1.66c0-.98-.79-1.28-2.3-1.81-2.08-.73-3.24-1.15-3.24-2.81s1.34-2.66,3.2-2.66a2.956,2.956,0,0,1,3.3,2.93H65.25Z" fill="#3e3a39"/>
  <path id="パス_269" data-name="パス 269" d="M22.97,144.89l.02,1.01a2.536,2.536,0,0,1,2.18-1.26,2.43,2.43,0,0,1,2.47,2.58v4.57H26.56v-4.5a1.649,1.649,0,0,0-1.69-1.74,1.935,1.935,0,0,0-1.88,1.98v4.26H21.9v-6.9Z" fill="#3e3a39"/>
  <path id="パス_270" data-name="パス 270" d="M29.82,146.88c.05-1.56,1.4-2.24,2.88-2.24.96,0,2.82.35,2.82,2.28v3.71a1.584,1.584,0,0,0,.3,1.01v.16H34.64a1.762,1.762,0,0,1-.2-.85,3.418,3.418,0,0,1-2.53,1.12,2.214,2.214,0,0,1-2.48-2.12c0-1.58,1.42-1.86,3.72-2.23.85-.13,1.31-.2,1.31-.89,0-.28-.17-1.26-1.75-1.26-1,0-1.74.38-1.8,1.33H29.83Zm4.62,1.33a3.34,3.34,0,0,1-1.38.35c-2.01.3-2.5.55-2.5,1.34,0,.5.35,1.22,1.51,1.22a2.279,2.279,0,0,0,2.36-1.64v-1.27Z" fill="#3e3a39"/>
  <path id="パス_271" data-name="パス 271" d="M38.69,144.89l.02,1.01a2.536,2.536,0,0,1,2.18-1.26,2.435,2.435,0,0,1,2.47,2.58v4.57H42.28v-4.5a1.649,1.649,0,0,0-1.69-1.74,1.935,1.935,0,0,0-1.88,1.98v4.26H37.62v-6.9Z" fill="#3e3a39"/>
  <path id="パス_272" data-name="パス 272" d="M51.57,148.34c0,2.78-1.73,3.71-3.21,3.71-1.75,0-3.23-1.19-3.23-3.65,0-3.26,2.16-3.77,3.23-3.77,1.48,0,3.21.9,3.21,3.71Zm-5.3,0c0,1.15.54,2.78,2.09,2.78s2.08-1.66,2.08-2.78-.53-2.79-2.08-2.79S46.27,147.19,46.27,148.34Z" fill="#3e3a39"/>
  <path id="パス_273" data-name="パス 273" d="M56.32,147.23a.875.875,0,1,1-.87-.87A.867.867,0,0,1,56.32,147.23Z" fill="#3e3a39"/>
  <path id="パス_274" data-name="パス 274" d="M60.73,144.89v4.5a1.646,1.646,0,0,0,1.68,1.74,1.944,1.944,0,0,0,1.89-1.98v-4.26h1.08v6.9H64.31v-1.01a2.617,2.617,0,0,1-2.21,1.27,2.444,2.444,0,0,1-2.47-2.59v-4.57h1.09Z" fill="#3e3a39"/>
  <path id="パス_275" data-name="パス 275" d="M68.57,144.89l.02,1.01a2.536,2.536,0,0,1,2.18-1.26,2.43,2.43,0,0,1,2.47,2.58v4.57H72.16v-4.5a1.649,1.649,0,0,0-1.69-1.74,1.935,1.935,0,0,0-1.88,1.98v4.26H67.5v-6.9Z" fill="#3e3a39"/>
  <path id="パス_276" data-name="パス 276" d="M76.64,143.68H75.38v-1.34h1.26Zm-.08,8.11H75.47v-6.9h1.09Z" fill="#3e3a39"/>
  <path id="パス_277" data-name="パス 277" d="M79.39,144.89l2.26,5.78,2.25-5.78h1.22l-2.85,6.9H81.02l-2.85-6.9h1.22Z" fill="#3e3a39"/>
  <path id="パス_278" data-name="パス 278" d="M92.63,149.65a2.809,2.809,0,0,1-3.06,2.4c-2.99,0-3.29-2.71-3.29-3.72,0-2.04,1.02-3.69,3.19-3.69s3.24,1.66,3.25,3.96H87.41c.07,1.5.62,2.53,2.15,2.53a1.758,1.758,0,0,0,1.92-1.48h1.15Zm-1.04-1.92c-.2-1.37-.86-2.18-2.09-2.18s-1.88.82-2.06,2.18h4.15Z" fill="#3e3a39"/>
  <path id="パス_279" data-name="パス 279" d="M95.58,144.89v.95a2.492,2.492,0,0,1,2.48-1.2h.49v1.09h-.54a3.189,3.189,0,0,0-1.5.31,1.989,1.989,0,0,0-.92,1.66v4.09H94.5v-6.9h1.08Z" fill="#3e3a39"/>
  <path id="パス_280" data-name="パス 280" d="M100.85,149.71a1.509,1.509,0,0,0,1.67,1.42c.23,0,1.74,0,1.74-1.13,0-.73-.41-.86-1.85-1.29-1.68-.5-2.53-.76-2.53-2.08,0-1.56,1.58-1.99,2.63-1.99,2.48,0,2.67,1.54,2.76,2.17h-1.13c-.04-1.22-1.27-1.26-1.58-1.26-1.01,0-1.54.42-1.54.97,0,.59.17.77,1.98,1.32,1.55.48,2.4.84,2.4,2.04,0,1.56-1.39,2.17-2.76,2.17-2.58,0-2.84-1.68-2.93-2.34Z" fill="#3e3a39"/>
  <path id="パス_281" data-name="パス 281" d="M113.08,149.65a2.809,2.809,0,0,1-3.06,2.4c-2.99,0-3.29-2.71-3.29-3.72,0-2.04,1.02-3.69,3.19-3.69s3.24,1.66,3.25,3.96h-5.31c.07,1.5.62,2.53,2.15,2.53a1.758,1.758,0,0,0,1.92-1.48h1.15Zm-1.04-1.92c-.2-1.37-.86-2.18-2.09-2.18s-1.88.82-2.06,2.18h4.15Z" fill="#3e3a39"/>
  <path id="パス_282" data-name="パス 282" d="M28.88,161.33v1.03H25.7v8.42H24.51v-8.42H21.33v-1.03h7.54Z" fill="#3e3a39"/>
  <path id="パス_283" data-name="パス 283" d="M38.67,166.06c0,2.87-1.69,4.99-4.27,4.99s-4.26-2.1-4.26-4.99c0-2.71,1.55-4.99,4.26-4.99S38.67,163.4,38.67,166.06Zm-7.33,0c0,2.73,1.49,3.95,3.06,3.95,1.45,0,3.07-1.07,3.07-3.95s-1.5-3.95-3.07-3.95S31.34,163.24,31.34,166.06Z" fill="#3e3a39"/>
  <path id="パス_284" data-name="パス 284" d="M42.22,161.33l2.6,8.04,2.6-8.04h1.65v9.45H47.89v-8.06l-2.61,8.06h-.94l-2.6-8.06v8.06H40.55v-9.45h1.66Z" fill="#3e3a39"/>
  <path id="パス_285" data-name="パス 285" d="M52.96,161.33l2.6,8.04,2.6-8.04h1.66v9.45H58.64v-8.06l-2.61,8.06h-.94l-2.6-8.06v8.06H51.3v-9.45Z" fill="#3e3a39"/>
  <path id="パス_286" data-name="パス 286" d="M62.82,161.33l2.82,4.61,2.81-4.61h1.4l-3.62,5.75v3.71H65.04v-3.71l-3.62-5.75h1.4Z" fill="#3e3a39"/>
  <path id="パス_287" data-name="パス 287" d="M76.97,161.33v3.97h5.4v-3.97h1.19v9.45H82.37v-4.46h-5.4v4.46H75.8v-9.45Z" fill="#3e3a39"/>
  <path id="パス_288" data-name="パス 288" d="M87.01,170.78H85.82v-9.45h1.19Z" fill="#3e3a39"/>
  <path id="パス_289" data-name="パス 289" d="M90.48,161.33v8.42h4.77v1.03H89.29v-9.45Z" fill="#3e3a39"/>
  <path id="パス_290" data-name="パス 290" d="M103.11,161.33v1.03H98.34v3.21h4.1v1.03h-4.1v4.17H97.15v-9.45h5.96Z" fill="#3e3a39"/>
  <path id="パス_291" data-name="パス 291" d="M106.14,170.78h-1.19v-9.45h1.19Z" fill="#3e3a39"/>
  <path id="パス_292" data-name="パス 292" d="M116.37,166.07v4.71h-.91l-.07-1.58a3.626,3.626,0,0,1-3.14,1.85c-1.86,0-4.22-1.36-4.22-4.99s2.5-4.99,4.31-4.99a3.953,3.953,0,0,1,3.99,3.32h-1.25a2.766,2.766,0,0,0-2.81-2.28c-1.34,0-3.05.94-3.05,3.96,0,3.23,1.93,3.93,2.95,3.93a3.219,3.219,0,0,0,3.01-2.97h-2.83v-.96h4.02Z" fill="#3e3a39"/>
  <path id="パス_293" data-name="パス 293" d="M125.06,161.33v1.03h-5.42v3.05h4.76v1.03h-4.76v3.31h5.53v1.03h-6.7v-9.45h6.6Z" fill="#3e3a39"/>
  <path id="パス_294" data-name="パス 294" d="M131.5,161.33c2.47,0,2.94,1.55,2.94,2.51a2.375,2.375,0,0,1-1.82,2.46,1.9,1.9,0,0,1,1.61,2.03v.7c0,1.21.28,1.44.48,1.62v.14h-1.37a2.7,2.7,0,0,1-.29-1.55v-.8c0-.84-.42-1.67-1.92-1.67h-2.9v4.02h-1.19v-9.45h4.46Zm-3.27,1.03v3.37h3.17a1.712,1.712,0,0,0,1.85-1.75c0-.86-.5-1.62-1.93-1.62h-3.08Z" fill="#3e3a39"/>
  <path id="パス_295" data-name="パス 295" d="M31.67,182.28a16.122,16.122,0,0,1-3.7,3.83,3.917,3.917,0,0,0-.74-.76,9.6,9.6,0,0,0,3.25-3.19H21.75v-.98h8.96a2.124,2.124,0,0,0,.66-.11l.72.66a4.538,4.538,0,0,0-.41.55Zm-4.52,1.31c-.07,1.88-.22,4.96-3.78,6.98a7.844,7.844,0,0,0-.91-.7c2.7-1.4,3.73-3.26,3.56-6.73l1.13.1c.12.01.24.06.24.13,0,.12-.13.17-.24.22Z" fill="#3e3a39"/>
  <path id="パス_296" data-name="パス 296" d="M39.41,184.74a5.489,5.489,0,0,1-4.11,5.73,3.768,3.768,0,0,0-.77-.85c3.39-.95,3.84-2.99,3.84-4.88H33.61v-.96H43.67v.96H39.41Zm-4.22-3.23v-.96h6.75v.96Zm8.11.82a6.319,6.319,0,0,0-1.24-1.25l.5-.53a11.247,11.247,0,0,1,1.28,1.21,3.649,3.649,0,0,0-.55.56Zm.79-.85a6.762,6.762,0,0,0-1.25-1.25l.5-.53a9.134,9.134,0,0,1,1.28,1.21,2.877,2.877,0,0,0-.54.56Z" fill="#3e3a39"/>
  <path id="パス_297" data-name="パス 297" d="M52.74,182.61a17.27,17.27,0,0,1-2.46,2.23v5.5h-.95V185.5a18.057,18.057,0,0,1-3.38,1.63,3.3,3.3,0,0,0-.67-.78,13.233,13.233,0,0,0,6.88-4.63l.79.59a.275.275,0,0,1,.13.19c0,.13-.12.13-.35.11Z" fill="#3e3a39"/>
  <path id="パス_298" data-name="パス 298" d="M63.27,182.72a14.456,14.456,0,0,1-1.77,3.68,11.2,11.2,0,0,1,1.51,1.54,7.362,7.362,0,0,0-.72.87,11.251,11.251,0,0,0-1.43-1.59,12.373,12.373,0,0,1-4.99,3.33,8.145,8.145,0,0,0-.7-.94,10.675,10.675,0,0,0,4.9-3.07,19.834,19.834,0,0,0-2.53-1.73l.64-.73a29.968,29.968,0,0,1,2.51,1.67,10.859,10.859,0,0,0,1.33-2.94H58.31a13.22,13.22,0,0,1-2.89,3.09,3.708,3.708,0,0,0-.8-.76,10.653,10.653,0,0,0,4.04-5.34l1.08.32c.17.05.21.1.21.16,0,.14-.21.16-.28.16-.23.43-.5.98-.77,1.43h3.3a2.169,2.169,0,0,0,.78-.12l.53.47a3.571,3.571,0,0,0-.24.49Zm-.58-1.55a10.516,10.516,0,0,0-1.13-1.27l.61-.46a10.869,10.869,0,0,1,1.13,1.25,2.533,2.533,0,0,0-.61.48Zm1.64-.02a9.618,9.618,0,0,0-1.14-1.34l.61-.42a10.092,10.092,0,0,1,1.16,1.3,3.315,3.315,0,0,0-.64.47Z" fill="#3e3a39"/>
  <path id="パス_299" data-name="パス 299" d="M75.4,190a15.874,15.874,0,0,0-3.77-3.9,13.356,13.356,0,0,1-5.17,4.05,2.438,2.438,0,0,0-.67-.92,11.335,11.335,0,0,0,6.91-7.47H66.84v-.98h6.03a3.862,3.862,0,0,0,.82-.08l.59.55a3.86,3.86,0,0,0-.44.79,18.119,18.119,0,0,1-1.66,3.29,20.776,20.776,0,0,1,4.07,3.83,5.625,5.625,0,0,0-.84.85Z" fill="#3e3a39"/>
  <path id="パス_300" data-name="パス 300" d="M27.79,202.84a6.867,6.867,0,0,1-4.29,6.7,2.867,2.867,0,0,0-.8-.83,5.793,5.793,0,0,0,4.02-5.88H21.67v-.97h5.05v-2.88l1.08.04c.12,0,.26.01.26.14s-.18.19-.26.23v2.47h4.09v.97H27.8Z" fill="#3e3a39"/>
  <path id="パス_301" data-name="パス 301" d="M42.75,199.74a1.249,1.249,0,0,1-.24-.02,19.113,19.113,0,0,1-3.06,2.82v6.91H38.36V203.3a22.032,22.032,0,0,1-4.34,2.11,4.705,4.705,0,0,0-.78-.91,16.473,16.473,0,0,0,8.61-5.78l1,.72a.206.206,0,0,1,.1.17c0,.1-.08.14-.19.14Z" fill="#3e3a39"/>
  <path id="パス_302" data-name="パス 302" d="M50.21,205.28l.58,4.04-1.03.18-.6-4.09-4.57.59-.13-.98,4.56-.59-.34-2.24-3.35.43-.11-.98,3.32-.42-.31-2.15,1.06-.12c.07-.01.25-.04.25.12,0,.1-.05.13-.19.24l.25,1.77,3.19-.41.11.97-3.15.41.32,2.24,4.35-.55.12.98-4.33.55Z" fill="#3e3a39"/>
  <path id="パス_303" data-name="パス 303" d="M56.22,208.02v-.97h5.89l1.02-5.76H57.97v-.97h6.46l-1.2,6.73h3.23v.97Z" fill="#3e3a39"/>
  <path id="パス_304" data-name="パス 304" d="M74.31,202.84a6.867,6.867,0,0,1-4.29,6.7,2.867,2.867,0,0,0-.8-.83,5.793,5.793,0,0,0,4.02-5.88H68.19v-.97h5.05v-2.88l1.08.04c.12,0,.26.01.26.14s-.18.19-.26.23v2.47h4.09v.97H74.32Z" fill="#3e3a39"/>
  <path id="パス_305" data-name="パス 305" d="M89.28,199.74a1.249,1.249,0,0,1-.24-.02,19.114,19.114,0,0,1-3.06,2.82v6.91H84.89V203.3a22.032,22.032,0,0,1-4.34,2.11,4.705,4.705,0,0,0-.78-.91,16.473,16.473,0,0,0,8.61-5.78l1,.72a.206.206,0,0,1,.1.17c0,.1-.08.14-.19.14Z" fill="#3e3a39"/>
  <path id="パス_306" data-name="パス 306" d="M97.41,206.11a16.786,16.786,0,0,0-4.44-3.05v6.31H91.89V199l1.09.08c.16.01.23.05.23.14,0,.13-.16.17-.24.18v3.42l.47-.65a19.33,19.33,0,0,1,4.61,3.06,7.06,7.06,0,0,0-.64.87Z" fill="#3e3a39"/>
  <path id="パス_307" data-name="パス 307" d="M165.34,47.33V53.4a2.7,2.7,0,0,0,5.4,0V47.33h1.19v5.94c0,1.8-.87,3.78-3.9,3.78a3.486,3.486,0,0,1-3.86-3.78V47.33h1.18Z" fill="#3e3a39"/>
  <path id="パス_308" data-name="パス 308" d="M175.42,47.33l5.4,7.68V47.33h1.19v9.45h-1.19l-5.4-7.68v7.68h-1.18V47.33Z" fill="#3e3a39"/>
  <path id="パス_309" data-name="パス 309" d="M185.46,56.78h-1.19V47.33h1.19Z" fill="#3e3a39"/>
  <path id="パス_310" data-name="パス 310" d="M194.6,47.33v1.03h-3.18v8.42h-1.19V48.36h-3.18V47.33h7.54Z" fill="#3e3a39"/>
  <path id="パス_311" data-name="パス 311" d="M202.82,47.33v1.03H197.4v3.05h4.76v1.03H197.4v3.31h5.53v1.03h-6.7V47.33h6.6Z" fill="#3e3a39"/>
  <path id="パス_312" data-name="パス 312" d="M208.05,47.33c2.35,0,4.16,1.58,4.16,4.65,0,3.91-2.48,4.8-4.16,4.8h-3.24V47.33ZM206,48.36v7.39h2.04c1.96,0,2.97-1.64,2.97-3.73,0-1.76-.85-3.66-2.97-3.66Z" fill="#3e3a39"/>
  <path id="パス_313" data-name="パス 313" d="M222.75,47.33l3.49,9.45H225l-.77-2.13h-4.42l-.76,2.13H217.8l3.49-9.45h1.45Zm-.72,1.12-1.87,5.24h3.74l-1.87-5.24Z" fill="#3e3a39"/>
  <path id="パス_314" data-name="パス 314" d="M232.38,47.33c2.47,0,2.94,1.55,2.94,2.51a2.375,2.375,0,0,1-1.82,2.46,1.9,1.9,0,0,1,1.61,2.03v.7c0,1.21.28,1.44.48,1.62v.14h-1.37a2.7,2.7,0,0,1-.29-1.55v-.8c0-.84-.42-1.67-1.92-1.67h-2.9v4.02h-1.19V47.34h4.46Zm-3.27,1.03v3.37h3.17a1.712,1.712,0,0,0,1.85-1.75c0-.86-.5-1.62-1.93-1.62h-3.08Z" fill="#3e3a39"/>
  <path id="パス_315" data-name="パス 315" d="M241.79,47.33c2.47,0,2.94,1.55,2.94,2.51a2.375,2.375,0,0,1-1.82,2.46,1.9,1.9,0,0,1,1.61,2.03v.7c0,1.21.28,1.44.48,1.62v.14h-1.37a2.7,2.7,0,0,1-.29-1.55v-.8c0-.84-.42-1.67-1.92-1.67h-2.9v4.02h-1.19V47.34h4.46Zm-3.27,1.03v3.37h3.17a1.712,1.712,0,0,0,1.85-1.75c0-.86-.5-1.62-1.93-1.62h-3.08Z" fill="#3e3a39"/>
  <path id="パス_316" data-name="パス 316" d="M254.84,52.06c0,2.87-1.69,4.99-4.27,4.99s-4.26-2.1-4.26-4.99c0-2.71,1.55-4.99,4.26-4.99s4.27,2.33,4.27,4.99Zm-7.33,0c0,2.73,1.49,3.95,3.06,3.95,1.45,0,3.07-1.07,3.07-3.95s-1.5-3.95-3.07-3.95S247.51,49.24,247.51,52.06Z" fill="#3e3a39"/>
  <path id="パス_317" data-name="パス 317" d="M257.34,47.33l1.69,8.32,1.68-8.32h1.45l1.68,8.32,1.69-8.32h1.25l-2.15,9.45h-1.54l-1.67-8.2-1.67,8.2h-1.54l-2.13-9.45h1.25Z" fill="#3e3a39"/>
  <path id="パス_318" data-name="パス 318" d="M273.56,50c-.07-1.34-.78-1.88-2.06-1.88-.24,0-2.02,0-2.02,1.47,0,.98.66,1.24,2.53,1.93,1.92.72,3.01,1.12,3.01,2.72,0,1.2-.86,2.81-3.36,2.81-1.7,0-3.61-.79-3.67-3.11h1.26c.01,1.36.94,2.06,2.33,2.06s2.24-.76,2.24-1.66c0-.98-.79-1.28-2.3-1.81-2.07-.73-3.24-1.15-3.24-2.81s1.34-2.66,3.2-2.66a2.956,2.956,0,0,1,3.3,2.93h-1.22Z" fill="#3e3a39"/>
  <path id="パス_319" data-name="パス 319" d="M282.42,47.33v8.42h4.77v1.03h-5.96V47.33h1.19Z" fill="#3e3a39"/>
  <path id="パス_320" data-name="パス 320" d="M295.95,47.33v1.03h-3.18v8.42h-1.19V48.36H288.4V47.33h7.54Z" fill="#3e3a39"/>
  <path id="パス_321" data-name="パス 321" d="M300.88,47.33c2.35,0,4.16,1.58,4.16,4.65,0,3.91-2.48,4.8-4.16,4.8h-3.24V47.33Zm-2.05,1.03v7.39h2.04c1.96,0,2.97-1.64,2.97-3.73,0-1.76-.85-3.66-2.97-3.66Z" fill="#3e3a39"/>
  <path id="パス_322" data-name="パス 322" d="M308.19,56.78h-1.25V55.45h1.25Z" fill="#3e3a39"/>
  <path id="パス_323" data-name="パス 323" d="M170.14,66.33v1.03h-4.77v3.21h4.1V71.6h-4.1v4.17h-1.19V66.32h5.96Z" fill="#3e3a39"/>
  <path id="パス_324" data-name="パス 324" d="M173.2,66.33V72.4a2.7,2.7,0,0,0,5.4,0V66.33h1.19v5.94c0,1.8-.88,3.78-3.9,3.78a3.486,3.486,0,0,1-3.86-3.78V66.33h1.17Z" fill="#3e3a39"/>
  <path id="パス_325" data-name="パス 325" d="M186.6,66.33c2.47,0,2.94,1.55,2.94,2.51a2.375,2.375,0,0,1-1.82,2.46,1.9,1.9,0,0,1,1.61,2.03v.7c0,1.21.28,1.44.48,1.62v.14h-1.37a2.7,2.7,0,0,1-.29-1.55v-.8c0-.84-.42-1.67-1.92-1.67h-2.9v4.02h-1.19V66.34h4.46Zm-3.27,1.03v3.37h3.17a1.712,1.712,0,0,0,1.85-1.75c0-.86-.5-1.62-1.93-1.62h-3.08Z" fill="#3e3a39"/>
  <path id="パス_326" data-name="パス 326" d="M192.71,66.33v8.42h4.77v1.03h-5.96V66.33Z" fill="#3e3a39"/>
  <path id="パス_327" data-name="パス 327" d="M203.64,66.33l3.49,9.45h-1.24l-.77-2.13H200.7l-.76,2.13h-1.25l3.49-9.45h1.45Zm-.72,1.12-1.87,5.24h3.74l-1.87-5.24Z" fill="#3e3a39"/>
  <path id="パス_328" data-name="パス 328" d="M168.9,90.29v2.54c0,1.09.43,1.18,1.94,1.18.29,0,2.28-.04,2.69-.05a4.888,4.888,0,0,0-.05,1.01,27.48,27.48,0,0,1-4.21-.08c-1.43-.3-1.44-1.46-1.44-2.17V90.3h-3.97v-.96h3.97V86.69h-2.91v-.96h8v.96H168.9v2.65h5.11v.96H168.9Z" fill="#3e3a39"/>
  <path id="パス_329" data-name="パス 329" d="M175.79,90.76V89.7H186v1.06Z" fill="#3e3a39"/>
  <path id="パス_330" data-name="パス 330" d="M196.24,87.72a14.044,14.044,0,0,1-1.78,3.68,11.2,11.2,0,0,1,1.51,1.54,7.363,7.363,0,0,0-.72.87,11.251,11.251,0,0,0-1.43-1.59,12.373,12.373,0,0,1-4.99,3.33,8.144,8.144,0,0,0-.7-.94,10.748,10.748,0,0,0,4.91-3.07,20.566,20.566,0,0,0-2.53-1.73l.63-.73a29.968,29.968,0,0,1,2.51,1.67,10.859,10.859,0,0,0,1.33-2.94h-3.7a13.22,13.22,0,0,1-2.89,3.09,3.708,3.708,0,0,0-.8-.76,10.711,10.711,0,0,0,4.04-5.34l1.08.32c.17.05.2.1.2.16,0,.14-.2.16-.28.16-.23.43-.5.98-.77,1.43h3.3a2.169,2.169,0,0,0,.78-.12l.53.47a3.572,3.572,0,0,0-.24.49Zm-.58-1.55a10.516,10.516,0,0,0-1.13-1.27l.61-.46a10.869,10.869,0,0,1,1.13,1.25,2.743,2.743,0,0,0-.61.48Zm1.64-.02a9.618,9.618,0,0,0-1.14-1.34l.61-.42a10.092,10.092,0,0,1,1.16,1.3,3.315,3.315,0,0,0-.64.47Z" fill="#3e3a39"/>
  <path id="パス_331" data-name="パス 331" d="M200.38,91.15a.911.911,0,0,1-.92-.92.92.92,0,1,1,.92.92Z" fill="#3e3a39"/>
  <path id="パス_332" data-name="パス 332" d="M212.25,87.89c-1.14,2.69-2.58,6.1-6.98,7.87a4.235,4.235,0,0,0-.79-.78,10.452,10.452,0,0,0,6.58-7.24h-3.98a16.265,16.265,0,0,1-3.06,3.44,8.146,8.146,0,0,0-.8-.74,12.785,12.785,0,0,0,4.16-5.57l1.01.43s.17.07.17.17c0,.13-.2.17-.29.17-.3.6-.44.85-.61,1.14h3.59a1.838,1.838,0,0,0,.79-.18l.6.56a4.335,4.335,0,0,0-.38.73Z" fill="#3e3a39"/>
  <path id="パス_333" data-name="パス 333" d="M217.98,94.1c-.36.18-1.98.94-2.29,1.12l-.77-.79a4.166,4.166,0,0,0,.06-.71V85.31l1.08.05c.17.01.25.02.25.12,0,.16-.17.23-.25.26v8.04a16.189,16.189,0,0,0,7.05-4.98,6.734,6.734,0,0,0,.54,1.08,18.481,18.481,0,0,1-5.67,4.22Z" fill="#3e3a39"/>
  <path id="パス_334" data-name="パス 334" d="M234.95,87.28a15.743,15.743,0,0,1-3.71,3.83,3.917,3.917,0,0,0-.74-.76,9.6,9.6,0,0,0,3.25-3.19h-8.73v-.98h8.96a2.124,2.124,0,0,0,.66-.11l.72.66A4.539,4.539,0,0,0,234.95,87.28Zm-4.52,1.31c-.07,1.88-.21,4.96-3.78,6.98a7.842,7.842,0,0,0-.91-.7c2.7-1.4,3.73-3.26,3.56-6.73l1.13.1c.12.01.24.06.24.13C230.67,88.49,230.54,88.54,230.43,88.59Z" fill="#3e3a39"/>
  <path id="パス_335" data-name="パス 335" d="M168.9,109.29v2.54c0,1.09.43,1.18,1.94,1.18.29,0,2.28-.04,2.69-.05a4.888,4.888,0,0,0-.05,1.01,27.48,27.48,0,0,1-4.21-.08c-1.43-.3-1.44-1.46-1.44-2.17V109.3h-3.97v-.96h3.97v-2.65h-2.91v-.96h8v.96H168.9v2.65h5.11v.96H168.9Z" fill="#3e3a39"/>
  <path id="パス_336" data-name="パス 336" d="M179.16,107.49a13.568,13.568,0,0,0-3.41-2.29l.62-.89a16.331,16.331,0,0,1,3.43,2.27,6.79,6.79,0,0,0-.65.91Zm-2.34,6.48c-.01.2-.04.28-.17.28a.253.253,0,0,1-.19-.14l-.65-1.08a14.18,14.18,0,0,0,9.16-6.58,7.339,7.339,0,0,0,.66.94,16.268,16.268,0,0,1-8.81,6.6Z" fill="#3e3a39"/>
  <path id="パス_337" data-name="パス 337" d="M197.47,112.62a39.635,39.635,0,0,1-4.09-4.38c-1.24-1.52-1.37-1.69-1.8-1.69-.37,0-.66.31-1.28,1.03-.65.75-2.04,2.41-2.34,2.79.01.12.01.28-.14.28-.06,0-.11-.05-.18-.12l-.76-.79a12.473,12.473,0,0,0,2.16-2.19c1.4-1.67,1.82-2.06,2.57-2.06.79,0,1.21.49,2.46,2.06a29.028,29.028,0,0,0,4.08,4.14,5.873,5.873,0,0,0-.67.94Zm-.96-5.91a8.511,8.511,0,0,0-1.21-1.28l.53-.54a10.848,10.848,0,0,1,1.24,1.28,2.791,2.791,0,0,0-.55.54Zm.92-1.03a6.659,6.659,0,0,0-1.2-1.33l.55-.47a8.475,8.475,0,0,1,1.22,1.26,2.485,2.485,0,0,0-.58.54Z" fill="#3e3a39"/>
  <path id="パス_338" data-name="パス 338" d="M203.04,105.1v2.95a5.9,5.9,0,0,1-3,5.61,2.9,2.9,0,0,0-.85-.76,4.7,4.7,0,0,0,2.76-4.75v-3.51l1.06.07c.12.01.28.02.28.16,0,.11-.12.18-.24.23Zm3.12,8.13a3.248,3.248,0,0,0-.67.54l-.77-.54c.01-.24.04-.6.04-.94v-7.75l1.07.05c.13,0,.24.01.24.13s-.11.16-.24.22v7.18a12.6,12.6,0,0,0,4.05-3.77,4.233,4.233,0,0,0,.58.91,16.814,16.814,0,0,1-4.29,3.96Z" fill="#3e3a39"/>
  <path id="パス_339" data-name="パス 339" d="M164.08,131.89v-1h7.41v-5.3h-7.41v-1h8.5v7.88h-1.09v-.59h-7.41Z" fill="#3e3a39"/>
  <path id="パス_340" data-name="パス 340" d="M174.9,128.76V127.7h10.21v1.06Z" fill="#3e3a39"/>
  <path id="パス_341" data-name="パス 341" d="M190.51,124.1v2.95a5.9,5.9,0,0,1-3,5.61,2.9,2.9,0,0,0-.85-.76,4.7,4.7,0,0,0,2.76-4.75v-3.51l1.05.07c.12.01.28.02.28.16,0,.11-.12.18-.24.23Zm3.12,8.13a3.248,3.248,0,0,0-.67.54l-.77-.54c.01-.24.04-.6.04-.94v-7.75l1.07.05c.13,0,.24.01.24.13s-.11.16-.24.22v7.18a12.6,12.6,0,0,0,4.05-3.77,4.233,4.233,0,0,0,.58.91,16.814,16.814,0,0,1-4.29,3.96Z" fill="#3e3a39"/>
  <path id="パス_342" data-name="パス 342" d="M207.5,124.75a18.62,18.62,0,0,1-1.67,5.19,10.324,10.324,0,0,1-1.79,2.6,5.1,5.1,0,0,0-.98-.54,13.577,13.577,0,0,0,3.41-7.86l1.06.24c.16.04.23.07.23.17,0,.07-.05.16-.25.19Zm5.84,7.58a18.155,18.155,0,0,0-3.57-7.77l.83-.61a19.279,19.279,0,0,1,3.78,7.8,4.873,4.873,0,0,0-1.03.59Z" fill="#3e3a39"/>
  <path id="パス_343" data-name="パス 343" d="M215.87,128.76V127.7h10.21v1.06Z" fill="#3e3a39"/>
  <path id="パス_344" data-name="パス 344" d="M231.31,126.49a13.568,13.568,0,0,0-3.41-2.29l.62-.89a16.331,16.331,0,0,1,3.43,2.27,6.79,6.79,0,0,0-.65.91Zm-2.34,6.48c-.01.2-.04.28-.17.28a.253.253,0,0,1-.19-.14l-.65-1.08a14.18,14.18,0,0,0,9.16-6.58,7.339,7.339,0,0,0,.66.94,16.268,16.268,0,0,1-8.81,6.6Z" fill="#3e3a39"/>
  <path id="パス_345" data-name="パス 345" d="M168.43,142.33l3.49,9.45h-1.23l-.77-2.13h-4.43l-.76,2.13h-1.25l3.49-9.45h1.45Zm-.72,1.12-1.87,5.24h3.74l-1.87-5.24Z" fill="#3e3a39"/>
  <path id="パス_346" data-name="パス 346" d="M174.55,144.89v.95a2.492,2.492,0,0,1,2.48-1.2h.49v1.09h-.54a3.189,3.189,0,0,0-1.5.31,1.989,1.989,0,0,0-.92,1.66v4.09h-1.09v-6.9h1.08Z" fill="#3e3a39"/>
  <path id="パス_347" data-name="パス 347" d="M180.16,144.89l.02,1.01a2.536,2.536,0,0,1,2.18-1.26,2.435,2.435,0,0,1,2.47,2.58v4.57h-1.08v-4.5a1.649,1.649,0,0,0-1.69-1.74,1.935,1.935,0,0,0-1.88,1.98v4.26h-1.09v-6.9Z" fill="#3e3a39"/>
  <path id="パス_348" data-name="パス 348" d="M193.04,148.34c0,2.78-1.73,3.71-3.21,3.71-1.75,0-3.23-1.19-3.23-3.65,0-3.26,2.16-3.77,3.23-3.77,1.48,0,3.21.9,3.21,3.71Zm-5.3,0c0,1.15.54,2.78,2.09,2.78s2.08-1.66,2.08-2.78-.53-2.79-2.08-2.79S187.74,147.19,187.74,148.34Z" fill="#3e3a39"/>
  <path id="パス_349" data-name="パス 349" d="M196.01,142.33v9.45h-1.09v-9.45Z" fill="#3e3a39"/>
  <path id="パス_350" data-name="パス 350" d="M203.96,142.33v9.45h-1.07v-.92a2.442,2.442,0,0,1-2.17,1.19c-1.58,0-2.85-1.31-2.85-3.69,0-2.65,1.49-3.72,2.88-3.72a2.32,2.32,0,0,1,2.13,1.18v-3.48h1.08Zm-4.95,6.01c0,2.5,1.37,2.78,1.93,2.78.53,0,1.94-.25,1.94-2.78s-1.31-2.79-1.94-2.79C200.46,145.55,199.01,145.77,199.01,148.34Z" fill="#3e3a39"/>
  <path id="パス_351" data-name="パス 351" d="M214.75,142.33a2.843,2.843,0,0,1,3.17,2.93c0,2.06-1.33,2.9-3.17,2.9H211.7v3.62h-1.19v-9.45h4.23Zm-3.05,1.03v3.78h2.95a1.855,1.855,0,0,0,2.04-1.87,1.884,1.884,0,0,0-2.04-1.91Z" fill="#3e3a39"/>
  <path id="パス_352" data-name="パス 352" d="M219.84,146.88c.05-1.56,1.4-2.24,2.88-2.24.96,0,2.82.35,2.82,2.28v3.71a1.584,1.584,0,0,0,.3,1.01v.16h-1.17a1.762,1.762,0,0,1-.2-.85,3.418,3.418,0,0,1-2.53,1.12,2.214,2.214,0,0,1-2.48-2.12c0-1.58,1.41-1.86,3.72-2.23.85-.13,1.31-.2,1.31-.89,0-.28-.17-1.26-1.75-1.26-1,0-1.74.38-1.8,1.33h-1.08Zm4.62,1.33a3.34,3.34,0,0,1-1.38.35c-2.01.3-2.49.55-2.49,1.34,0,.5.35,1.22,1.51,1.22a2.279,2.279,0,0,0,2.36-1.64v-1.27Z" fill="#3e3a39"/>
  <path id="パス_353" data-name="パス 353" d="M228.84,142.33v9.45h-1.09v-9.45Z" fill="#3e3a39"/>
  <path id="パス_354" data-name="パス 354" d="M232.07,144.89v.79a2.158,2.158,0,0,1,1.93-1.04,1.778,1.778,0,0,1,1.75,1.21,2.1,2.1,0,0,1,1.99-1.21,1.926,1.926,0,0,1,2,2.11v5.04h-1.09v-4.83c0-.62-.2-1.4-1.18-1.4-1.43,0-1.57,1.46-1.57,1.82v4.41h-1.08v-4.83c0-.24-.06-1.4-1.18-1.4a1.653,1.653,0,0,0-1.57,1.73v4.51h-1.08v-6.9h1.07Z" fill="#3e3a39"/>
  <path id="パス_355" data-name="パス 355" d="M247.79,149.65a2.809,2.809,0,0,1-3.06,2.4c-2.99,0-3.29-2.71-3.29-3.72,0-2.04,1.02-3.69,3.19-3.69s3.24,1.66,3.25,3.96h-5.31c.07,1.5.62,2.53,2.15,2.53a1.758,1.758,0,0,0,1.92-1.48Zm-1.04-1.92c-.2-1.37-.86-2.18-2.09-2.18s-1.88.82-2.06,2.18Z" fill="#3e3a39"/>
  <path id="パス_356" data-name="パス 356" d="M250.74,144.89v.95a2.492,2.492,0,0,1,2.48-1.2h.49v1.09h-.54a3.155,3.155,0,0,0-1.5.31,1.989,1.989,0,0,0-.92,1.66v4.09h-1.09v-6.9h1.08Z" fill="#3e3a39"/>
  <path id="パス_357" data-name="パス 357" d="M168.43,161.33l3.49,9.45h-1.23l-.77-2.13h-4.43l-.76,2.13h-1.25l3.49-9.45h1.45Zm-.72,1.12-1.87,5.24h3.74l-1.87-5.24Z" fill="#3e3a39"/>
  <path id="パス_358" data-name="パス 358" d="M179.77,164.61a2.429,2.429,0,0,0-2.47-2.49c-1.94,0-2.88,1.98-2.88,4.04,0,2.66,1.37,3.85,2.87,3.85.68,0,2.3-.26,2.49-2.63H181c-.12.74-.56,3.67-3.66,3.67-2.9,0-4.12-2.39-4.12-4.89s1.21-5.08,4.04-5.08c.4,0,3.21,0,3.68,3.54h-1.17Z" fill="#3e3a39"/>
  <path id="パス_359" data-name="パス 359" d="M189.55,161.33v1.03h-5.42v3.05h4.76v1.03h-4.76v3.31h5.53v1.03h-6.7v-9.45h6.6Z" fill="#3e3a39"/>
  <path id="パス_360" data-name="パス 360" d="M200.17,161.33a2.4,2.4,0,0,1,2.71,2.42,2.091,2.091,0,0,1-1.38,2.04,2.306,2.306,0,0,1,1.73,2.33,2.58,2.58,0,0,1-2.91,2.66h-4.49v-9.45h4.34Zm-3.15,1.03v3.11h2.9c1.44,0,1.76-.92,1.76-1.56,0-.42-.14-1.55-1.76-1.55Zm0,4.02v3.37h3.07a1.71,1.71,0,0,0,1.94-1.69c0-.68-.36-1.68-1.98-1.68h-3.04Z" fill="#3e3a39"/>
  <path id="パス_361" data-name="パス 361" d="M209.47,161.33l3.49,9.45h-1.24l-.77-2.13h-4.43l-.76,2.13h-1.25l3.49-9.45h1.45Zm-.72,1.12-1.87,5.24h3.74l-1.87-5.24Z" fill="#3e3a39"/>
  <path id="パス_362" data-name="パス 362" d="M222.58,166.07v4.71h-.91l-.07-1.58a3.61,3.61,0,0,1-3.14,1.85c-1.86,0-4.22-1.36-4.22-4.99s2.49-4.99,4.3-4.99a3.953,3.953,0,0,1,3.99,3.32h-1.25a2.773,2.773,0,0,0-2.81-2.28c-1.33,0-3.05.94-3.05,3.96,0,3.23,1.93,3.93,2.95,3.93a3.219,3.219,0,0,0,3.01-2.97h-2.83v-.96h4.02Z" fill="#3e3a39"/>
  <path id="パス_363" data-name="パス 363" d="M229.85,164c-.07-1.34-.78-1.88-2.06-1.88-.24,0-2.01,0-2.01,1.47,0,.98.66,1.24,2.53,1.93,1.92.72,3.01,1.12,3.01,2.72,0,1.2-.86,2.81-3.36,2.81-1.7,0-3.61-.79-3.67-3.11h1.26c.01,1.36.94,2.06,2.33,2.06s2.24-.76,2.24-1.66c0-.98-.79-1.28-2.3-1.81-2.08-.73-3.24-1.15-3.24-2.81s1.34-2.66,3.2-2.66a2.956,2.956,0,0,1,3.3,2.93h-1.22Z" fill="#3e3a39"/>
  <path id="パス_364" data-name="パス 364" d="M241.34,166.23a7.284,7.284,0,0,1-1.44,2.69l1.75,1.87h-1.5l-1.04-1.14a4.961,4.961,0,0,1-3.35,1.4,2.6,2.6,0,0,1-2.89-2.65c0-1.94,1.39-2.57,2.37-3-.82-.86-1.22-1.3-1.22-2.17a2.268,2.268,0,0,1,2.55-2.16c1.93,0,2.62,1.22,2.62,2.2,0,1.44-1.15,2.01-2.29,2.42l2.33,2.54a5.741,5.741,0,0,0,.97-2h1.14Zm-5.41-.17c-1.06.43-1.92,1.04-1.92,2.28a1.657,1.657,0,0,0,1.89,1.71,4.035,4.035,0,0,0,2.59-1.09l-2.57-2.9Zm2.23-2.88a1.427,1.427,0,0,0-1.55-1.3,1.448,1.448,0,0,0-1.59,1.32c0,.62.79,1.4,1.21,1.81C237.15,164.64,238.16,164.18,238.16,163.18Z" fill="#3e3a39"/>
  <path id="パス_365" data-name="パス 365" d="M244.49,161.33v8.42h4.77v1.03H243.3v-9.45Z" fill="#3e3a39"/>
  <path id="パス_366" data-name="パス 366" d="M252.33,161.33v6.07a2.7,2.7,0,0,0,5.4,0v-6.07h1.19v5.94c0,1.8-.88,3.78-3.9,3.78a3.486,3.486,0,0,1-3.86-3.78v-5.94h1.17Z" fill="#3e3a39"/>
  <path id="パス_367" data-name="パス 367" d="M269.19,166.07v4.71h-.91l-.07-1.58a3.626,3.626,0,0,1-3.14,1.85c-1.86,0-4.22-1.36-4.22-4.99s2.49-4.99,4.31-4.99a3.946,3.946,0,0,1,3.99,3.32H267.9a2.773,2.773,0,0,0-2.81-2.28c-1.33,0-3.05.94-3.05,3.96,0,3.23,1.93,3.93,2.95,3.93a3.219,3.219,0,0,0,3.01-2.97h-2.83v-.96Z" fill="#3e3a39"/>
  <path id="パス_368" data-name="パス 368" d="M279.27,166.07v4.71h-.91l-.07-1.58a3.626,3.626,0,0,1-3.14,1.85c-1.86,0-4.22-1.36-4.22-4.99s2.49-4.99,4.31-4.99a3.946,3.946,0,0,1,3.99,3.32h-1.25a2.773,2.773,0,0,0-2.81-2.28c-1.33,0-3.05.94-3.05,3.96,0,3.23,1.93,3.93,2.95,3.93a3.219,3.219,0,0,0,3.01-2.97h-2.83v-.96Z" fill="#3e3a39"/>
  <path id="パス_369" data-name="パス 369" d="M285.66,161.33l3.49,9.45h-1.23l-.77-2.13h-4.43l-.76,2.13h-1.25l3.49-9.45h1.45Zm-.72,1.12-1.87,5.24h3.74Z" fill="#3e3a39"/>
  <path id="パス_370" data-name="パス 370" d="M298.76,166.07v4.71h-.91l-.07-1.58a3.611,3.611,0,0,1-3.14,1.85c-1.86,0-4.22-1.36-4.22-4.99s2.49-4.99,4.3-4.99a3.953,3.953,0,0,1,3.99,3.32h-1.25a2.773,2.773,0,0,0-2.81-2.28c-1.33,0-3.05.94-3.05,3.96,0,3.23,1.93,3.93,2.95,3.93a3.219,3.219,0,0,0,3.01-2.97h-2.83v-.96h4.02Z" fill="#3e3a39"/>
  <path id="パス_371" data-name="パス 371" d="M307.45,161.33v1.03h-5.42v3.05h4.76v1.03h-4.76v3.31h5.53v1.03h-6.7v-9.45h6.6Z" fill="#3e3a39"/>
  <path id="パス_372" data-name="パス 372" d="M170.36,183.61a2.429,2.429,0,0,0-2.47-2.49c-1.94,0-2.88,1.98-2.88,4.04,0,2.66,1.37,3.85,2.87,3.85.68,0,2.3-.26,2.49-2.63h1.22c-.12.74-.56,3.67-3.66,3.67-2.9,0-4.13-2.39-4.13-4.89s1.21-5.08,4.04-5.08c.4,0,3.21,0,3.68,3.54h-1.18Z" fill="#3e3a39"/>
  <path id="パス_373" data-name="パス 373" d="M174.71,189.78h-1.19v-9.45h1.19Z" fill="#3e3a39"/>
  <path id="パス_374" data-name="パス 374" d="M183.85,180.33v1.03h-3.18v8.42h-1.19v-8.42H176.3v-1.03h7.54Z" fill="#3e3a39"/>
  <path id="パス_375" data-name="パス 375" d="M186.64,189.78h-1.19v-9.45h1.19Z" fill="#3e3a39"/>
  <path id="パス_376" data-name="パス 376" d="M195.4,180.33v1.03l-5.4,7.39h5.58v1.03h-7.14v-1.03l5.4-7.39h-5.12v-1.03Z" fill="#3e3a39"/>
  <path id="パス_377" data-name="パス 377" d="M204,180.33v1.03h-5.42v3.05h4.76v1.03h-4.76v3.31h5.53v1.03h-6.7v-9.45h6.6Z" fill="#3e3a39"/>
  <path id="パス_378" data-name="パス 378" d="M207.12,180.33l5.4,7.68v-7.68h1.19v9.45h-1.19l-5.4-7.68v7.68h-1.18v-9.45Z" fill="#3e3a39"/>
  <path id="パス_379" data-name="パス 379" d="M167.05,199.37a15.471,15.471,0,0,1-1.21,2.42c.11.02.41.11.41.19,0,.12-.14.17-.3.22v7.48h-.96v-6.62c-.37.5-.73.91-1.01,1.25a2.97,2.97,0,0,0-.66-.78,13.3,13.3,0,0,0,2.97-4.89l.95.38a.244.244,0,0,1,.17.19c0,.12-.16.14-.36.16Zm5.36,9.92H169.8c-1.61,0-1.85-.66-1.85-1.64v-4.14l-1.39.29-.19-.92,1.58-.34v-3.06l.94.08c.18.01.3.06.3.14s-.06.13-.26.23v2.4l1.5-.31V198.7l.96.08c.14.01.29.07.29.16s-.06.12-.3.2v2.67l1.88-.4.56.34V205c0,1.13,0,1.88-1.74,1.87a2.546,2.546,0,0,0-.37-1.01c.23.02.41.05.63.05.37,0,.5-.08.5-.71v-2.75l-1.47.31v4.04h-.95v-3.84l-1.5.32v4.25c0,.66.13.82,1.19.82h2.35c.82,0,1.2-.06,1.51-1.42a1.949,1.949,0,0,0,.83.48c-.48,1.86-1.29,1.86-2.39,1.86Z" fill="#3e3a39"/>
  <line id="線_23" data-name="線 23" x2="315.42" transform="translate(19.37 34.36)" fill="none" stroke="#f0b200" stroke-miterlimit="10" stroke-width="0.5"/>
  <path id="パス_380" data-name="パス 380" d="M26.86,19.64a5.942,5.942,0,0,1-4.46,6.21,4.123,4.123,0,0,0-.83-.92c3.68-1.03,4.16-3.24,4.16-5.29H20.57V18.6H31.48v1.04Zm-4.47-3.5V15.1h7.32v1.04Z" fill="#3e3a39"/>
  <path id="パス_381" data-name="パス 381" d="M40.94,18.67a7.48,7.48,0,0,1-4.65,7.27,3.1,3.1,0,0,0-.87-.9,6.288,6.288,0,0,0,4.36-6.37H34.31V17.62h5.47V14.5l1.17.04c.13,0,.29.01.29.16s-.2.21-.29.25v2.68h4.43v1.05H40.95Z" fill="#3e3a39"/>
  <path id="パス_382" data-name="パス 382" d="M51.9,18.29a14.543,14.543,0,0,0-3.69-2.48l.68-.96a17.333,17.333,0,0,1,3.72,2.46,6.375,6.375,0,0,0-.7.99Zm-2.54,7.02c-.01.22-.04.3-.18.3a.286.286,0,0,1-.21-.16l-.7-1.17a15.364,15.364,0,0,0,9.93-7.14,6.4,6.4,0,0,0,.72,1.01,17.522,17.522,0,0,1-9.56,7.15Z" fill="#3e3a39"/>
  <path id="パス_383" data-name="パス 383" d="M68.4,22.22a18.276,18.276,0,0,0-4.81-3.3v6.84H62.42V14.51l1.18.09c.17.01.25.05.25.16,0,.14-.17.18-.26.2v3.71l.51-.7a20.929,20.929,0,0,1,4.99,3.31,6.8,6.8,0,0,0-.69.95Z" fill="#3e3a39"/>
  <path id="パス_384" data-name="パス 384" d="M76.65,15.82c.08.04.2.13.2.22,0,.14-.18.13-.38.12-.25.33-1.33,1.82-1.55,2.11-.56.72-.73.91-1.22,1.5.59-.06,1.07-.14,2.04-.3a5.737,5.737,0,0,0-.38-1.04l.88-.27a13.891,13.891,0,0,1,.87,2.7,5.067,5.067,0,0,0-.95.33,7.321,7.321,0,0,0-.2-.9c-.16.04-1,.19-1.09.22v5.62h-1V20.67c-.56.08-.94.13-1.91.25-.05.17-.1.3-.22.3s-.2-.23-.21-.34l-.14-.94c.31-.01.86-.05,1.07-.06.33-.35.58-.7,1.03-1.27a15.671,15.671,0,0,0-2.07-1.88l.62-.83c.46.38.61.52.75.65a21.543,21.543,0,0,0,1.38-2.47l.86.42c.12.05.2.14.2.22,0,.12-.18.12-.25.12h-.12a23.658,23.658,0,0,1-1.44,2.29c.05.04.47.46.7.68.09-.12,1.25-1.66,1.69-2.43l.83.48Zm-3.42,5.95c.12.03.27.06.27.18s-.1.16-.33.22a15.653,15.653,0,0,1-.75,3.09,3.637,3.637,0,0,0-.97-.26,13.093,13.093,0,0,0,.87-3.39Zm3.13-.25a17.814,17.814,0,0,0,.83,2.8,3.544,3.544,0,0,0-.95.33,15.742,15.742,0,0,1-.77-2.86l.88-.26Zm6.63-5.19c.01,2.12.01,6.67-.68,8.48-.42,1.09-1.17,1.29-2.76,1.26a3.032,3.032,0,0,0-.47-1.21,6.559,6.559,0,0,0,1.1.1c.91,0,1.29-.25,1.59-2.87a41.08,41.08,0,0,0,.16-4.77H78.51a12.454,12.454,0,0,1-1.07,1.66,3.244,3.244,0,0,0-.92-.58,12.081,12.081,0,0,0,2.24-4.29l.98.32c.18.07.29.16.29.22,0,.12-.1.16-.4.21-.18.46-.38.97-.61,1.47H83ZM79.04,19a19.369,19.369,0,0,1,1.51,2.92,6.112,6.112,0,0,0-.95.47,19.81,19.81,0,0,0-1.47-2.99l.91-.4Z" fill="#3e3a39"/>
  <path id="パス_385" data-name="パス 385" d="M87.33,22.52a1.934,1.934,0,0,0,2.07,1.76c2.56,0,2.76-2.7,2.86-4.08a3.429,3.429,0,0,1-2.91,1.23,3.256,3.256,0,0,1-3.51-3.35,3.417,3.417,0,0,1,3.72-3.48c3.71,0,4.02,3.73,4.02,5.2,0,2.69-1.01,5.62-4.15,5.62a3.336,3.336,0,0,1-3.46-2.89h1.37Zm-.2-4.42a2.158,2.158,0,0,0,2.38,2.33,2.319,2.319,0,0,0,2.61-2.29,2.419,2.419,0,0,0-2.6-2.42,2.257,2.257,0,0,0-2.39,2.38Z" fill="#3e3a39"/>
  <path id="パス_386" data-name="パス 386" d="M103.78,19.99c0,2.08-.52,5.41-3.87,5.41s-3.89-3.41-3.89-5.41.47-5.41,3.89-5.41S103.78,18.04,103.78,19.99Zm-6.46,0c0,1.7.37,4.28,2.57,4.28s2.59-2.59,2.59-4.28-.36-4.28-2.57-4.28S97.32,18.26,97.32,19.99Z" fill="#3e3a39"/>
  <path id="パス_387" data-name="パス 387" d="M108.38,16.74v2.87a12.713,12.713,0,0,1-1.4,6.42,3.488,3.488,0,0,0-1.03-.53c1.34-2.04,1.35-5,1.35-5.98V15.79h4.34V14.18l1.14.07c.09,0,.29.04.29.19,0,.09-.16.18-.31.22v1.13h5.29v.95h-9.67Zm4.78,2.63v1.88h3.67v4.82h-1.08v-.62h-5.21v.64h-1.05V21.25h2.56V16.79l1.12.1c.12.01.31.04.31.17s-.16.16-.31.18v1.17h4.41v.95h-4.41Zm2.59,2.85h-5.21v2.29h5.21V22.22Z" fill="#3e3a39"/>
  <path id="パス_388" data-name="パス 388" d="M129.43,25.88h-.96V23.11h-1.43v3.04h-.95V17.93h2.38V16.58h-2.63a2.28,2.28,0,0,0,.3.23,3.354,3.354,0,0,0-.78.71,9.762,9.762,0,0,1-1.95-2.21,13.233,13.233,0,0,1-2.17,2.63h1.55V16.52l1.01.05c.14.01.25.03.25.14,0,.16-.18.2-.33.23v.99h1.65v.84h-1.65V19.9h1.99v.83h-5.13V19.9h2.21V18.77h-1.57v-.82l-.18.16a2.208,2.208,0,0,0-.85-.66,8.816,8.816,0,0,0,2.85-3.41l1.03.2c.06.01.23.05.23.18,0,.16-.2.21-.42.22a13.1,13.1,0,0,0,1.83,1.83v-.79h2.76V14.12l.96.04c.23.01.34.01.34.14s-.13.17-.34.23v1.14h1.55a7.626,7.626,0,0,0-.86-1.21l.66-.36a11.089,11.089,0,0,1,.99,1.27l-.53.3h1.18v.88h-2.99V17.9h2.47v7.02c0,.78-.12,1.17-1.7,1.14a2.238,2.238,0,0,0-.4-1.09,4.835,4.835,0,0,0,.73.08c.42,0,.42-.13.42-.65V23.07h-1.51v2.77Zm-4.13-4.42v4.68h-.94v-.69h-2.13v.69h-1V21.46Zm-3.07.88v2.22h2.13V22.34Zm6.24-3.55h-1.43v1.29h1.43V18.79Zm0,2.15h-1.43v1.3h1.43Zm.96-.86h1.51V18.79h-1.51Zm0,2.16h1.51v-1.3h-1.51Z" fill="#3e3a39"/>
</svg>
